SplineFontDB: 2.0
FontName: Umpush-Bold
FullName: Umpush Bold
FamilyName: Umpush
Weight: Bold
Copyright: Copyright (c) NECTEC, 2003. All rights reserved.\nModified under GNU General Public License by TLWG.
Version: 0.9.7: 2007-04-13
ItalicAngle: 0
UnderlinePosition: -170
UnderlineWidth: 10
Ascent: 1638
Descent: 410
Order2: 1
NeedsXUIDChange: 1
FSType: 0
OS2Version: 0
OS2_WeightWidthSlopeOnly: 0
OS2_UseTypoMetrics: 0
CreationTime: 1153662462
ModificationTime: 1182313756
PfmFamily: 33
TTFWeight: 700
TTFWidth: 5
LineGap: 0
VLineGap: 0
Panose: 2 11 6 4 2 2 2 2 2 4
OS2TypoAscent: 0
OS2TypoAOffset: 1
OS2TypoDescent: 0
OS2TypoDOffset: 1
OS2TypoLinegap: 0
OS2WinAscent: 0
OS2WinAOffset: 1
OS2WinDescent: 0
OS2WinDOffset: 1
HheadAscent: 0
HheadAOffset: 1
HheadDescent: 0
HheadDOffset: 1
OS2SubXSize: -17396
OS2SubYSize: -11016
OS2SubXOff: 13787
OS2SubYOff: 2000
OS2SupXSize: -11172
OS2SupYSize: 3
OS2SupXOff: 4916
OS2SupYOff: 24828
OS2StrikeYSize: 12944
OS2StrikeYPos: 90
OS2Vendor: 'PfEd'
Lookup: 6 0 0 "'ccmp' Glyph Composition/Decomposition in Thai lookup 0"  {"'ccmp' Glyph Composition/Decomposition in Thai lookup 0"  } ['ccmp' ('thai' <'KUY ' 'PAL ' 'THA ' 'dflt' > ) ]
Lookup: 6 0 0 "'ccmp' Glyph Composition/Decomposition in Thai lookup 1"  {"'ccmp' Glyph Composition/Decomposition in Thai lookup 1"  } ['ccmp' ('thai' <'KUY ' 'PAL ' 'THA ' 'dflt' > ) ]
Lookup: 5 0 0 "Required Feature in Thai lookup 2"  {"Required Feature in Thai lookup 2"  } [' RQD' ('thai' <'PAL ' > ) ]
Lookup: 1 0 0 "Single Substitution lookup 3"  {"Single Substitution lookup 3"  } []
Lookup: 2 0 0 "Multiple Substitution lookup 4"  {"Multiple Substitution lookup 4"  } []
Lookup: 1 0 0 "Single Substitution lookup 5"  {"Single Substitution lookup 5"  } []
Lookup: 2 0 0 "Multiple Substitution lookup 6"  {"Multiple Substitution lookup 6"  } []
Lookup: 1 0 0 "Single Substitution lookup 7"  {"Single Substitution lookup 7"  } []
Lookup: 1 0 0 "Single Substitution lookup 8"  {"Single Substitution lookup 8"  } []

StartChar: .notdef
Encoding: 65536 -1 0
Width: 1536
Flags: W
HStem: 0 32<288 1248> 1248 32<288 1248>
VStem: 256 32<32 1248> 1248 32<32 1248>
Fore
256 0 m 1,0,-1
 256 1280 l 1,1,-1
 1280 1280 l 1,2,-1
 1280 0 l 1,3,-1
 256 0 l 1,0,-1
288 32 m 1,4,-1
 1248 32 l 1,5,-1
 1248 1248 l 1,6,-1
 288 1248 l 1,7,-1
 288 32 l 1,4,-1
EndSplineSet
EndChar
StartChar: uni0E4D.high
Encoding: 63262 63262 2
Width: 0
VWidth: 2558
Flags: HW
TeX: 0 0 0 0
HStem: 1725 72<-302 -222.7> 1953 74<-310.1 -221.7>
VStem: -412 69<1835 1914.3> -183 70<1837.6 1919.5>
AnchorPoint: "AboveMark" -261.728 1739.3 mark 0
Fore
-261 2027 m 0,0,1
 -200 2027 -200 2027 -156 1982 c 0,2,3
 -113 1938 -113 1938 -113 1874 c 0,4,5
 -113 1813 -113 1813 -157 1769 c 0,6,7
 -203 1725 -203 1725 -261 1725 c 0,8,9
 -321 1725 -321 1725 -367 1769 c 0,10,11
 -412 1811 -412 1811 -412 1874 c 0,12,13
 -412 1936 -412 1936 -367 1982 c 0,14,15
 -324 2027 -324 2027 -261 2027 c 0,0,1
-263 1797 m 0,16,17
 -232 1797 -232 1797 -207 1822 c 0,18,19
 -183 1846 -183 1846 -183 1874 c 0,20,21
 -183 1909 -183 1909 -206 1930 c 0,22,23
 -231 1953 -231 1953 -262 1953 c 0,24,25
 -299 1953 -299 1953 -320 1930 c 0,26,27
 -343 1905 -343 1905 -343 1874 c 0,28,29
 -343 1844 -343 1844 -319 1820 c 0,30,31
 -293 1797 -293 1797 -263 1797 c 0,16,17
EndSplineSet
EndChar
StartChar: exclam
Encoding: 33 33 5
Width: 569
Flags: W
HStem: 0 194<177 400> 1430 20G<169 408>
VStem: 169 239<910.471 1450> 177 223<0 194>
Fore
169 999 m 1,0,-1
 169 1450 l 1,1,-1
 408 1450 l 1,2,-1
 408 999 l 1,3,-1
 365 365 l 1,4,-1
 213 365 l 1,5,-1
 169 999 l 1,0,-1
177 194 m 1,6,-1
 400 194 l 1,7,-1
 400 0 l 1,8,-1
 177 0 l 1,9,-1
 177 194 l 1,6,-1
EndSplineSet
EndChar
StartChar: quotedbl
Encoding: 34 34 6
Width: 727
Flags: W
HStem: 1430 20G<106 336 389 619>
VStem: 106 230<1183.82 1450> 389 230<1182.44 1450>
Fore
156 947 m 1,0,-1
 106 1217 l 1,1,-1
 106 1450 l 1,2,-1
 336 1450 l 1,3,-1
 336 1217 l 1,4,-1
 291 947 l 1,5,-1
 156 947 l 1,0,-1
437 947 m 1,6,-1
 389 1217 l 1,7,-1
 389 1450 l 1,8,-1
 619 1450 l 1,9,-1
 619 1217 l 1,10,-1
 572 947 l 1,11,-1
 437 947 l 1,6,-1
EndSplineSet
EndChar
StartChar: numbersign
Encoding: 35 35 7
Width: 1139
Flags: W
HStem: -10 21G<57 297 516 763> 355 240<21 144 414 602 872 1113> 865 240<21 248 518 698 977 1113> 1450 20G<365 605 824 1064>
Fore
57 -10 m 1,0,-1
 144 355 l 1,1,-1
 21 355 l 1,2,-1
 21 595 l 1,3,-1
 183 595 l 1,4,-1
 248 865 l 1,5,-1
 21 865 l 1,6,-1
 21 1105 l 1,7,-1
 278 1105 l 1,8,-1
 365 1470 l 1,9,-1
 605 1470 l 1,10,-1
 518 1105 l 1,11,-1
 737 1105 l 1,12,-1
 824 1470 l 1,13,-1
 1064 1470 l 1,14,-1
 977 1105 l 1,15,-1
 1113 1105 l 1,16,-1
 1113 865 l 1,17,-1
 938 864 l 1,18,-1
 872 595 l 1,19,-1
 1113 595 l 1,20,-1
 1113 355 l 1,21,-1
 842 355 l 1,22,-1
 763 -10 l 1,23,-1
 516 -10 l 1,24,-1
 602 355 l 1,25,-1
 384 355 l 1,26,-1
 297 -10 l 1,27,-1
 57 -10 l 1,0,-1
414 595 m 1,28,-1
 632 595 l 1,29,-1
 698 865 l 1,30,-1
 479 865 l 1,31,-1
 414 595 l 1,28,-1
EndSplineSet
EndChar
StartChar: dollar
Encoding: 36 36 8
Width: 1139
Flags: W
VStem: 106 210<986.354 1093.15> 462 202<-118 -37 153 599 840 1239 1429 1488> 830 212<262.5 467.851>
Fore
462 -37 m 1,0,1
 388 -28 388 -28 330 -6 c 0,2,3
 103 80 103 80 79 344 c 2,4,-1
 76 417 l 1,5,-1
 285 417 l 1,6,-1
 285 400 l 2,7,8
 285 331 285 331 304 284 c 0,9,10
 340 195 340 195 462 153 c 1,11,-1
 462 621 l 1,12,13
 348 643 348 643 262 710 c 0,14,15
 106 828.5 106 828.5 106 1031 c 0,16,17
 106 1166 106 1166 169 1264 c 0,18,19
 264 1410 264 1410 462 1429 c 1,20,-1
 462 1488 l 1,21,-1
 664 1488 l 1,22,-1
 664 1429 l 1,23,24
 986 1393 986 1393 1008 1050 c 1,25,-1
 805 1050 l 1,26,27
 802 1081 802 1081 788 1116 c 0,28,29
 751 1210 751 1210 664 1239 c 1,30,-1
 664 820 l 1,31,32
 771 800 771 800 846 755 c 0,33,34
 1042 641 1042 641 1042 397 c 0,35,36
 1042 224 1042 224 946 105 c 0,37,38
 840 -24 840 -24 664 -35 c 1,39,-1
 664 -118 l 1,40,-1
 462 -118 l 1,41,-1
 462 -37 l 1,0,1
462 1241 m 1,42,43
 442 1237 442 1237 433 1234 c 0,44,45
 337 1201 337 1201 319 1091 c 2,46,-1
 316 1044 l 2,47,48
 316 1018 316 1018 320 999 c 0,49,50
 338 888 338 888 462 840 c 1,51,-1
 462 1241 l 1,42,43
704 167 m 1,52,-1
 741 186 l 2,53,54
 830 243 830 243 830 386 c 0,55,56
 830 424 830 424 822 458 c 2,57,-1
 810 495 l 2,58,59
 776 570 776 570 664 599 c 1,60,-1
 664 153 l 1,61,-1
 704 167 l 1,52,-1
EndSplineSet
EndChar
StartChar: percent
Encoding: 37 37 9
Width: 1821
Flags: W
HStem: -53 177<1335.5 1429.1> 546 175<1330.3 1427.8> 717 169<388.1 476.5> 1317 174<382.9 476.5>
VStem: 119 191<987.779 1209.53> 554 191<990.647 1214.66> 1067 190<224.802 443.612> 1507 189<226.729 444.668>
Fore
119 1114 m 0,0,1
 119 1272 119 1272 197 1380 c 0,2,3
 276 1491 276 1491 426 1491 c 0,4,5
 570 1491 570 1491 655 1392 c 0,6,7
 745 1288.5 745 1288.5 745 1104 c 0,8,9
 744 928 744 928 654 817 c 0,10,11
 569 717 569 717 428 717 c 0,12,13
 292 717 292 717 208 815 c 0,14,15
 119 919 119 919 119 1114 c 0,0,1
431 1317 m 0,16,17
 377 1317 377 1317 345 1270 c 0,18,19
 310 1217 310 1217 310 1096 c 0,20,21
 310 980 310 980 346 933 c 0,22,23
 381 886 381 886 431 886 c 0,24,25
 484 886 484 886 519 933 c 0,26,27
 554 982 554 982 554 1107 c 0,28,29
 554 1223 554 1223 519 1270 c 128,-1,30
 484 1317 484 1317 431 1317 c 0,16,17
1170 1491 m 1,31,-1
 1447 1491 l 1,32,-1
 688 -10 l 1,33,-1
 411 -10 l 1,34,-1
 1170 1491 l 1,31,-1
1067 344 m 0,35,36
 1067 502 1067 502 1145 610 c 0,37,38
 1224.5 721 1224.5 721 1376 721 c 0,39,40
 1518.5 721 1518.5 721 1604 622 c 0,41,42
 1696 516 1696 516 1696 334 c 0,43,44
 1696 153 1696 153 1604 47 c 0,45,46
 1516 -53 1516 -53 1376 -53 c 128,-1,47
 1236 -53 1236 -53 1155 46 c 0,48,49
 1067 152 1067 152 1067 344 c 0,35,36
1381 546 m 0,50,51
 1323 546 1323 546 1291 499 c 0,52,53
 1257 449 1257 449 1257 329 c 0,54,55
 1257 218 1257 218 1293 171 c 128,-1,56
 1329 124 1329 124 1381 124 c 0,57,58
 1436 124 1436 124 1472 171 c 0,59,60
 1507 218 1507 218 1507 340 c 0,61,62
 1507 452.5 1507 452.5 1471 499 c 0,63,64
 1435 546 1435 546 1381 546 c 0,50,51
EndSplineSet
EndChar
StartChar: ampersand
Encoding: 38 38 10
Width: 1366
Flags: W
HStem: -21 206<467.802 617.565>
VStem: 88 239<336.9 511.1>
Fore
948 140 m 1,0,1
 920 109 920 109 883 83 c 0,2,3
 749 -13 749 -13 576 -22 c 2,4,-1
 509 -21 l 2,5,6
 313 -8 313 -8 195 127 c 0,7,8
 88 252 88 252 88 403 c 0,9,10
 88 702 88 702 407 852 c 1,11,12
 376 888 376 888 352 921 c 0,13,14
 272 1034 272 1034 272 1163 c 0,15,16
 272 1302.5 272 1302.5 377 1397 c 0,17,18
 483 1491 483 1491 637 1491 c 0,19,20
 754 1491 754 1491 842 1431 c 2,21,-1
 877 1403 l 2,22,23
 977 1313 977 1313 977 1178 c 0,24,25
 977 1163 977 1163 976 1156 c 0,26,27
 966 952 966 952 720 821 c 1,28,-1
 926 522 l 1,29,30
 971 607 971 607 995 727 c 1,31,-1
 1221 649 l 1,32,33
 1177 484 1177 484 1095 357 c 1,34,35
 1196 226 1196 226 1324 132 c 1,36,-1
 1173 -67 l 1,37,38
 1065 5 1065 5 948 140 c 1,0,1
609 983 m 1,39,40
 658 1008 658 1008 685 1035 c 0,41,42
 732 1081 732 1081 737 1171 c 1,43,44
 739 1173 739 1173 737 1176 c 1,45,46
 737 1207 737 1207 721 1232 c 0,47,48
 690 1284 690 1284 627 1286 c 0,49,50
 589 1286 589 1286 560 1263 c 0,51,52
 516 1228 516 1228 512 1177 c 2,53,-1
 512 1167 l 2,54,55
 512 1086 512 1086 609 983 c 1,39,40
530 671 m 1,56,57
 495 650 495 650 462 626 c 0,58,59
 327 526 327 526 327 411 c 0,60,61
 327 325 327 325 384 253 c 0,62,63
 412 217 412 217 454 201 c 0,64,65
 492 185 492 185 540 185 c 0,66,67
 597 185 597 185 653 207 c 0,68,69
 755 246 755 246 800 326 c 1,70,-1
 530 671 l 1,56,57
EndSplineSet
EndChar
StartChar: quotesingle
Encoding: 39 39 11
Width: 391
Flags: W
HStem: 1446 20G<61 324>
VStem: 61 263<1185.93 1466>
Fore
107 947 m 1,0,-1
 61 1221 l 1,1,-1
 61 1466 l 1,2,-1
 324 1466 l 1,3,-1
 324 1221 l 1,4,-1
 276 947 l 1,5,-1
 107 947 l 1,0,-1
EndSplineSet
EndChar
StartChar: parenleft
Encoding: 40 40 12
Width: 682
Flags: W
VStem: 81 276<360.7 768>
Fore
436 -431 m 1,0,1
 232 -173 232 -173 141 135 c 0,2,3
 81 334.5 81 334.5 81 531 c 0,4,5
 81 894 81 894 252 1209 c 0,6,7
 322 1339 322 1339 436 1491 c 1,8,-1
 656 1491 l 1,9,10
 520 1258 520 1258 466 1130 c 0,11,12
 360 878 360 878 357 549 c 2,13,-1
 357 530 l 2,14,15
 357 50 357 50 656 -431 c 1,16,-1
 436 -431 l 1,0,1
EndSplineSet
EndChar
StartChar: parenright
Encoding: 41 41 13
Width: 682
Flags: W
VStem: 378 278<208.6 759.8>
Fore
301 -431 m 1,0,-1
 79 -431 l 1,1,2
 378 50 378 50 378 530 c 0,3,4
 378 849 378 849 281 1097 c 0,5,6
 240 1204 240 1204 79 1491 c 1,7,-1
 301 1491 l 1,8,9
 492 1236 492 1236 571 1022 c 0,10,11
 656 797 656 797 656 531 c 0,12,13
 656 158 656 158 449 -209 c 0,14,15
 380 -330 380 -330 301 -431 c 1,0,-1
EndSplineSet
EndChar
StartChar: asterisk
Encoding: 42 42 14
Width: 797
Flags: W
HStem: 858 633<306 510>
VStem: 303 185<1263.3 1491>
Fore
65 1176 m 1,0,-1
 107 1357 l 1,1,-1
 274 1301 l 2,2,3
 290 1295 290 1295 310 1284 c 1,4,5
 303 1344 303 1344 303 1399 c 2,6,-1
 306 1491 l 1,7,-1
 483 1491 l 1,8,-1
 488 1349 l 2,9,10
 486 1316 486 1316 482 1282 c 1,11,12
 542 1313 542 1313 667 1353 c 2,13,-1
 688 1360 l 1,14,-1
 721 1179 l 1,15,16
 604 1140 604 1140 537 1131 c 2,17,-1
 513 1128 l 1,18,19
 561 1087 561 1087 658 967 c 2,20,-1
 662 962 l 1,21,-1
 510 858 l 1,22,23
 450 941 450 941 392 1041 c 1,24,25
 346 954 346 954 283 869 c 2,26,-1
 277 862 l 1,27,-1
 126 968 l 1,28,29
 238 1106 238 1106 271 1136 c 1,30,-1
 102 1167 l 2,31,32
 78 1173 78 1173 65 1176 c 1,0,-1
EndSplineSet
EndChar
StartChar: plus
Encoding: 43 43 15
Width: 1196
Flags: W
HStem: 611 226<114 483 713 1082>
VStem: 483 230<237 611 837 1206>
Fore
483 237 m 1,0,-1
 483 611 l 1,1,-1
 114 611 l 1,2,-1
 114 837 l 1,3,-1
 483 837 l 1,4,-1
 483 1206 l 1,5,-1
 713 1206 l 1,6,-1
 713 837 l 1,7,-1
 1082 837 l 1,8,-1
 1082 611 l 1,9,-1
 713 611 l 1,10,-1
 713 237 l 1,11,-1
 483 237 l 1,0,-1
EndSplineSet
EndChar
StartChar: comma
Encoding: 44 44 16
Width: 569
Flags: W
VStem: 122 297<-22 231>
Fore
122 -22 m 1,0,-1
 122 231 l 1,1,-1
 419 231 l 1,2,-1
 419 -22 l 2,3,4
 419 -179 419 -179 349 -246 c 0,5,6
 320.5 -274.5 320.5 -274.5 268 -300 c 1,7,-1
 111 -207 l 1,8,9
 195 -170 195 -170 229 -88 c 0,10,11
 242.5 -56.5 242.5 -56.5 244 -22 c 1,12,-1
 122 -22 l 1,0,-1
EndSplineSet
EndChar
StartChar: hyphen
Encoding: 45 45 17
Width: 682
Flags: W
HStem: 388 266<65 618>
Fore
65 388 m 1,0,-1
 65 654 l 1,1,-1
 618 654 l 1,2,-1
 618 388 l 1,3,-1
 65 388 l 1,0,-1
EndSplineSet
EndChar
StartChar: period
Encoding: 46 46 18
Width: 569
Flags: W
HStem: 0 220<154 430>
VStem: 154 276<0 220>
Fore
154 0 m 1,0,-1
 154 220 l 1,1,-1
 430 220 l 1,2,-1
 430 0 l 1,3,-1
 154 0 l 1,0,-1
EndSplineSet
EndChar
StartChar: slash
Encoding: 47 47 19
Width: 595
Flags: W
HStem: -10 21G<-110 130> 1450 20G<477 716>
VStem: -110 826<-10 1470>
Fore
-110 -10 m 1,0,-1
 477 1470 l 1,1,-1
 716 1470 l 1,2,-1
 130 -10 l 1,3,-1
 -110 -10 l 1,0,-1
EndSplineSet
EndChar
StartChar: zero
Encoding: 48 48 20
Width: 1139
Flags: W
VStem: 86 254<320.3 950.311> 781 259<526.7 981.358>
Fore
86 736 m 0,0,1
 86 962 86 962 126 1115 c 0,2,3
 222 1482 222 1482 563 1482 c 0,4,5
 614 1482 614 1482 661 1473 c 0,6,7
 1040 1400 1040 1400 1040 736 c 0,8,9
 1040 496 1040 496 993 337 c 0,10,11
 893 4 893 4 563 -10 c 0,12,13
 538 -10 538 -10 526 -9 c 0,14,15
 86 20 86 20 86 736 c 0,0,1
340 735 m 0,16,17
 340 257 340 257 560 257 c 0,18,19
 588 259 588 259 601 262 c 0,20,21
 781 306 781 306 781 735 c 0,22,23
 781 767 781 767 779 821 c 0,24,25
 759 1213 759 1213 559 1213 c 0,26,27
 490 1213 490 1213 444 1171 c 0,28,29
 340 1076 340 1076 340 735 c 0,16,17
EndSplineSet
EndChar
StartChar: one
Encoding: 49 49 21
Width: 1139
Flags: W
HStem: 0 21G<525 763> 1452 20G<525 763>
VStem: 525 238<0 1045>
Fore
763 0 m 1,0,-1
 525 0 l 1,1,-1
 525 1045 l 1,2,3
 417 921 417 921 289 867 c 0,4,5
 252 851 252 851 223 844 c 1,6,-1
 223 1104 l 1,7,8
 360 1169 360 1169 425 1253 c 0,9,10
 489 1335 489 1335 525 1472 c 1,11,-1
 763 1472 l 1,12,-1
 763 0 l 1,0,-1
EndSplineSet
EndChar
StartChar: two
Encoding: 50 50 22
Width: 1139
Flags: W
HStem: 0 223<382 1031> 1273 209<524.992 629.928>
VStem: 794 235<995.618 1146>
Fore
1031 223 m 1,0,-1
 1031 0 l 1,1,-1
 62 0 l 1,2,3
 76 169 76 169 185 332 c 0,4,5
 228 398 228 398 280 450 c 0,6,7
 321 491 321 491 540 682 c 0,8,9
 610 742 610 742 625 759 c 0,10,11
 761 896 761 896 786 1004 c 0,12,13
 794 1041 794 1041 794 1074 c 2,14,-1
 794 1079 l 2,15,16
 793 1178 793 1178 693 1237 c 0,17,18
 631 1272 631 1272 568 1273 c 2,19,-1
 526 1269 l 2,20,21
 421 1251 421 1251 369 1172 c 2,22,-1
 351 1139 l 2,23,24
 333 1098 333 1098 331 1039 c 1,25,-1
 96 1039 l 1,26,27
 96 1244 96 1244 234 1367 c 0,28,29
 364 1482 364 1482 572 1482 c 0,30,31
 784 1482 784 1482 910 1365 c 0,32,33
 1029 1255 1029 1255 1029 1075 c 0,34,35
 1029 921 1029 921 901 742 c 2,36,-1
 873 705 l 2,37,38
 814 630 814 630 671 509 c 0,39,40
 519.5 380 519.5 380 464 323 c 0,41,42
 410 266 410 266 382 223 c 1,43,-1
 1031 223 l 1,0,-1
EndSplineSet
EndChar
StartChar: three
Encoding: 51 51 23
Width: 1139
Flags: W
HStem: -10 216<485.4 670> 1070 21G<104 333> 1268 214<491.253 607.302>
VStem: 740 234<1019.93 1163.5> 805 241<370.9 533.4>
Fore
86 427 m 1,0,-1
 316 427 l 1,1,2
 329 321 329 321 411 256 c 0,3,4
 476 206 476 206 553 206 c 0,5,6
 687 206 687 206 758 298 c 0,7,8
 805 360 805 360 805 445 c 0,9,10
 805 547 805 547 715 613 c 0,11,12
 639 668 639 668 537 668 c 0,13,14
 489 668 489 668 441 654 c 1,15,-1
 441 882 l 1,16,-1
 516 883 l 2,17,18
 691 895 691 895 728 1016 c 0,19,20
 740 1054 740 1054 740 1105 c 0,21,22
 740 1172 740 1172 671 1224 c 0,23,24
 612 1268 612 1268 549 1268 c 0,25,26
 436 1268 436 1268 376 1189 c 2,27,-1
 357 1158 l 2,28,29
 338 1121 338 1121 333 1070 c 1,30,-1
 104 1070 l 1,31,32
 104 1232 104 1232 216 1348 c 0,33,34
 330 1466 330 1466 503 1480 c 0,35,36
 531 1482 531 1482 545 1482 c 0,37,38
 723 1482 723 1482 845 1381 c 0,39,40
 974 1274 974 1274 974 1101 c 0,41,42
 974 926 974 926 901 850 c 2,43,-1
 874 827 l 2,44,45
 848 808 848 808 812 794 c 1,46,47
 983 766 983 766 1028 606 c 2,48,-1
 1040 548 l 2,49,50
 1046 503 1046 503 1046 449 c 0,51,52
 1046 257 1046 257 915 129 c 0,53,54
 787 4 787 4 592 -9 c 0,55,56
 579 -10 579 -10 552 -10 c 0,57,58
 372 -10 372 -10 240 98 c 0,59,60
 108 207 108 207 88 379 c 0,61,62
 86 411 86 411 86 427 c 1,0,-1
EndSplineSet
EndChar
StartChar: four
Encoding: 52 52 24
Width: 1139
Flags: W
HStem: 0 21G<662 892> 327 225<321 662 892 1070> 1452 20G<662 892>
VStem: 662 230<0 327 552 1077>
Fore
662 0 m 1,0,-1
 662 327 l 1,1,-1
 56 327 l 1,2,-1
 56 552 l 1,3,-1
 662 1472 l 1,4,-1
 892 1472 l 1,5,-1
 892 552 l 1,6,-1
 1070 552 l 1,7,-1
 1070 327 l 1,8,-1
 892 327 l 1,9,-1
 892 0 l 1,10,-1
 662 0 l 1,0,-1
662 552 m 1,11,-1
 662 1077 l 1,12,-1
 321 552 l 1,13,-1
 662 552 l 1,11,-1
EndSplineSet
EndChar
StartChar: five
Encoding: 53 53 25
Width: 1139
Flags: W
HStem: -10 214<478.609 663.9> 777 230<514.099 640.497> 1244 228<473 988>
VStem: 85 245<277.889 415> 817 240<386.8 579.223>
Fore
85 415 m 1,0,-1
 330 415 l 1,1,2
 339 265 339 265 463 220 c 0,3,4
 505 204 505 204 556 204 c 0,5,6
 680.5 204 680.5 204 751 294 c 0,7,8
 813 371 813 371 817 496 c 2,9,-1
 815 550 l 2,10,11
 802 692 802 692 690 748 c 0,12,13
 630 777 630 777 553 777 c 2,14,-1
 503 774 l 2,15,16
 416 760 416 760 355 686 c 1,17,-1
 117 708 l 1,18,-1
 259 1472 l 1,19,-1
 988 1472 l 1,20,-1
 988 1244 l 1,21,-1
 473 1244 l 1,22,-1
 404 940 l 1,23,24
 481 991 481 991 531 1001 c 0,25,26
 558 1007 558 1007 591 1007 c 0,27,28
 805 1004 805 1004 932 863 c 0,29,30
 1057 726 1057 726 1057 512 c 0,31,32
 1057 290 1057 290 930 147 c 0,33,34
 797 -3 797 -3 575 -10 c 2,35,-1
 556 -10 l 2,36,37
 310 -10 310 -10 183 152 c 0,38,39
 102 255 102 255 85 415 c 1,0,-1
EndSplineSet
EndChar
StartChar: six
Encoding: 54 54 26
Width: 1139
Flags: W
HStem: -10 210<505.7 698.1> 764 213<465.9 653.117> 1257 225<489.79 673.071>
VStem: 77 239<701 1001.52> 819 227<384.881 581.356>
Fore
1019 1103 m 1,0,-1
 807 1104 l 1,1,2
 776 1209 776 1209 680 1244 c 0,3,4
 644 1257 644 1257 600 1257 c 0,5,6
 342 1257 342 1257 316 885 c 0,7,8
 316 867 316 867 315 858 c 1,9,10
 413 977 413 977 589 977 c 2,11,-1
 594 977 l 2,12,13
 777 976 777 976 905 846 c 2,14,-1
 940 806 l 2,15,16
 1023 699 1023 699 1041 559 c 0,17,18
 1046 514 1046 514 1046 479 c 0,19,20
 1044.5 273.5 1044.5 273.5 926 137 c 0,21,22
 803 -4 803 -4 602 -10 c 2,23,-1
 586 -10 l 2,24,25
 242 -10 242 -10 129 329 c 0,26,27
 77 482 77 482 77 701 c 0,28,29
 77 1311 77 1311 403 1446 c 0,30,31
 492 1482 492 1482 603 1482 c 0,32,33
 774 1482 774 1482 892 1383 c 0,34,35
 916 1363 916 1363 936 1339 c 0,36,37
 1019 1239 1019 1239 1019 1103 c 1,0,-1
351 489 m 0,38,39
 351 337 351 337 434 257 c 0,40,41
 494 200 494 200 585 200 c 0,42,43
 716 200 716 200 779 310 c 0,44,45
 819 380 819 380 819 481 c 0,46,47
 819 635.5 819 635.5 729 712 c 2,48,-1
 700 733 l 2,49,50
 648 764 648 764 579 764 c 0,51,52
 448 764 448 764 388 653 c 0,53,54
 351 586 351 586 351 489 c 0,38,39
EndSplineSet
EndChar
StartChar: seven
Encoding: 55 55 27
Width: 1139
Flags: W
HStem: 0 21G<253 511> 1233 239<97 755>
Fore
97 1233 m 1,0,-1
 97 1472 l 1,1,-1
 1046 1472 l 1,2,-1
 1046 1233 l 1,3,4
 957 1140 957 1140 839 973 c 0,5,6
 715 800 715 800 675 692 c 0,7,8
 545 344 545 344 519 129 c 0,9,10
 511 57 511 57 511 0 c 1,11,-1
 253 0 l 1,12,13
 254 363 254 363 446 776 c 0,14,15
 521 938 521 938 727 1198 c 2,16,-1
 755 1233 l 1,17,-1
 97 1233 l 1,0,-1
EndSplineSet
EndChar
StartChar: eight
Encoding: 56 56 28
Width: 1139
Flags: W
HStem: -10 209<487.4 620.987> 1284 198<480.5 635.373>
VStem: 83 239<334.3 511.661> 142 227<1006.9 1166.6> 761 228<1033.96 1186.1> 812 237<360.745 535.4>
Fore
362 805 m 1,0,1
 142 886 142 886 142 1104 c 0,2,3
 142 1283 142 1283 270 1388 c 0,4,5
 385 1482 385 1482 563 1482 c 0,6,7
 753 1482 753 1482 873 1374 c 2,8,-1
 904 1342 l 2,9,10
 989 1242 989 1242 989 1099 c 0,11,12
 989 932 989 932 841 841 c 0,13,14
 812 822 812 822 773 805 c 1,15,16
 944 749 944 749 1005 629 c 0,17,18
 1045 550 1045 550 1049 434 c 2,19,-1
 1047 380 l 2,20,21
 1030.5 228.5 1030.5 228.5 903 116 c 0,22,23
 776 5 776 5 609 -8 c 0,24,25
 579 -10 579 -10 566 -10 c 0,26,27
 351.5 -10 351.5 -10 218 113 c 0,28,29
 84.5 234.5 84.5 234.5 83 434 c 2,30,-1
 83 439 l 2,31,32
 83 655 83 655 244 756 c 0,33,34
 300 789 300 789 362 805 c 1,0,1
369 1107 m 0,35,36
 371 991 371 991 459 943 c 0,37,38
 505 918 505 918 567 918 c 0,39,40
 673 918 673 918 727 990 c 0,41,42
 761 1036 761 1036 761 1099 c 0,43,44
 761 1200 761 1200 683 1251 c 0,45,46
 634 1284 634 1284 565 1284 c 0,47,48
 467 1284 467 1284 410 1218 c 0,49,50
 369 1171 369 1171 369 1107 c 0,35,36
322 437 m 0,51,52
 322 318 322 318 409 250 c 0,53,54
 475 199 475 199 568 199 c 0,55,56
 700 199 700 199 767 287 c 0,57,58
 812 346 812 346 812 433 c 0,59,60
 812 567 812 567 702 623 c 0,61,62
 645 651 645 651 563 651 c 0,63,64
 415 651 415 651 354 557 c 2,65,-1
 338 525 l 2,66,67
 322 487 322 487 322 437 c 0,51,52
EndSplineSet
EndChar
StartChar: nine
Encoding: 57 57 29
Width: 1139
Flags: W
HStem: -10 229<477.964 668.21> 495 227<512.5 691.9> 1257 224<471.1 647.039>
VStem: 113 244<920.815 1081.18> 825 256<432.1 771>
Fore
139 369 m 1,0,-1
 354 369 l 1,1,2
 366 256 366 256 484 228 c 0,3,4
 522 219 522 219 566 219 c 0,5,6
 723 219 723 219 779 332 c 0,7,8
 817 407 817 407 825 579 c 1,9,10
 769 523 769 523 693 506 c 0,11,12
 640 495 640 495 564 495 c 0,13,14
 381 495 381 495 256 619 c 0,15,16
 130 742 130 742 115 934 c 0,17,18
 113 964 113 964 113 981 c 0,19,20
 113 1189.5 113 1189.5 230 1329 c 0,21,22
 352 1472 352 1472 547 1481 c 0,23,24
 555 1482 555 1482 572 1482 c 0,25,26
 906 1482 906 1482 1023 1160 c 0,27,28
 1081 1002 1081 1002 1081 771 c 0,29,30
 1081 161 1081 161 755 26 c 0,31,32
 666 -10 666 -10 555 -10 c 0,33,34
 384 -10 384 -10 266 89 c 0,35,36
 141 195 141 195 139 369 c 1,0,-1
800 982 m 0,37,38
 800 1130 800 1130 718 1205 c 2,39,-1
 691 1226 l 2,40,41
 642 1257 642 1257 579 1257 c 0,42,43
 455 1257 455 1257 395 1152 c 0,44,45
 357 1084 357 1084 357 991 c 0,46,47
 357 842 357 842 445 769 c 0,48,49
 501 722 501 722 584 722 c 0,50,51
 710 722 710 722 765 828 c 0,52,53
 800 893 800 893 800 982 c 0,37,38
EndSplineSet
EndChar
StartChar: colon
Encoding: 58 58 30
Width: 569
Flags: W
HStem: 0 230<160 415> 832 230<160 415>
VStem: 160 255<0 230 832 1062>
Fore
160 832 m 1,0,-1
 160 1062 l 1,1,-1
 415 1062 l 1,2,-1
 415 832 l 1,3,-1
 160 832 l 1,0,-1
160 0 m 1,4,-1
 160 230 l 1,5,-1
 415 230 l 1,6,-1
 415 0 l 1,7,-1
 160 0 l 1,4,-1
EndSplineSet
EndChar
StartChar: semicolon
Encoding: 59 59 31
Width: 569
Flags: W
HStem: -20 20G<157 259> 832 230<157 412>
VStem: 157 255<0 205 832 1062> 259 153<-77.9798 0>
Fore
157 832 m 1,0,-1
 157 1062 l 1,1,-1
 412 1062 l 1,2,-1
 412 832 l 1,3,-1
 157 832 l 1,0,-1
157 0 m 1,4,-1
 157 205 l 1,5,-1
 412 205 l 1,6,-1
 412 0 l 2,7,8
 412 -245 412 -245 270 -297 c 1,9,-1
 145 -213 l 1,10,11
 231 -175 231 -175 251 -71 c 0,12,13
 258 -36 258 -36 259 0 c 1,14,-1
 157 0 l 1,4,-1
EndSplineSet
EndChar
StartChar: less
Encoding: 60 60 32
Width: 1196
Flags: W
HStem: 226 993<1083 1083>
VStem: 112 971<641 1219>
Fore
112 641 m 1,0,-1
 112 809 l 1,1,-1
 1083 1219 l 1,2,-1
 1083 990 l 1,3,-1
 423 724 l 1,4,-1
 1083 455 l 1,5,-1
 1083 226 l 1,6,-1
 112 641 l 1,0,-1
EndSplineSet
EndChar
StartChar: equal
Encoding: 61 61 33
Width: 1196
Flags: W
HStem: 417 218<114 1082> 812 218<114 1082>
Fore
1082 812 m 1,0,-1
 114 812 l 1,1,-1
 114 1030 l 1,2,-1
 1082 1030 l 1,3,-1
 1082 812 l 1,0,-1
1082 417 m 1,4,-1
 114 417 l 1,5,-1
 114 635 l 1,6,-1
 1082 635 l 1,7,-1
 1082 417 l 1,4,-1
EndSplineSet
EndChar
StartChar: greater
Encoding: 62 62 34
Width: 1196
Flags: W
HStem: 226 993<112 112>
VStem: 112 971<226 641>
Fore
1083 641 m 1,0,-1
 112 226 l 1,1,-1
 112 455 l 1,2,-1
 750 724 l 1,3,-1
 112 990 l 1,4,-1
 112 1219 l 1,5,-1
 1083 809 l 1,6,-1
 1083 641 l 1,0,-1
EndSplineSet
EndChar
StartChar: question
Encoding: 63 63 35
Width: 1139
Flags: W
HStem: 0 235<421 695> 1291 213<482.2 651.083>
VStem: 421 274<0 235> 432 242<361 513.1> 813 223<1024.31 1194.6>
Fore
432 361 m 1,0,1
 436 534 436 534 490 635 c 0,2,3
 512 677 512 677 549 719 c 0,4,5
 558 729.5 558 729.5 639 803 c 0,6,7
 765 920 765 920 798 1009 c 0,8,9
 813 1050 813 1050 813 1088 c 0,10,11
 813 1212 813 1212 698 1264 c 0,12,13
 640 1291 640 1291 568 1291 c 0,14,15
 469 1291 469 1291 398 1211 c 2,16,-1
 373 1177 l 1,17,-1
 351 1138 l 2,18,19
 332 1096 332 1096 324 1046 c 1,20,-1
 90 1046 l 1,21,22
 102 1251 102 1251 232 1377 c 0,23,24
 362 1504 362 1504 565 1504 c 0,25,26
 762 1504 762 1504 892 1398 c 0,27,28
 1034 1283 1034 1283 1036 1084 c 0,29,30
 1036 1054 1036 1054 1032 1030 c 0,31,32
 1012 913 1012 913 895 782 c 2,33,-1
 795 676 l 2,34,35
 685 557 685 557 675 401 c 0,36,37
 674 388 674 388 674 361 c 1,38,-1
 432 361 l 1,0,1
421 0 m 1,39,-1
 421 235 l 1,40,-1
 695 235 l 1,41,-1
 695 0 l 1,42,-1
 421 0 l 1,39,-1
EndSplineSet
EndChar
StartChar: at
Encoding: 64 64 36
Width: 2079
Flags: W
HStem: -431 200<943.615 1312.4> -3 241<850.156 1011.3> 849 235<925.346 1077.68> 1279 214<944.985 1244.57>
VStem: 111 221<305.675 751.5> 502 239<358.3 569.989> 1737 219<577.778 885>
Fore
1161 121 m 1,0,1
 1055 -3 1055 -3 854 -3 c 0,2,3
 692 -3 692 -3 594 138 c 0,4,5
 502 269 502 269 502 461 c 0,6,7
 502 667 502 667 615 842 c 0,8,9
 718 1001 718 1001 872 1058 c 0,10,11
 941 1084 941 1084 1011 1084 c 0,12,13
 1155 1084 1155 1084 1236 1002 c 0,14,15
 1260 978 1260 978 1274 949 c 0,16,17
 1275 947 1275 947 1276.5 943 c 128,-1,18
 1278 939 1278 939 1278 938 c 1,19,-1
 1312 1079 l 1,20,-1
 1526 1079 l 1,21,-1
 1380 379 l 1,22,-1
 1352 285 l 1,23,-1
 1353 268 l 1,24,25
 1358 252 1358 252 1372 238 c 0,26,27
 1392 219 1392 219 1422 219 c 0,28,29
 1546 219 1546 219 1640 367 c 0,30,31
 1719 491 1719 491 1737 647 c 2,32,-1
 1740 711 l 1,33,-1
 1740 716 l 2,34,35
 1736 969 1736 969 1546 1122 c 0,36,37
 1373 1264 1373 1264 1100 1279 c 2,38,-1
 1093 1279 l 1,39,-1
 1015 1279 l 2,40,41
 735 1263 735 1263 555 1056 c 0,42,43
 550 1051 550 1051 548 1048 c 0,44,45
 332 792 332 792 332 485 c 0,46,47
 332 194 332 194 494 7 c 0,48,49
 530 -35 530 -35 572 -68 c 0,50,51
 731 -192.5 731 -192.5 950 -221 c 0,52,53
 1023 -231 1023 -231 1120 -231 c 0,54,55
 1342 -231 1342 -231 1471 -177 c 0,56,57
 1583 -131 1583 -131 1727 0 c 2,58,-1
 1748 19 l 1,59,-1
 2005 19 l 1,60,61
 1909 -179 1909 -179 1686 -300 c 0,62,63
 1444 -431 1444 -431 1123 -431 c 0,64,65
 686 -431 686 -431 418 -222 c 0,66,67
 179 -35 179 -35 126 273 c 0,68,69
 111 364 111 364 111 469 c 0,70,71
 111 823 111 823 291 1087 c 0,72,73
 490.5 1376.5 490.5 1376.5 831 1462 c 0,74,75
 956 1493 956 1493 1102 1493 c 0,76,77
 1412 1493 1412 1493 1638 1336 c 0,78,79
 1750.5 1256.5 1750.5 1256.5 1827 1147 c 0,80,81
 1956 960 1956 960 1956 713 c 0,82,83
 1956 504 1956 504 1844 305 c 0,84,85
 1739 117 1739 117 1576 27 c 0,86,87
 1468 -33 1468 -33 1354 -33 c 0,88,89
 1286 -33 1286 -33 1242 -12 c 0,90,91
 1199 9 1199 9 1180 48 c 0,92,93
 1166 75 1166 75 1161 121 c 1,0,1
906 238 m 0,94,95
 1027.5 238 1027.5 238 1110 361 c 0,96,97
 1174 458 1174 458 1186 583 c 2,98,-1
 1188 643 l 2,99,100
 1185 786 1185 786 1094 831 c 0,101,102
 1059.5 849 1059.5 849 1013 849 c 0,103,104
 883 849 883 849 802 704 c 0,105,106
 778 660 778 660 761 607 c 0,107,108
 741 541 741 541 741 474 c 0,109,110
 741 340.5 741 340.5 807 276 c 0,111,112
 848 238 848 238 906 238 c 0,94,95
EndSplineSet
EndChar
StartChar: A
Encoding: 65 65 37
Width: 1366
Flags: W
HStem: 0 21G<-2 273 1079 1368> 433 240<505 833> 1430 20G<559 768>
Back
559 1450 m 5,0,-1
 768 1450 l 1,1,-1
 1368 0 l 1,2,-1
 1149 0 l 1,3,-1
 948 471 l 1,4,-1
 392 471 l 1,5,-1
 203 0 l 1,6,-1
 -2 0 l 1,7,-1
 559 1450 l 5,0,-1
903 653 m 5,8,-1
 659 1237 l 1,9,-1
 435 653 l 1,10,-1
 903 653 l 5,8,-1
EndSplineSet
Fore
559 1450 m 1,0,-1
 768 1450 l 1,1,-1
 1368 0 l 1,2,-1
 1079 0 l 1,3,-1
 878 433 l 1,4,-1
 462 433 l 1,5,-1
 273 0 l 1,6,-1
 -2 0 l 1,7,-1
 559 1450 l 1,0,-1
833 673 m 1,8,-1
 659 1109 l 1,9,-1
 505 673 l 1,10,-1
 833 673 l 1,8,-1
EndSplineSet
EndChar
StartChar: B
Encoding: 66 66 38
Width: 1366
Flags: W
HStem: 0 220<384 864.776> 629 213<384 769.92> 1231 219<384 833.906>
VStem: 164 220<220 629 842 1231> 955 231<972.002 1149.6> 1016 241<336.361 510.7>
Fore
164 0 m 1,0,-1
 164 633 l 1,1,-1
 164 1450 l 1,2,-1
 700 1450 l 2,3,4
 867 1450 867 1450 970 1406 c 0,5,6
 1088 1354 1088 1354 1146 1243 c 0,7,8
 1186 1167 1186 1167 1186 1079 c 0,9,10
 1186 862 1186 862 1032 778 c 0,11,12
 1024 774 1024 774 1021 772 c 1,13,14
 1257 703 1257 703 1257 421 c 0,15,16
 1257 277 1257 277 1172 164 c 0,17,18
 1102 70 1102 70 966 29 c 0,19,20
 961 28 961 28 946 24 c 0,21,22
 848.5 0 848.5 0 709 0 c 2,23,-1
 164 0 l 1,0,-1
384 842 m 1,24,-1
 661 842 l 2,25,26
 796 842 796 842 862 871 c 0,27,28
 875 877 875 877 882 884 c 0,29,30
 929 928 929 928 944 972 c 0,31,32
 955 1008 955 1008 955 1056 c 0,33,34
 954 1164 954 1164 882 1204 c 0,35,36
 832 1231 832 1231 637 1231 c 2,37,-1
 384 1231 l 1,38,-1
 384 842 l 1,24,-1
384 220 m 1,39,-1
 709 220 l 2,40,41
 880 220 880 220 939 257 c 2,42,-1
 953 267 l 2,43,44
 998 305 998 305 1010 355 c 0,45,46
 1016 383.5 1016 383.5 1016 421 c 0,47,48
 1016 524 1016 524 968 567 c 2,49,-1
 953 579 l 2,50,51
 891.5 622.5 891.5 622.5 776 627 c 2,52,-1
 683 629 l 1,53,-1
 384 629 l 1,54,-1
 384 220 l 1,39,-1
EndSplineSet
EndChar
StartChar: C
Encoding: 67 67 39
Width: 1479
Flags: W
HStem: -10 220<725.275 916.7> 1257 220<664.939 902.554>
VStem: 102 238<553.6 934.5>
Fore
1168 480 m 1,0,-1
 1398 480 l 1,1,2
 1317 165 1317 165 1077 49 c 0,3,4
 951 -10 951 -10 791 -10 c 0,5,6
 446 -10 446 -10 262 221 c 0,7,8
 107 417 107 417 102 731 c 2,9,-1
 102 745 l 2,10,11
 102 1044 102 1044 264 1241 c 0,12,13
 420 1432 420 1432 679 1469 c 0,14,15
 738 1477 738 1477 794 1477 c 0,16,17
 1094 1477 1094 1477 1259 1274 c 2,18,-1
 1294 1226 l 2,19,20
 1344 1150 1344 1150 1373 1050 c 1,21,-1
 1143 1050 l 1,22,23
 1103 1176 1103 1176 968 1228 c 0,24,25
 890 1257 890 1257 790 1257 c 0,26,27
 569.5 1257 569.5 1257 448 1101 c 0,28,29
 340 963 340 963 340 746 c 0,30,31
 340 525 340 525 459 373 c 0,32,33
 571 232 571 232 739 213 c 0,34,35
 763 210 763 210 788 210 c 0,36,37
 936 210 936 210 1051 296 c 0,38,39
 1155 374 1155 374 1168 480 c 1,0,-1
EndSplineSet
EndChar
StartChar: D
Encoding: 68 68 40
Width: 1479
Flags: W
HStem: 0 213<390 864.8> 1237 213<390 787>
VStem: 168 222<213 1237> 1143 237<530.6 812.946>
Fore
168 0 m 1,0,-1
 168 1450 l 1,1,-1
 673 1450 l 2,2,3
 1162 1450 1162 1450 1310 1120 c 0,4,5
 1380 967 1380 967 1380 733 c 0,6,7
 1380 248.5 1380 248.5 1071 82 c 0,8,9
 920 0 920 0 697 0 c 2,10,-1
 168 0 l 1,0,-1
390 213 m 1,11,-1
 675 213 l 2,12,13
 893 213 893 213 1021 359 c 0,14,15
 1141 497 1141 497 1143 736 c 2,16,-1
 1139 816 l 2,17,18
 1113 1091 1113 1091 906 1189 c 0,19,20
 806 1237 806 1237 670 1237 c 2,21,-1
 390 1237 l 1,22,-1
 390 213 l 1,11,-1
EndSplineSet
EndChar
StartChar: E
Encoding: 69 69 41
Width: 1366
Flags: W
HStem: 0 229<401 1222> 621 230<401 1021> 1218 232<401 1222>
VStem: 162 239<229 621 851 1218>
Fore
162 0 m 1,0,-1
 162 1450 l 1,1,-1
 1222 1450 l 1,2,-1
 1222 1218 l 1,3,-1
 401 1218 l 1,4,-1
 401 851 l 1,5,-1
 1021 851 l 1,6,-1
 1021 621 l 1,7,-1
 401 621 l 1,8,-1
 401 229 l 1,9,-1
 1222 229 l 1,10,-1
 1222 0 l 1,11,-1
 162 0 l 1,0,-1
EndSplineSet
EndChar
StartChar: F
Encoding: 70 70 42
Width: 1251
Flags: W
HStem: 0 21G<167 406> 621 230<406 1008> 1218 232<406 1158>
VStem: 167 239<0 621 851 1218>
Fore
167 0 m 1,0,-1
 167 1450 l 1,1,-1
 1158 1450 l 1,2,-1
 1158 1218 l 1,3,-1
 406 1218 l 1,4,-1
 406 851 l 1,5,-1
 1008 851 l 1,6,-1
 1008 621 l 1,7,-1
 406 621 l 1,8,-1
 406 0 l 1,9,-1
 167 0 l 1,0,-1
EndSplineSet
EndChar
StartChar: G
Encoding: 71 71 43
Width: 1479
Flags: W
HStem: -10 220<617.7 903.7> 464 220<905 1164> 1236 241<736.253 929.1>
VStem: 102 237<548.397 887.822>
Fore
1404 684 m 1,0,1
 1405 671 1405 671 1405 644 c 2,2,-1
 1404 546 l 2,3,4
 1373 -10 1373 -10 791 -10 c 0,5,6
 767 -10 767 -10 756 -9 c 0,7,8
 430 3 430 3 254 233 c 0,9,10
 102 435 102 435 102 745 c 0,11,12
 102 809 102 809 109 862 c 0,13,14
 143 1136 143 1136 320 1302 c 0,15,16
 507 1477 507 1477 794 1477 c 0,17,18
 969 1477 969 1477 1099 1407 c 0,19,20
 1301 1299 1301 1299 1373 1050 c 1,21,-1
 1115 1050 l 1,22,23
 1101 1087 1101 1087 1076 1118 c 2,24,-1
 1049 1146 l 2,25,26
 950 1236 950 1236 790 1236 c 0,27,28
 776 1236 776 1236 748 1234 c 0,29,30
 579 1219 579 1219 465 1093 c 0,31,32
 339 955 339 955 339 746 c 0,33,34
 339 720 339 720 340 707 c 0,35,36
 350 499 350 499 467 360 c 0,37,38
 591.5 210 591.5 210 788 210 c 0,39,40
 923 210 923 210 1021 259 c 0,41,42
 1141 320 1141 320 1160 425 c 2,43,-1
 1164 464 l 1,44,-1
 905 464 l 1,45,-1
 905 684 l 1,46,-1
 1404 684 l 1,0,1
EndSplineSet
EndChar
StartChar: H
Encoding: 72 72 44
Width: 1479
Flags: W
HStem: 0 21G<164 404 1074 1314> 619 244<404 1074> 1430 20G<164 404 1074 1314>
VStem: 164 240<0 619 863 1450> 1074 240<0 619 863 1450>
Fore
164 0 m 1,0,-1
 164 1450 l 1,1,-1
 404 1450 l 1,2,-1
 404 863 l 1,3,-1
 1074 863 l 1,4,-1
 1074 1450 l 1,5,-1
 1314 1450 l 1,6,-1
 1314 0 l 1,7,-1
 1074 0 l 1,8,-1
 1074 619 l 1,9,-1
 404 619 l 1,10,-1
 404 0 l 1,11,-1
 164 0 l 1,0,-1
EndSplineSet
EndChar
StartChar: I
Encoding: 73 73 45
Width: 650
Flags: W
HStem: 0 210<25 205 445 625> 1250 200<25 205 445 625>
VStem: 205 240<210 1250>
Fore
625 210 m 1,0,-1
 625 0 l 1,1,-1
 25 0 l 1,2,-1
 25 210 l 1,3,-1
 205 210 l 1,4,-1
 205 1250 l 1,5,-1
 25 1250 l 1,6,-1
 25 1450 l 1,7,-1
 625 1450 l 1,8,-1
 625 1250 l 1,9,-1
 445 1250 l 1,10,-1
 445 210 l 1,11,-1
 625 210 l 1,0,-1
EndSplineSet
EndChar
StartChar: J
Encoding: 74 74 46
Width: 1024
Flags: W
HStem: -10 225<414.622 547.3> 1235 215<408 645>
VStem: 64 237<330.85 455> 645 220<374.452 1235>
Fore
865 1450 m 1,0,-1
 865 456 l 2,1,2
 865 266 865 266 809 168 c 0,3,4
 801 155 801 155 783 129 c 0,5,6
 677 -10 677 -10 463 -10 c 0,7,8
 270 -10 270 -10 173 92 c 0,9,10
 91 177 91 177 70 358 c 0,11,12
 64 406 64 406 64 455 c 1,13,-1
 301 455 l 1,14,15
 307 299 307 299 386 241 c 0,16,17
 423 215 423 215 468 215 c 0,18,19
 560 215 560 215 609 306 c 0,20,21
 645 373.5 645 373.5 645 471 c 2,22,-1
 645 1235 l 1,23,-1
 408 1235 l 1,24,-1
 408 1450 l 1,25,-1
 865 1450 l 1,0,-1
EndSplineSet
EndChar
StartChar: K
Encoding: 75 75 47
Width: 1366
Flags: W
HStem: 0 21G<150 376> 1430 20G<150 376 1022 1316>
VStem: 150 226<0 499 825 1450>
Fore
150 0 m 1,0,-1
 150 1450 l 1,1,-1
 376 1450 l 1,2,-1
 376 825 l 1,3,-1
 1022 1450 l 1,4,-1
 1316 1450 l 1,5,-1
 659 806 l 1,6,-1
 1346 0 l 1,7,-1
 1053 -1 l 1,8,-1
 479 610 l 1,9,-1
 376 499 l 1,10,-1
 376 0 l 1,11,-1
 150 0 l 1,0,-1
EndSplineSet
EndChar
StartChar: L
Encoding: 76 76 48
Width: 1139
Flags: W
HStem: 0 219<380 1060> 1430 20G<150 380>
VStem: 150 230<219 1450>
Fore
150 0 m 1,0,-1
 150 1450 l 1,1,-1
 380 1450 l 1,2,-1
 380 219 l 1,3,-1
 1060 219 l 1,4,-1
 1060 0 l 1,5,-1
 150 0 l 1,0,-1
EndSplineSet
EndChar
StartChar: M
Encoding: 77 77 49
Width: 1706
Flags: W
HStem: 0 21G<152 372 676 1026 1330 1550> 1430 20G<152 360 1340 1550>
VStem: 152 220<0 762> 1330 220<0 762>
Fore
152 0 m 1,0,-1
 152 1450 l 1,1,-1
 360 1450 l 1,2,-1
 851 202 l 1,3,-1
 1340 1450 l 1,4,-1
 1550 1450 l 1,5,-1
 1550 0 l 1,6,-1
 1330 0 l 1,7,-1
 1330 762 l 1,8,-1
 1026 0 l 1,9,-1
 676 0 l 1,10,-1
 372 762 l 1,11,-1
 372 0 l 1,12,-1
 152 0 l 1,0,-1
EndSplineSet
EndChar
StartChar: N
Encoding: 78 78 50
Width: 1479
Flags: W
HStem: 0 21G<156 395 1071 1311> 1430 20G<156 395 1071 1311>
VStem: 156 239<0 975> 1071 240<471 1450>
Fore
156 0 m 1,0,-1
 156 1450 l 1,1,-1
 395 1450 l 1,2,-1
 1071 471 l 1,3,-1
 1071 1450 l 1,4,-1
 1311 1450 l 1,5,-1
 1311 0 l 1,6,-1
 1071 0 l 1,7,-1
 395 975 l 1,8,-1
 395 0 l 1,9,-1
 156 0 l 1,0,-1
EndSplineSet
EndChar
StartChar: O
Encoding: 79 79 51
Width: 1593
Flags: W
HStem: -8 228<636.2 970.899> 1246 232<521.5 962.9>
VStem: 104 246<576.119 861.888> 1252 243<564.6 941.209>
Fore
104 714 m 0,0,1
 104 1075 104 1075 295 1280 c 0,2,3
 480 1475 480 1475 801 1478 c 0,4,5
 1108 1478 1108 1478 1294 1290 c 0,6,7
 1479 1104 1479 1104 1495 788 c 0,8,9
 1496 769 1496 769 1496 731 c 0,10,11
 1496 418 1496 418 1332 218 c 0,12,13
 1163 15 1163 15 866 -8 c 0,14,15
 822 -10 822 -10 800 -10 c 0,16,17
 515 -10 515 -10 328 159 c 0,18,19
 144 324 144 324 111 601 c 0,20,21
 104 653 104 653 104 714 c 0,0,1
350 712 m 0,22,23
 350 455 350 455 495 325 c 0,24,25
 610 220 610 220 800 220 c 0,26,27
 1062 220 1062 220 1177 413 c 0,28,29
 1252 539 1252 539 1252 731 c 0,30,31
 1252 1005 1252 1005 1103 1142 c 0,32,33
 987 1246 987 1246 803 1246 c 0,34,35
 465 1246 465 1246 378 942 c 0,36,37
 350 843 350 843 350 712 c 0,22,23
EndSplineSet
EndChar
StartChar: P
Encoding: 80 80 52
Width: 1366
Flags: W
HStem: 0 21G<158 402> 580 212<402 881.075> 1236 214<402 825.711>
VStem: 158 244<0 580 792 1236> 1023 254<943.112 1135.7>
Fore
158 0 m 1,0,-1
 158 1450 l 1,1,-1
 711 1450 l 2,2,3
 1080 1450 1080 1450 1204 1285 c 0,4,5
 1228 1254 1228 1254 1245 1212 c 0,6,7
 1277 1133 1277 1133 1277 1026 c 0,8,9
 1277 685 1277 685 950 604 c 0,10,11
 852.5 580 852.5 580 728 580 c 2,12,-1
 402 580 l 1,13,-1
 402 0 l 1,14,-1
 158 0 l 1,0,-1
402 792 m 1,15,-1
 677 792 l 2,16,17
 926 792 926 792 993 900 c 0,18,19
 1023 946.5 1023 946.5 1023 1020 c 0,20,21
 1023 1154 1023 1154 909 1202 c 0,22,23
 829 1236 829 1236 673 1236 c 2,24,-1
 402 1236 l 1,25,-1
 402 792 l 1,15,-1
EndSplineSet
EndChar
StartChar: Q
Encoding: 81 81 53
Width: 1659
Flags: W
HStem: -14 189<1341.67 1446.99> -10 174<734.308 923.444> 298 205<865.392 980.3> 1251 227<521.5 967.1>
VStem: 104 233<576.119 857.87> 1262 234<523.5 826.977>
Fore
1167 392 m 1,0,1
 1253 496 1253 496 1262 699 c 2,2,-1
 1262 736 l 2,3,4
 1262 1009 1262 1009 1110 1146 c 0,5,6
 993 1251 993 1251 802 1251 c 0,7,8
 455 1251 455 1251 367 947 c 0,9,10
 337 848 337 848 337 717 c 0,11,12
 337 452 337 452 497 322 c 0,13,14
 525.5 298 525.5 298 560 280 c 1,15,16
 590 392.5 590 392.5 701 454 c 0,17,18
 757 486 757 486 820 496 c 0,19,20
 855 503 855 503 894 503 c 0,21,22
 1030 503 1030 503 1130 425 c 0,23,24
 1150 411 1150 411 1167 392 c 1,0,1
1317 204 m 1,25,26
 1342 177 1342 177 1392 175 c 0,27,28
 1412 175 1412 175 1435 181 c 0,29,30
 1491 194 1491 194 1533 228 c 1,31,-1
 1659 90 l 1,32,33
 1547 -14 1547 -14 1399 -14 c 0,34,35
 1280 -14 1280 -14 1195 50 c 0,36,37
 1174 67 1174 67 1156 88 c 1,38,39
 1037.5 10 1037.5 10 904 -5 c 0,40,41
 852 -10 852 -10 800 -10 c 0,42,43
 515 -10 515 -10 328 159 c 0,44,45
 144 324 144 324 111 601 c 0,46,47
 104 653 104 653 104 714 c 0,48,49
 104 1075 104 1075 295 1280 c 0,50,51
 480 1475 480 1475 801 1478 c 0,52,53
 1104 1478 1104 1478 1290 1292 c 0,54,55
 1472 1110 1472 1110 1493 806 c 0,56,57
 1496 768.5 1496 768.5 1496 731 c 0,58,59
 1496 347 1496 347 1317 204 c 1,25,26
1050 226 m 1,60,61
 990 297 990 297 914 298 c 0,62,63
 893 298 893 298 876 294 c 0,64,65
 771 274.5 771 274.5 738 174 c 1,66,67
 772 164 772 164 821 164 c 0,68,69
 930 164 930 164 1017 206 c 0,70,71
 1041 219 1041 219 1050 226 c 1,60,61
EndSplineSet
EndChar
StartChar: R
Encoding: 82 82 54
Width: 1400
Flags: W
HStem: 0 21G<158 384 1072 1387> 580 206<384 663> 1239 211<384 807.555>
VStem: 158 226<0 580 786 1239> 1011 266<939.585 1147.4>
Fore
663 580 m 1,0,-1
 384 580 l 1,1,-1
 384 0 l 1,2,-1
 158 0 l 1,3,-1
 158 1450 l 1,4,-1
 711 1450 l 2,5,6
 1099 1450 1099 1450 1218 1262 c 0,7,8
 1277 1170 1277 1170 1277 1026 c 0,9,10
 1277 805.5 1277 805.5 1130 687 c 0,11,12
 1045 618 1045 618 924 596 c 1,13,-1
 1387 0 l 1,14,-1
 1072 0 l 1,15,-1
 663 580 l 1,0,-1
384 786 m 1,16,-1
 665 786 l 2,17,18
 926 786 926 786 989 912 c 0,19,20
 1011 956 1011 956 1011 1020 c 0,21,22
 1011 1167 1011 1167 872 1213 c 0,23,24
 792 1239 792 1239 661 1239 c 2,25,-1
 384 1239 l 1,26,-1
 384 786 l 1,16,-1
EndSplineSet
EndChar
StartChar: S
Encoding: 83 83 55
Width: 1366
Flags: W
HStem: -10 224<593.674 857.5> 1250 221<527.7 714.23>
VStem: 1022 237<353.2 484.5>
Fore
92 502 m 1,0,-1
 325 502 l 1,1,2
 348 325 348 325 497 255 c 0,3,4
 585 214 585 214 708 214 c 0,5,6
 881 214 881 214 968 295 c 0,7,8
 1022 344 1022 344 1022 413 c 0,9,10
 1020 496 1020 496 957 539 c 0,11,12
 932 556 932 556 896 572 c 0,13,14
 816 605 816 605 598 667 c 128,-1,15
 380 729 380 729 310 771 c 0,16,17
 173 852 173 852 152 1013 c 0,18,19
 148 1036 148 1036 148 1067 c 0,20,21
 148 1259 148 1259 304 1370 c 0,22,23
 447 1471 447 1471 664 1471 c 0,24,25
 1036 1471 1036 1471 1164 1195 c 0,26,27
 1200 1117 1200 1117 1215 1019 c 1,28,-1
 981 1019 l 1,29,30
 939 1236 939 1236 705 1249 c 0,31,32
 694 1250 694 1250 672 1250 c 0,33,34
 506 1250 506 1250 429 1179 c 2,35,-1
 409 1157 l 2,36,37
 385 1122 385 1122 385 1080 c 0,38,39
 386 1010 386 1010 439 971 c 0,40,41
 458 958 458 958 489 943 c 0,42,43
 548 914 548 914 873 816 c 0,44,45
 966 789 966 789 1009 773 c 0,46,47
 1177 708 1177 708 1229 590 c 0,48,49
 1259 522 1259 522 1259 429 c 0,50,51
 1259 239 1259 239 1109 116 c 0,52,53
 969 1 969 1 755 -9 c 0,54,55
 742 -10 742 -10 717 -10 c 0,56,57
 352.5 -10 352.5 -10 195 188 c 0,58,59
 96 312 96 312 92 502 c 1,0,-1
EndSplineSet
EndChar
StartChar: T
Encoding: 84 84 56
Width: 1251
Flags: W
HStem: 0 21G<508 748> 1231 219<48 508 748 1210>
VStem: 508 240<0 1231>
Fore
508 0 m 1,0,-1
 508 1231 l 1,1,-1
 48 1231 l 1,2,-1
 48 1450 l 1,3,-1
 1210 1450 l 1,4,-1
 1210 1231 l 1,5,-1
 748 1231 l 1,6,-1
 748 0 l 1,7,-1
 508 0 l 1,0,-1
EndSplineSet
EndChar
StartChar: U
Encoding: 85 85 57
Width: 1479
Flags: W
HStem: -10 250<633 911.2> 1430 20G<161 411 1065 1314>
VStem: 161 250<419.59 1450> 1065 249<491.79 1450>
Fore
1065 1450 m 1,0,-1
 1314 1450 l 1,1,-1
 1314 567 l 2,2,3
 1314 -10 1314 -10 741 -10 c 0,4,5
 286 -10 286 -10 188 341 c 0,6,7
 161 438 161 438 161 567 c 2,8,-1
 161 1450 l 1,9,-1
 411 1450 l 1,10,-1
 411 568 l 2,11,12
 411 380 411 380 537 294 c 0,13,14
 616 240 616 240 737 240 c 0,15,16
 938 240 938 240 1020 379 c 0,17,18
 1065 455.5 1065 455.5 1065 568 c 2,19,-1
 1065 1450 l 1,0,-1
EndSplineSet
EndChar
StartChar: V
Encoding: 86 86 58
Width: 1366
Flags: W
HStem: 0 21G<577 776> 1430 20G<9 344 1023 1350>
Fore
577 0 m 1,0,-1
 9 1450 l 1,1,-1
 344 1450 l 1,2,-1
 677 471 l 1,3,-1
 1023 1450 l 1,4,-1
 1350 1450 l 1,5,-1
 776 0 l 1,6,-1
 577 0 l 1,0,-1
EndSplineSet
EndChar
StartChar: W
Encoding: 87 87 59
Width: 1933
Flags: W
HStem: 0 21G<366 618 1299 1566> 1430 20G<25 279 822 1092 1626 1897>
Fore
366 0 m 1,0,-1
 25 1450 l 1,1,-1
 279 1450 l 1,2,-1
 513 519 l 1,3,-1
 822 1450 l 1,4,-1
 1092 1450 l 1,5,-1
 1409 519 l 1,6,-1
 1626 1450 l 1,7,-1
 1897 1450 l 1,8,-1
 1566 0 l 1,9,-1
 1299 0 l 1,10,-1
 961 999 l 1,11,-1
 618 0 l 1,12,-1
 366 0 l 1,0,-1
EndSplineSet
EndChar
StartChar: X
Encoding: 88 88 60
Width: 1366
Flags: W
HStem: 0 21G<9 319 1043 1353> 1430 20G<76 386 1003 1313>
Fore
9 0 m 1,0,-1
 494 756 l 1,1,-1
 76 1450 l 1,2,-1
 386 1450 l 1,3,-1
 681 972 l 1,4,-1
 1003 1450 l 1,5,-1
 1313 1450 l 1,6,-1
 868 756 l 1,7,-1
 1353 0 l 1,8,-1
 1043 0 l 1,9,-1
 681 544 l 1,10,-1
 319 0 l 1,11,-1
 9 0 l 1,0,-1
EndSplineSet
EndChar
StartChar: Y
Encoding: 89 89 61
Width: 1366
Flags: W
HStem: 0 21G<526 810> 1431 20G<6 326 1030 1350>
VStem: 526 284<0 621>
Fore
526 0 m 1,0,-1
 526 621 l 1,1,-1
 6 1451 l 1,2,-1
 326 1451 l 1,3,-1
 668 887 l 1,4,-1
 1030 1451 l 1,5,-1
 1350 1451 l 1,6,-1
 810 621 l 1,7,-1
 810 0 l 1,8,-1
 526 0 l 1,0,-1
EndSplineSet
EndChar
StartChar: Z
Encoding: 90 90 62
Width: 1251
Flags: W
HStem: 0 230<375 1200> 1220 230<45 885>
Fore
41 0 m 1,0,-1
 41 237 l 1,1,-1
 885 1220 l 1,2,-1
 45 1220 l 1,3,-1
 45 1450 l 1,4,-1
 1213 1450 l 1,5,-1
 1213 1220 l 1,6,-1
 375 230 l 1,7,-1
 1200 230 l 1,8,-1
 1200 0 l 1,9,-1
 41 0 l 1,0,-1
EndSplineSet
EndChar
StartChar: bracketleft
Encoding: 91 91 63
Width: 569
Flags: W
HStem: -407 188<359 536> 1278 188<359 536>
VStem: 139 220<-219 1278> 139 397<-407 -219 1278 1466>
Fore
139 -407 m 1,0,-1
 139 1466 l 1,1,-1
 536 1466 l 1,2,-1
 536 1278 l 1,3,-1
 359 1278 l 1,4,-1
 359 -219 l 1,5,-1
 536 -219 l 1,6,-1
 536 -407 l 1,7,-1
 139 -407 l 1,0,-1
EndSplineSet
EndChar
StartChar: backslash
Encoding: 92 92 64
Width: 569
Flags: W
VStem: -39 648<-25 1491>
Fore
386 -25 m 1,0,-1
 -39 1491 l 1,1,-1
 185 1491 l 1,2,-1
 609 -25 l 1,3,-1
 386 -25 l 1,0,-1
EndSplineSet
EndChar
StartChar: bracketright
Encoding: 93 93 65
Width: 569
Flags: W
HStem: -407 188<39 218> 1277 189<39 218>
VStem: 39 397<-407 -219 1277 1466> 218 218<-219 1277>
Fore
436 -407 m 1,0,-1
 39 -407 l 1,1,-1
 39 -219 l 1,2,-1
 218 -219 l 1,3,-1
 218 1277 l 1,4,-1
 39 1277 l 1,5,-1
 39 1466 l 1,6,-1
 436 1466 l 1,7,-1
 436 -407 l 1,0,-1
EndSplineSet
EndChar
StartChar: asciicircum
Encoding: 94 94 66
Width: 961
Flags: W
HStem: 690 801<288 387>
VStem: 54 853<690 690>
Fore
288 690 m 1,0,-1
 54 690 l 1,1,-1
 387 1491 l 1,2,-1
 572 1491 l 1,3,-1
 907 690 l 1,4,-1
 676 690 l 1,5,-1
 479 1209 l 1,6,-1
 288 690 l 1,0,-1
EndSplineSet
EndChar
StartChar: underscore
Encoding: 95 95 67
Width: 1139
Flags: W
HStem: -427 190<-31 1162>
Fore
-31 -427 m 1,0,-1
 -31 -237 l 1,1,-1
 1162 -237 l 1,2,-1
 1162 -427 l 1,3,-1
 -31 -427 l 1,0,-1
EndSplineSet
EndChar
StartChar: grave
Encoding: 96 96 68
Width: 682
Flags: W
HStem: 1454 20G<60 360>
VStem: 60 435<1194 1474>
Fore
495 1194 m 1,0,-1
 291 1194 l 1,1,-1
 60 1474 l 1,2,-1
 360 1474 l 1,3,-1
 495 1194 l 1,0,-1
EndSplineSet
EndChar
StartChar: a
Encoding: 97 97 69
Width: 1139
Flags: W
HStem: -24 179<407.781 566.716> 876 210<457.9 645.119>
VStem: 74 228<213.6 342.473> 776 219<325.938 487 674 740.56>
Fore
792 96 m 1,0,1
 681 3 681 3 551 -16 c 0,2,3
 498 -24 498 -24 437 -24 c 0,4,5
 263 -24 263 -24 168 62 c 0,6,7
 74 147 74 147 74 280 c 0,8,9
 74 496 74 496 308 573 c 0,10,11
 384 598 384 598 492 612 c 0,12,13
 659 632 659 632 776 674 c 1,14,-1
 774 721 l 2,15,16
 759 846 759 846 626 870 c 0,17,18
 594 876 594 876 558 876 c 0,19,20
 443 876 443 876 372 814 c 0,21,22
 333 780 333 780 318 729 c 1,23,-1
 105 759 l 1,24,25
 157 1008 157 1008 403 1067 c 0,26,27
 480 1086 480 1086 584 1086 c 0,28,29
 859 1086 859 1086 948 946 c 2,30,-1
 968 908 l 2,31,32
 978.5 882.5 978.5 882.5 986 851 c 0,33,34
 995 804 995 804 995 685 c 2,35,-1
 995 445 l 2,36,37
 995 197 995 197 1006 128 c 0,38,39
 1018 61 1018 61 1052 0 c 1,40,-1
 814 0 l 1,41,42
 796 50 796 50 792 96 c 1,0,1
775 487 m 1,43,44
 689 455 689 455 521 433 c 0,45,46
 381.5 413.5 381.5 413.5 338 376 c 0,47,48
 302 344.5 302 344.5 302 289 c 0,49,50
 302 202 302 202 394 170 c 0,51,52
 434.5 155 434.5 155 487 155 c 0,53,54
 631 155 631 155 713 240 c 0,55,56
 734 261 734 261 750 291 c 0,57,58
 775 338 775 338 775 434 c 2,59,-1
 775 487 l 1,43,44
EndSplineSet
EndChar
StartChar: b
Encoding: 98 98 70
Width: 1139
Flags: W
HStem: -10 208<505.3 715.9> 870 216<491.9 614.633> 1446 20G<134 358>
VStem: 134 224<990 1466> 134 211<0 84 372.9 648.5> 848 207<423.506 705.2>
Fore
345 0 m 1,0,-1
 134 0 l 1,1,-1
 134 1466 l 1,2,-1
 358 1466 l 1,3,-1
 358 990 l 1,4,5
 475 1086 475 1086 605 1086 c 0,6,7
 818 1086 818 1086 942 926 c 2,8,-1
 972 881 l 2,9,10
 1055 742 1055 742 1055 547 c 0,11,12
 1055 288 1055 288 927 136 c 0,13,14
 804 -10 804 -10 596 -10 c 0,15,16
 461 -10 461 -10 367 66 c 0,17,18
 353 76 353 76 345 84 c 1,19,-1
 345 0 l 1,0,-1
346 538 m 0,20,21
 346 348 346 348 435 257 c 0,22,23
 494 198 494 198 582 198 c 0,24,25
 737 200 737 200 806 333 c 0,26,27
 848 414 848 414 848 531 c 0,28,29
 848 732 848 732 743 819 c 0,30,31
 708 849 708 849 655 863 c 2,32,-1
 609 869 l 2,33,34
 603 870 603 870 589 870 c 0,35,36
 476 870 476 870 405 759 c 0,37,38
 346 664 346 664 346 538 c 0,20,21
EndSplineSet
EndChar
StartChar: c
Encoding: 99 99 71
Width: 1024
Flags: W
HStem: -10 210<466.1 677.496> 879 207<434.5 643.36>
VStem: 80 225<387.7 589.586> 788 217<332.599 403 696 775.3>
Fore
788 403 m 1,0,-1
 1005 403 l 1,1,2
 998 166 998 166 832 59 c 0,3,4
 769 18 769 18 681 1 c 0,5,6
 623 -10 623 -10 563 -10 c 0,7,8
 349 -10 349 -10 216 135 c 128,-1,9
 83 280 83 280 80 518 c 2,10,-1
 80 527 l 2,11,12
 80 814 80 814 232 963 c 0,13,14
 356 1086 356 1086 564 1086 c 0,15,16
 768 1086 768 1086 892 967 c 0,17,18
 1003 860 1003 860 1003 696 c 1,19,-1
 788 696 l 1,20,21
 786 788 786 788 701 842 c 0,22,23
 643 879 643 879 571 879 c 0,24,25
 414 879 414 879 345 734 c 0,26,27
 313 665 313 665 307 577 c 0,28,29
 305 547 305 547 305 532 c 0,30,31
 305 367 305 367 385 275 c 0,32,33
 451 200 451 200 561 200 c 0,34,35
 709 200 709 200 763 297 c 0,36,37
 786 340 786 340 788 403 c 1,0,-1
EndSplineSet
EndChar
StartChar: d
Encoding: 100 100 72
Width: 1139
Flags: W
HStem: -10 208<407.1 617.7> 870 216<454.7 631.1> 1446 20G<765 989>
VStem: 68 207<423.506 705.2> 765 224<990 1466> 778 211<0 84 372.9 648.5>
Fore
778 84 m 1,0,1
 770 76 770 76 756 66 c 0,2,3
 662 -10 662 -10 527 -10 c 0,4,5
 319 -10 319 -10 196 136 c 0,6,7
 68 288 68 288 68 547 c 0,8,9
 68 778 68 778 181 926 c 0,10,11
 305 1086 305 1086 518 1086 c 0,12,13
 648 1086 648 1086 765 990 c 1,14,-1
 765 1466 l 1,15,-1
 989 1466 l 1,16,-1
 989 0 l 1,17,-1
 778 0 l 1,18,-1
 778 84 l 1,0,1
777 538 m 0,19,20
 777 664 777 664 718 759 c 0,21,22
 648 870 648 870 534 870 c 0,23,24
 442 870 442 870 380 819 c 0,25,26
 275 732 275 732 275 531 c 0,27,28
 275 414 275 414 317 333 c 0,29,30
 386 200 386 200 541 198 c 0,31,32
 629 198 629 198 688 257 c 0,33,34
 777 348 777 348 777 538 c 0,19,20
EndSplineSet
EndChar
StartChar: e
Encoding: 101 101 73
Width: 1139
Flags: W
HStem: -10 214<498.8 705.5> 485 190<318 816> 875 211<460.2 615.53>
VStem: 75 243<522 691.656>
Fore
807 333 m 1,0,-1
 1048 333 l 1,1,2
 1011 143 1011 143 850 53 c 0,3,4
 738 -10 738 -10 581 -10 c 0,5,6
 292 -10 292 -10 163 185 c 0,7,8
 75 315 75 315 75 522 c 0,9,10
 75 799.5 75 799.5 222 951 c 0,11,12
 352 1086 352 1086 571 1086 c 0,13,14
 811 1086 811 1086 942 916 c 0,15,16
 1053 772 1053 772 1055 539 c 0,17,18
 1055 521 1055 521 1053 485 c 1,19,-1
 312 485 l 1,20,21
 322 337 322 337 418 260 c 0,22,23
 486 204 486 204 582 204 c 0,24,25
 724 204 724 204 784 287 c 0,26,27
 799 307 799 307 807 333 c 1,0,-1
318 675 m 1,28,-1
 816 675 l 1,29,30
 797 857 797 857 606 874 c 0,31,32
 595 875 595 875 572 875 c 0,33,34
 443 875 443 875 371 797 c 2,35,-1
 349 769 l 2,36,37
 325 731.5 325 731.5 319 688 c 0,38,39
 318 684 318 684 318 675 c 1,28,-1
EndSplineSet
EndChar
StartChar: f
Encoding: 102 102 74
Width: 569
Flags: W
HStem: 0 21G<153 380> 757 198<19 153 380 536> 1304 211<462 578.218>
VStem: 153 227<0 757 955 1215>
Fore
153 0 m 1,0,-1
 153 757 l 1,1,-1
 19 757 l 1,2,-1
 19 955 l 1,3,-1
 153 955 l 1,4,-1
 153 1175 l 2,5,6
 153 1390 153 1390 297 1474 c 0,7,8
 368 1515 368 1515 462 1515 c 0,9,10
 564 1515 564 1515 640 1488 c 1,11,-1
 640 1277 l 1,12,13
 563 1303 563 1303 536 1304 c 2,14,-1
 524 1304 l 2,15,16
 489.5 1305.5 489.5 1305.5 464 1295 c 0,17,18
 380 1262 380 1262 380 1121 c 2,19,-1
 380 955 l 1,20,-1
 536 955 l 1,21,-1
 536 757 l 1,22,-1
 380 757 l 1,23,-1
 380 0 l 1,24,-1
 153 0 l 1,0,-1
EndSplineSet
EndChar
StartChar: g
Encoding: 103 103 75
Width: 1139
Flags: W
HStem: -435 219<439.1 697> 0 247<345 658.9> 839 247<414.5 610.617>
VStem: 66 249<335.5 649.937> 773 229<-96.5469 75> 836 166<974 1062>
Fore
102 -74 m 1,0,-1
 315 -74 l 1,1,2
 315 -127 315 -127 367 -169 c 0,3,4
 426 -216 426 -216 521 -216 c 0,5,6
 757 -216 757 -216 773 16 c 2,7,-1
 774 75 l 1,8,9
 679.5 0 679.5 0 525 0 c 0,10,11
 306 0 306 0 182 159 c 0,12,13
 66 305 66 305 66 537 c 0,14,15
 66 785 66 785 190 934 c 0,16,17
 315 1086 315 1086 526 1086 c 128,-1,18
 737 1086 737 1086 836 974 c 1,19,-1
 836 1062 l 1,20,-1
 1002 1062 l 1,21,-1
 1002 144 l 2,22,23
 1002 -233 1002 -233 846 -356 c 0,24,25
 756 -428 756 -428 578 -434 c 2,26,-1
 522 -435 l 2,27,28
 262 -435 262 -435 160 -293 c 0,29,30
 102 -214 102 -214 102 -92 c 2,31,-1
 102 -74 l 1,0,-1
315 546 m 0,32,33
 315 247 315 247 540 247 c 0,34,35
 757 247 757 247 757 541 c 0,36,37
 757 761 757 761 632 820 c 0,38,39
 593 839 593 839 538 839 c 0,40,41
 395 839 395 839 341 703 c 0,42,43
 315 636 315 636 315 546 c 0,32,33
EndSplineSet
EndChar
StartChar: h
Encoding: 104 104 76
Width: 1139
Flags: W
HStem: 0 21G<135 365 770 1000> 1446 20G<135 365>
VStem: 135 230<0 601 1008 1466> 770 230<0 757.9>
Fore
135 0 m 1,0,-1
 135 1466 l 1,1,-1
 365 1466 l 1,2,-1
 365 1008 l 1,3,4
 442 1095 442 1095 600 1095 c 0,5,6
 825 1095 825 1095 928 941 c 0,7,8
 1000 834 1000 834 1000 673 c 2,9,-1
 1000 0 l 1,10,-1
 770 0 l 1,11,-1
 770 624 l 2,12,13
 770 778 770 778 682 817 c 0,14,15
 648 832 648 832 596 832 c 0,16,17
 481 832 481 832 415 719 c 0,18,19
 365 634 365 634 365 532 c 2,20,-1
 365 0 l 1,21,-1
 135 0 l 1,0,-1
EndSplineSet
EndChar
StartChar: i
Encoding: 105 105 77
Width: 455
Flags: W
HStem: 0 21G<106 346> 1042 20G<106 346> 1218 248<111 342>
VStem: 111 231<0 1062 1218 1466>
Fore
111 1218 m 1,0,-1
 111 1466 l 1,1,-1
 342 1466 l 1,2,-1
 342 1218 l 1,3,-1
 111 1218 l 1,0,-1
106 0 m 1,4,-1
 106 1062 l 1,5,-1
 346 1062 l 1,6,-1
 346 0 l 1,7,-1
 106 0 l 1,4,-1
EndSplineSet
EndChar
StartChar: j
Encoding: 106 106 78
Width: 455
Flags: W
HStem: -428 215<-67.8438 65> 1042 20G<112 340> 1220 246<112 340>
VStem: 112 228<-117.5 1062 1220 1466>
Fore
112 1220 m 1,0,-1
 112 1466 l 1,1,-1
 340 1466 l 1,2,-1
 340 1220 l 1,3,-1
 112 1220 l 1,0,-1
-94 -412 m 1,4,-1
 -94 -205 l 1,5,6
 -38 -213 -38 -213 -29 -213 c 0,7,8
 61 -213 61 -213 89 -152 c 0,9,10
 112 -103 112 -103 112 -20 c 2,11,-1
 112 1062 l 1,12,-1
 340 1062 l 1,13,-1
 340 -58 l 2,14,15
 340 -340 340 -340 186 -406 c 0,16,17
 135 -428 135 -428 65 -428 c 0,18,19
 -23 -428 -23 -428 -94 -412 c 1,4,-1
EndSplineSet
EndChar
StartChar: k
Encoding: 107 107 79
Width: 1024
Flags: W
HStem: 0 21G<136 356 740 1016> 1042 20G<696 975> 1446 20G<136 356>
VStem: 136 220<0 390 684 1466>
Fore
136 0 m 1,0,-1
 136 1466 l 1,1,-1
 356 1466 l 1,2,-1
 356 684 l 1,3,-1
 696 1062 l 1,4,-1
 975 1062 l 1,5,-1
 592 636 l 1,6,-1
 1016 0 l 1,7,-1
 740 0 l 1,8,-1
 443 484 l 1,9,-1
 356 390 l 1,10,-1
 356 0 l 1,11,-1
 136 0 l 1,0,-1
EndSplineSet
EndChar
StartChar: l
Encoding: 108 108 80
Width: 455
Flags: W
HStem: 0 21G<104 340> 1446 20G<104 340>
VStem: 104 236<0 1466>
Fore
104 0 m 1,0,-1
 104 1466 l 1,1,-1
 340 1466 l 1,2,-1
 340 0 l 1,3,-1
 104 0 l 1,0,-1
EndSplineSet
EndChar
StartChar: m
Encoding: 109 109 81
Width: 1706
Flags: W
HStem: 0 21G<135 362 742 986 1356 1574> 842 244<468.5 643.723 1139.37 1329.5>
VStem: 135 227<0 634.78> 742 244<0 682.324> 1356 218<0 815.9>
Fore
135 0 m 1,0,-1
 135 1062 l 1,1,-1
 343 1062 l 1,2,-1
 343 978 l 1,3,4
 445 1086 445 1086 618 1086 c 0,5,6
 787.5 1086 787.5 1086 879 999 c 0,7,8
 904.5 976.5 904.5 976.5 918 948 c 1,9,10
 970 1033 970 1033 1109 1069 c 0,11,12
 1179 1086 1179 1086 1246 1086 c 0,13,14
 1537 1086 1537 1086 1570 803 c 0,15,16
 1574 772 1574 772 1574 729 c 2,17,-1
 1574 0 l 1,18,-1
 1356 0 l 1,19,-1
 1356 669 l 2,20,21
 1349 837 1349 837 1206 842 c 0,22,23
 1014 842 1014 842 989 668 c 0,24,25
 986 644 986 644 986 617 c 2,26,-1
 986 0 l 1,27,-1
 742 0 l 1,28,-1
 742 690 l 2,29,30
 742 796 742 796 648 830 c 0,31,32
 616 842 616 842 578 842 c 0,33,34
 397 842 397 842 368 636 c 0,35,36
 362 597 362 597 362 551 c 2,37,-1
 362 0 l 1,38,-1
 135 0 l 1,0,-1
EndSplineSet
EndChar
StartChar: n
Encoding: 110 110 82
Width: 1139
Flags: W
HStem: 0 21G<135 368 776 1000> 828 267<495.647 674.201>
VStem: 135 233<0 613.705 1012 1064> 776 224<0 770.9>
Fore
135 0 m 1,0,-1
 135 1064 l 1,1,-1
 368 1064 l 1,2,-1
 368 1012 l 1,3,4
 429 1068 429 1068 500 1085 c 0,5,6
 541 1095 541 1095 600 1095 c 0,7,8
 825 1095 825 1095 928 941 c 0,9,10
 1000 834 1000 834 1000 673 c 2,11,-1
 1000 0 l 1,12,-1
 776 0 l 1,13,-1
 776 624 l 2,14,15
 776 793 776 793 657 822 c 0,16,17
 630 828 630 828 596 828 c 0,18,19
 453 828 453 828 398 701 c 0,20,21
 368 632 368 632 368 532 c 2,22,-1
 368 0 l 1,23,-1
 135 0 l 1,0,-1
EndSplineSet
EndChar
StartChar: o
Encoding: 111 111 83
Width: 1139
Flags: W
HStem: -11 217<483.124 707.7> 864 222<421.7 642.7>
VStem: 68 241<349 643.608> 821 242<417.813 704.3>
Fore
68 531 m 0,0,1
 68 817 68 817 224 964 c 0,2,3
 354 1086 354 1086 566 1086 c 0,4,5
 809 1086 809 1086 944 924 c 0,6,7
 1063 779 1063 779 1063 546 c 0,8,9
 1063 186 1063 186 843 56 c 0,10,11
 731 -11 731 -11 566 -11 c 0,12,13
 282.5 -11 282.5 -11 155 187 c 0,14,15
 68 320 68 320 68 531 c 0,0,1
309 529 m 0,16,17
 309 292 309 292 453 228 c 0,18,19
 501 206 501 206 566 206 c 0,20,21
 751 206 751 206 803 387 c 0,22,23
 821 451.5 821 451.5 821 534 c 0,24,25
 821 731 821 731 716 815 c 0,26,27
 655 864 655 864 566 864 c 0,28,29
 399.5 864 399.5 864 338 708 c 0,30,31
 309 632 309 632 309 529 c 0,16,17
EndSplineSet
EndChar
StartChar: p
Encoding: 112 112 84
Width: 1139
Flags: W
HStem: -10 216<477.9 655.3> 878 208<492.3 702.9>
VStem: 120 224<-390 86> 120 211<427.5 703.1 992 1076> 834 207<370.8 652.494>
Fore
331 992 m 1,0,-1
 353 1010 l 2,1,2
 447 1086 447 1086 582 1086 c 0,3,4
 791 1086 791 1086 913 940 c 0,5,6
 1041 788 1041 788 1041 529 c 0,7,8
 1041 298 1041 298 928 150 c 0,9,10
 805 -10 805 -10 591 -10 c 0,11,12
 461 -10 461 -10 344 86 c 1,13,-1
 344 -390 l 1,14,-1
 120 -390 l 1,15,-1
 120 1076 l 1,16,-1
 331 1076 l 1,17,-1
 331 992 l 1,0,-1
332 538 m 0,18,19
 332 412 332 412 391 317 c 0,20,21
 462 206 462 206 576 206 c 0,22,23
 667.5 206 667.5 206 729 257 c 0,24,25
 834 344 834 344 834 545 c 0,26,27
 834 662 834 662 792 743 c 0,28,29
 723 877 723 877 569 878 c 0,30,31
 481 878 481 878 422 819 c 0,32,33
 332 729 332 729 332 538 c 0,18,19
EndSplineSet
EndChar
StartChar: q
Encoding: 113 113 85
Width: 1139
Flags: W
HStem: -10 216<473.7 650.1> 878 208<426.1 636.7>
VStem: 87 207<370.8 652.494> 784 224<-390 86> 797 211<427.5 703.1 992 1076>
Fore
797 1076 m 1,0,-1
 1008 1076 l 1,1,-1
 1008 -390 l 1,2,-1
 784 -390 l 1,3,-1
 784 86 l 1,4,5
 667 -10 667 -10 537 -10 c 0,6,7
 324 -10 324 -10 200 150 c 0,8,9
 87 298 87 298 87 529 c 0,10,11
 87 788 87 788 215 940 c 0,12,13
 338 1086 338 1086 546 1086 c 0,14,15
 681 1086 681 1086 775 1010 c 0,16,17
 789 1000 789 1000 797 992 c 1,18,-1
 797 1076 l 1,0,-1
796 538 m 0,19,20
 796 728 796 728 707 819 c 0,21,22
 648 878 648 878 560 878 c 0,23,24
 405 876 405 876 336 743 c 0,25,26
 294 662 294 662 294 545 c 0,27,28
 294 344 294 344 399 257 c 0,29,30
 460 206 460 206 553 206 c 0,31,32
 666 206 666 206 737 317 c 0,33,34
 796 412 796 412 796 538 c 0,19,20
EndSplineSet
EndChar
StartChar: r
Encoding: 114 114 86
Width: 682
Flags: W
HStem: 0 21G<133 380> 1042 20G<133 362>
VStem: 133 229<947 1062> 133 247<0 602.494>
Fore
133 0 m 1,0,-1
 133 1062 l 1,1,-1
 362 1062 l 1,2,-1
 362 947 l 1,3,4
 395 1008 395 1008 424 1030 c 0,5,6
 439 1041 439 1041 463 1052 c 0,7,8
 466 1053 466 1053 474.5 1056.5 c 128,-1,9
 483 1060 483 1060 488 1062 c 0,10,11
 527 1077 527 1077 580 1077 c 0,12,13
 631 1077 631 1077 668 1055 c 2,14,-1
 710 1028 l 1,15,-1
 648 789 l 1,16,-1
 598 823 l 1,17,-1
 578 828 l 1,18,-1
 565 828 l 2,19,20
 532 828 532 828 501 817 c 0,21,22
 476 807 476 807 457 792 c 0,23,24
 394 745 394 745 384 604 c 0,25,26
 380 561 380 561 380 484 c 2,27,-1
 380 0 l 1,28,-1
 133 0 l 1,0,-1
EndSplineSet
EndChar
StartChar: s
Encoding: 115 115 87
Width: 1024
Flags: W
HStem: -11 212<426.138 608.3> 875 211<399.5 588.552>
Fore
63 358 m 1,0,-1
 291 358 l 1,1,2
 303 267 303 267 389 226 c 0,3,4
 440 201 440 201 516 201 c 0,5,6
 624 201 624 201 682 255 c 0,7,8
 710 280 710 280 710 306 c 0,9,10
 710 381 710 381 659 408 c 0,11,12
 631 423 631 423 523 443 c 0,13,14
 310 482 310 482 226 531 c 0,15,16
 107 599 107 599 95 739 c 0,17,18
 93 765 93 765 93 780 c 0,19,20
 95 937 95 937 227 1020 c 0,21,22
 330 1086 330 1086 484 1086 c 0,23,24
 740 1086 740 1086 845 953 c 0,25,26
 903.5 876.5 903.5 876.5 905 764 c 1,27,-1
 679 764 l 1,28,29
 671 845 671 845 577 867 c 0,30,31
 542 875 542 875 497 875 c 0,32,33
 383 873 383 873 343 821 c 0,34,35
 329 804 329 804 329 783 c 2,36,-1
 329 778 l 2,37,38
 334 710 334 710 390 685 c 0,39,40
 413 674 413 674 517 654 c 0,41,42
 719.5 616.5 719.5 616.5 805 570 c 0,43,44
 884.5 526.5 884.5 526.5 919 456 c 0,45,46
 945 399 945 399 945 325 c 0,47,48
 945 164 945 164 810 71 c 0,49,50
 692 -11 692 -11 517 -11 c 0,51,52
 251.5 -11 251.5 -11 136 145 c 0,53,54
 72 230 72 230 63 358 c 1,0,-1
EndSplineSet
EndChar
StartChar: t
Encoding: 116 116 88
Width: 569
Flags: W
HStem: -13 204<411 526.316> 892 196<18 140 372 497>
VStem: 140 232<227.921 892 1088 1433>
Fore
528 199 m 1,0,-1
 554 2 l 1,1,2
 482 -13 482 -13 411 -13 c 0,3,4
 291 -13 291 -13 242 15 c 2,5,-1
 238 17 l 2,6,7
 175 58 175 58 156 130 c 0,8,9
 140 188 140 188 140 311 c 2,10,-1
 140 892 l 1,11,-1
 18 892 l 1,12,-1
 18 1088 l 1,13,-1
 140 1088 l 1,14,-1
 140 1433 l 1,15,-1
 372 1433 l 1,16,-1
 372 1088 l 1,17,-1
 497 1088 l 1,18,-1
 497 892 l 1,19,-1
 372 892 l 1,20,-1
 372 301 l 2,21,22
 372 253 372 253 381 238 c 2,23,-1
 384 232 l 2,24,25
 393 217 393 217 413 205 c 0,26,27
 436 191 436 191 474 191 c 1,28,-1
 491 193.5 l 2,29,30
 508 196 508 196 528 199 c 1,0,-1
EndSplineSet
EndChar
StartChar: u
Encoding: 117 117 89
Width: 1139
Flags: W
HStem: -10 253<461.502 632.977> 1065 20G<104 330 726 969>
VStem: 104 226<331 1085> 726 243<390.939 1085>
Fore
969 1085 m 1,0,-1
 969 0 l 1,1,-1
 789 0 l 1,2,-1
 789 64 l 1,3,4
 741 11.5 741 11.5 612 -5 c 0,5,6
 570 -10 570 -10 537 -10 c 0,7,8
 283 -10 283 -10 175 147 c 0,9,10
 104 250 104 250 104 412 c 2,11,-1
 104 1085 l 1,12,-1
 330 1085 l 1,13,-1
 330 461 l 2,14,15
 330 310 330 310 442 261 c 0,16,17
 482 243 482 243 534 243 c 0,18,19
 696 243 696 243 721 390 c 0,20,21
 726 423 726 423 726 456 c 2,22,-1
 726 1085 l 1,23,-1
 969 1085 l 1,0,-1
EndSplineSet
EndChar
StartChar: v
Encoding: 118 118 90
Width: 1024
Flags: W
HStem: 0 21G<429 599> 1042 20G<26 268 760 1000>
VStem: 26 974<1062 1062>
Fore
429 0 m 1,0,-1
 26 1062 l 1,1,-1
 268 1062 l 1,2,-1
 520 360 l 1,3,-1
 760 1062 l 1,4,-1
 1000 1062 l 1,5,-1
 599 0 l 1,6,-1
 429 0 l 1,0,-1
EndSplineSet
EndChar
StartChar: w
Encoding: 119 119 91
Width: 1479
Flags: W
HStem: 0 21G<296 544 956 1200> 1042 20G<6 256 648 832 1236 1463>
Fore
296 0 m 1,0,-1
 6 1062 l 1,1,-1
 256 1062 l 1,2,-1
 424 364 l 1,3,-1
 648 1062 l 1,4,-1
 832 1062 l 1,5,-1
 1069 364 l 1,6,-1
 1236 1062 l 1,7,-1
 1463 1062 l 1,8,-1
 1200 0 l 1,9,-1
 956 0 l 1,10,11
 895 221 895 221 740 676 c 1,12,-1
 544 0 l 1,13,-1
 296 0 l 1,0,-1
EndSplineSet
EndChar
StartChar: x
Encoding: 120 120 92
Width: 1024
Flags: W
HStem: 0 21G<15 284 732 1009> 1042 20G<44 324 700 981>
VStem: 15 994<0 0>
Fore
15 0 m 1,0,-1
 346 552 l 1,1,-1
 44 1062 l 1,2,-1
 324 1062 l 1,3,-1
 499 744 l 1,4,-1
 700 1062 l 1,5,-1
 981 1062 l 1,6,-1
 657 562 l 1,7,-1
 1009 0 l 1,8,-1
 732 0 l 1,9,-1
 505 369 l 1,10,-1
 284 0 l 1,11,-1
 15 0 l 1,0,-1
EndSplineSet
EndChar
StartChar: y
Encoding: 121 121 93
Width: 1024
Flags: W
HStem: -422 216<159.564 296.712> 1042 20G<33 292 744 1006>
VStem: 33 973<1062 1062>
Fore
127 -409 m 1,0,-1
 107 -192 l 1,1,2
 160 -206 160 -206 214 -206 c 0,3,4
 284 -206 284 -206 327 -183 c 0,5,6
 417 -138 417 -138 417 -54 c 0,7,8
 417 -28.5 417 -28.5 408 0 c 2,9,-1
 33 1062 l 1,10,-1
 292 1062 l 1,11,-1
 525 372 l 1,12,-1
 744 1062 l 1,13,-1
 1006 1062 l 1,14,-1
 624 0 l 1,15,16
 605 -183 605 -183 511 -302 c 0,17,18
 477 -345 477 -345 420 -375 c 0,19,20
 339 -416 339 -416 239 -422 c 2,21,-1
 185 -421 l 2,22,23
 152 -418 152 -418 127 -409 c 1,0,-1
EndSplineSet
EndChar
StartChar: z
Encoding: 122 122 94
Width: 1024
Flags: W
HStem: 0 212<344 980> 864 198<60 664>
Fore
40 0 m 1,0,-1
 40 212 l 1,1,-1
 664 864 l 1,2,-1
 60 864 l 1,3,-1
 60 1062 l 1,4,-1
 948 1062 l 1,5,-1
 948 864 l 1,6,-1
 344 212 l 1,7,-1
 980 212 l 1,8,-1
 980 0 l 1,9,-1
 40 0 l 1,0,-1
EndSplineSet
EndChar
StartChar: braceleft
Encoding: 123 123 95
Width: 684
Flags: W
VStem: 264 220<-127.625 271.056 795.1 1212.14> 277 211.343<1031.07 1270>
Fore
57 612 m 1,0,1
 133.5 613.5 133.5 613.5 183 654 c 0,2,3
 230 694 230 694 247 762 c 0,4,5
 262 827 262 827 264 1011 c 0,6,7
 266 1194 266 1194 277 1270 c 0,8,9
 290 1349 290 1349 332 1401 c 0,10,11
 373 1452 373 1452 438 1475 c 0,12,13
 480 1491 480 1491 580 1491 c 2,14,-1
 636 1491 l 1,15,-1
 636 1280 l 1,16,-1
 605 1280 l 2,17,18
 563 1280 563 1280 550 1273 c 1,19,-1
 528 1254 l 2,20,21
 496 1227 496 1227 489 1160 c 0,22,23
 484 1118 484 1118 484 981 c 0,24,25
 484 767 484 767 437 676 c 2,26,-1
 409 623 l 2,27,28
 371 561 371 561 308 530 c 1,29,30
 348 513 348 513 370 486 c 2,31,-1
 411 426 l 2,32,33
 458 361 458 361 475 249 c 0,34,35
 484 181.5 484 181.5 484 -6 c 0,36,37
 484 -137 484 -137 518 -174 c 2,38,-1
 536 -196 l 2,39,40
 551 -212 551 -212 605 -212 c 2,41,-1
 636 -212 l 1,42,-1
 636 -431 l 1,43,-1
 580 -431 l 2,44,45
 495 -431 495 -431 456 -420 c 0,46,47
 399 -403 399 -403 364 -374 c 0,48,49
 328 -343 328 -343 303 -292 c 0,50,51
 279 -242.5 279 -242.5 270 -157 c 0,52,53
 265 -103 265 -103 264 63 c 0,54,55
 262 235 262 235 247 298 c 0,56,57
 231 367 231 367 183 407 c 0,58,59
 133.5 447.5 133.5 447.5 57 449 c 1,60,-1
 57 612 l 1,0,1
EndSplineSet
EndChar
StartChar: bar
Encoding: 124 124 96
Width: 532
Flags: W
VStem: 140 250<-431 1491>
Fore
140 -431 m 1,0,-1
 140 1491 l 1,1,-1
 390 1491 l 1,2,-1
 390 -431 l 1,3,-1
 140 -431 l 1,0,-1
EndSplineSet
EndChar
StartChar: braceright
Encoding: 125 125 97
Width: 684
Flags: W
VStem: 199 220<-127.625 271.056 795.1 1212.14>
Fore
626 612 m 1,0,-1
 626 449 l 1,1,2
 549.5 447.5 549.5 447.5 500 407 c 0,3,4
 452 367 452 367 436 298 c 0,5,6
 421 235 421 235 419 63 c 0,7,8
 417 -105 417 -105 413 -157 c 0,9,10
 404 -242.5 404 -242.5 380 -292 c 0,11,12
 355 -343 355 -343 319 -374 c 0,13,14
 284 -403 284 -403 227 -420 c 0,15,16
 188 -431 188 -431 103 -431 c 2,17,-1
 47 -431 l 1,18,-1
 47 -212 l 1,19,-1
 78 -212 l 2,20,21
 132 -212 132 -212 147 -196 c 2,22,-1
 165 -174 l 2,23,24
 199 -137 199 -137 199 -6 c 0,25,26
 199 181.5 199 181.5 208 249 c 0,27,28
 225 361 225 361 272 426 c 2,29,-1
 313 486 l 2,30,31
 335 513 335 513 375 530 c 1,32,33
 310 562 310 562 275 622 c 1,34,35
 271 627 271 627 246 676 c 0,36,37
 199 767 199 767 199 981 c 0,38,39
 199 1118 199 1118 194 1160 c 0,40,41
 187 1227 187 1227 155 1254 c 2,42,-1
 133 1273 l 1,43,-1
 113 1278 l 2,44,45
 97 1280 97 1280 78 1280 c 2,46,-1
 47 1280 l 1,47,-1
 47 1491 l 1,48,-1
 103 1491 l 2,49,50
 203 1491 203 1491 245 1475 c 0,51,52
 310 1452 310 1452 351 1401 c 0,53,54
 393 1349 393 1349 406 1270 c 0,55,56
 417 1194 417 1194 419 1011 c 0,57,58
 421 827 421 827 436 762 c 0,59,60
 453 694 453 694 500 654 c 0,61,62
 549.5 613.5 549.5 613.5 626 612 c 1,0,-1
EndSplineSet
EndChar
StartChar: asciitilde
Encoding: 126 126 98
Width: 1196
Flags: W
HStem: 531 237<777.939 918.62> 665 237<271.961 421.282>
VStem: 87 1023<645 782 529 905>
Fore
87 529 m 1,0,-1
 87 782 l 1,1,2
 194 902 194 902 365 902 c 0,3,4
 425 902 425 902 491 884 c 0,5,6
 558 867 558 867 679 815 c 0,7,8
 752 785 752 785 782 777 c 0,9,10
 816 768 816 768 852 768 c 0,11,12
 917 768 917 768 986 807 c 0,13,14
 1055 845 1055 845 1110 905 c 1,15,-1
 1110 645 l 1,16,17
 1045 585 1045 585 980 558 c 0,18,19
 915.5 531 915.5 531 833 531 c 0,20,21
 776 531 776 531 718 545 c 0,22,23
 670 557 670 557 546 612 c 0,24,25
 426 665 426 665 348 665 c 0,26,27
 283.5 665 283.5 665 228 638 c 0,28,29
 170 609 170 609 87 529 c 1,0,-1
EndSplineSet
EndChar
StartChar: exclamdown
Encoding: 161 161 100
Width: 680
Flags: W
HStem: 0 21G<228 452> 1059 20G<256 422> 1278 211<238 442>
VStem: 228 224<0 220.979> 238 204<1278 1489> 256 166<858.021 1079>
Fore
442 1278 m 1,0,-1
 238 1278 l 1,1,-1
 238 1489 l 1,2,-1
 442 1489 l 1,3,-1
 442 1278 l 1,0,-1
452 0 m 1,4,-1
 228 0 l 1,5,-1
 256 1079 l 1,6,-1
 422 1079 l 1,7,-1
 452 0 l 1,4,-1
EndSplineSet
EndChar
StartChar: cent
Encoding: 162 162 101
Width: 1118
Flags: W
HStem: 1455 20G<557 671>
VStem: 114 193<394.5 716.9> 557 114<-361 1 146 971 1116 1475>
Fore
557 2 m 1,0,1
 342 28 342 28 228 171 c 0,2,3
 114 315 114 315 114 557 c 0,4,5
 114 795 114 795 232 943 c 128,-1,6
 350 1091 350 1091 557 1115 c 1,7,-1
 557 1475 l 1,8,-1
 671 1475 l 1,9,-1
 671 1116 l 1,10,11
 757 1113 757 1113 838 1090 c 0,12,13
 918 1066 918 1066 975 1037 c 1,14,-1
 975 837 l 1,15,-1
 965 837 l 1,16,17
 902 889 902 889 833 926 c 0,18,19
 762.5 963.5 762.5 963.5 671 977 c 1,20,-1
 671 141 l 1,21,22
 717 145 717 145 770 164 c 0,23,24
 817 182 817 182 853 202 c 0,25,26
 887 222 887 222 917 244 c 0,27,28
 939 259 939 259 965 281 c 1,29,-1
 975 281 l 1,30,-1
 975 83 l 1,31,32
 910 53 910 53 840 30 c 0,33,34
 766 5 766 5 671 1 c 1,35,-1
 671 -361 l 1,36,-1
 557 -361 l 1,37,-1
 557 2 l 1,0,1
557 146 m 1,38,-1
 557 971 l 1,39,40
 442 950 442 950 374 846 c 0,41,42
 307 742 307 742 307 557 c 0,43,44
 307 368 307 368 376 268 c 0,45,46
 444 166 444 166 557 146 c 1,38,-1
EndSplineSet
EndChar
StartChar: sterling
Encoding: 163 163 102
Width: 1118
Flags: W
HStem: 0 171<261 1031> 613 138<130 291 483 847> 1351 167<620.4 812.8>
VStem: 291 192<474 613 751 1149>
Fore
1031 0 m 1,0,-1
 89 0 l 1,1,-1
 89 207 l 1,2,3
 199 240 199 240 246 335 c 0,4,5
 291 430 291 430 291 613 c 1,6,-1
 130 613 l 1,7,-1
 130 751 l 1,8,-1
 291 751 l 1,9,-1
 291 1071 l 2,10,11
 291 1271 291 1271 407 1395 c 0,12,13
 522 1518 522 1518 708 1518 c 0,14,15
 807 1518 807 1518 874 1502 c 0,16,17
 933 1489 933 1489 1001 1470 c 1,18,-1
 1001 1264 l 1,19,-1
 991 1264 l 1,20,21
 930 1306 930 1306 862 1328 c 0,22,23
 790 1351 790 1351 727 1351 c 0,24,25
 604 1351 604 1351 544 1274 c 0,26,27
 483 1198 483 1198 483 1052 c 2,28,-1
 483 751 l 1,29,-1
 847 751 l 1,30,-1
 847 613 l 1,31,-1
 483 613 l 1,32,-1
 483 552 l 2,33,34
 483 433 483 433 424 340 c 0,35,36
 367 244 367 244 261 182 c 1,37,-1
 261 171 l 1,38,-1
 1031 171 l 1,39,-1
 1031 0 l 1,0,-1
EndSplineSet
EndChar
StartChar: currency
Encoding: 164 164 103
Width: 1118
Flags: W
HStem: 326 138<491.1 626.3> 858 138<493.7 628.9>
VStem: 225 143<592.1 732.5> 752 144<589.5 729.9>
Fore
1057 272 m 1,0,-1
 951 166 l 1,1,-1
 737 378 l 1,2,3
 694 352 694 352 653 338 c 0,4,5
 614 326 614 326 560 326 c 0,6,7
 513 326 513 326 468 341 c 0,8,9
 424 355 424 355 385 379 c 1,10,-1
 170 164 l 1,11,-1
 65 273 l 1,12,-1
 277 486 l 1,13,14
 255 521 255 521 238 572 c 0,15,16
 225 624 225 624 225 661 c 0,17,18
 225 701 225 701 238 750 c 0,19,20
 254 797 254 797 278 835 c 1,21,-1
 65 1051 l 1,22,-1
 172 1157 l 1,23,-1
 386 944 l 1,24,25
 426 969 426 969 469 982 c 0,26,27
 517 996 517 996 560 996 c 0,28,29
 613 996 613 996 658 980 c 0,30,31
 701 966 701 966 736 945 c 1,32,-1
 948 1157 l 1,33,-1
 1057 1052 l 1,34,-1
 843 836 l 1,35,36
 870 793 870 793 883 753 c 0,37,38
 896 714 896 714 896 661 c 0,39,40
 896 617 896 617 882 570 c 0,41,42
 868 525 868 525 843 486 c 1,43,-1
 1057 272 l 1,0,-1
752 661 m 0,44,45
 752 739 752 739 696 800 c 0,46,47
 638 858 638 858 560 858 c 0,48,49
 483 858 483 858 426 800 c 0,50,51
 368 743 368 743 368 661 c 0,52,53
 368 583 368 583 424 522 c 0,54,55
 482 464 482 464 560 464 c 0,56,57
 637 464 637 464 694 522 c 0,58,59
 752 579 752 579 752 661 c 0,44,45
EndSplineSet
EndChar
StartChar: yen
Encoding: 165 165 104
Width: 1118
Flags: W
HStem: 0 21G<465 653> 440 138<125 465 653 993>
VStem: 467 184<0 440 578 657>
Fore
1059 1489 m 1,0,-1
 651 678 l 1,1,-1
 651 578 l 1,2,-1
 993 578 l 1,3,-1
 993 440 l 1,4,-1
 653 440 l 1,5,-1
 653 0 l 1,6,-1
 465 0 l 1,7,-1
 465 440 l 1,8,-1
 125 440 l 1,9,-1
 125 578 l 1,10,-1
 467 578 l 1,11,-1
 467 657 l 1,12,-1
 56 1489 l 1,13,-1
 266 1489 l 1,14,-1
 560 850 l 1,15,-1
 858 1489 l 1,16,-1
 1059 1489 l 1,0,-1
EndSplineSet
EndChar
StartChar: brokenbar
Encoding: 166 166 105
Width: 783
Flags: W
VStem: 308 167<-392 406 758 1556>
Fore
475 758 m 1,0,-1
 308 758 l 1,1,-1
 308 1556 l 1,2,-1
 475 1556 l 1,3,-1
 475 758 l 1,0,-1
475 -392 m 1,4,-1
 308 -392 l 1,5,-1
 308 406 l 1,6,-1
 475 406 l 1,7,-1
 475 -392 l 1,4,-1
EndSplineSet
EndChar
StartChar: section
Encoding: 167 167 106
Width: 1118
Flags: W
HStem: -385 165<391.233 609.091> 1355 164<507.927 720.629>
VStem: 119 189<503.28 615.722> 148 192<1103.12 1252.7> 776 193<-90.4251 36.2955> 810 188<507.4 629.787>
Fore
759 401 m 0,0,1
 784 437 784 437 796 468 c 0,2,3
 810 499 810 499 810 555 c 0,4,5
 810 603 810 603 796 640 c 0,6,7
 780 677 780 677 756 699 c 0,8,9
 733 721 733 721 700 738 c 0,10,11
 673 751 673 751 626 766 c 0,12,13
 593 776 593 776 549 788 c 2,14,-1
 450 819 l 1,15,16
 430.5 807 430.5 807 408 789 c 0,17,18
 386 770 386 770 361 738 c 0,19,20
 343 715 343 715 324 668 c 0,21,22
 308 622 308 622 308 579 c 0,23,24
 308 499 308 499 346 450 c 0,25,26
 383 402 383 402 492 369 c 2,27,-1
 570 346 l 1,28,-1
 667 315 l 1,29,30
 683 325 683 325 711 348 c 0,31,32
 736 368 736 368 759 401 c 0,0,1
182 -133 m 1,33,34
 191 -138 191 -138 246 -162 c 0,35,36
 279 -176 279 -176 321 -190 c 0,37,38
 373 -207 373 -207 408 -212 c 0,39,40
 444 -220 444 -220 509 -220 c 0,41,42
 620 -220 620 -220 700 -174 c 0,43,44
 776 -125 776 -125 776 -36 c 0,45,46
 776 18 776 18 758 52 c 0,47,48
 738 86 738 86 698 111 c 0,49,50
 657 136 657 136 594 154 c 2,51,-1
 460 192 l 2,52,53
 370 218 370 218 314 243 c 0,54,55
 255 268 255 268 208 312 c 0,56,57
 164 351 164 351 141 407 c 0,58,59
 119 460 119 460 119 533 c 0,60,61
 119 627 119 627 168 712 c 0,62,63
 218 797 218 797 318 858 c 1,64,-1
 318 865 l 1,65,66
 228 914 228 914 188 986 c 0,67,68
 148 1056 148 1056 148 1147 c 0,69,70
 148 1315 148 1315 276 1417 c 128,-1,71
 404 1519 404 1519 628 1519 c 0,72,73
 716 1519 716 1519 785 1506 c 0,74,75
 864 1491 864 1491 946 1462 c 1,76,-1
 946 1268 l 1,77,-1
 936 1268 l 1,78,79
 846 1313 846 1313 768 1334 c 0,80,81
 692 1355 692 1355 607 1355 c 0,82,83
 494.5 1355 494.5 1355 418 1310 c 0,84,85
 340 1264 340 1264 340 1176 c 0,86,87
 340 1120 340 1120 360 1083 c 0,88,89
 381 1046 381 1046 420 1024 c 0,90,91
 458 1001 458 1001 520 981 c 0,92,93
 578 962 578 962 657 942 c 0,94,95
 839 893 839 893 920 814 c 0,96,97
 998 734.5 998 734.5 998 601 c 0,98,99
 998 493 998 493 944 412 c 0,100,101
 888 330 888 330 799 277 c 1,102,-1
 799 270 l 1,103,104
 887 223 887 223 928 154 c 0,105,106
 969 83 969 83 969 -10 c 0,107,108
 969 -82 969 -82 938 -155 c 0,109,110
 904 -228 904 -228 848 -274 c 0,111,112
 785 -328 785 -328 700 -356 c 0,113,114
 611 -385 611 -385 490 -385 c 0,115,116
 414 -385 414 -385 333 -371 c 0,117,118
 257 -358 257 -358 172 -327 c 1,119,-1
 172 -133 l 1,120,-1
 182 -133 l 1,33,34
EndSplineSet
EndChar
StartChar: dieresis
Encoding: 168 168 107
Width: 1118
Flags: W
HStem: 1304 195<253 454 666 867>
VStem: 253 201<1304 1499> 666 201<1304 1499>
Fore
867 1304 m 1,0,-1
 666 1304 l 1,1,-1
 666 1499 l 1,2,-1
 867 1499 l 1,3,-1
 867 1304 l 1,0,-1
454 1304 m 1,4,-1
 253 1304 l 1,5,-1
 253 1499 l 1,6,-1
 454 1499 l 1,7,-1
 454 1304 l 1,4,-1
EndSplineSet
EndChar
StartChar: copyright
Encoding: 169 169 108
Width: 1902
Flags: W
HStem: -210 110<682.9 1221.1> 180 147<872.9 1072.79> 996 147<879.4 1066.8> 1409 110<682.9 1221.1>
VStem: 86 117<383.3 926.7> 531 185<519.6 809.5> 1701 115<383.3 926.7>
Fore
1816 655 m 0,0,1
 1816 295 1816 295 1562 44 c 0,2,3
 1311 -210 1311 -210 951 -210 c 128,-1,4
 591 -210 591 -210 340 44 c 0,5,6
 86 295 86 295 86 655 c 0,7,8
 86 1013 86 1013 340 1266 c 0,9,10
 592 1519 592 1519 951 1519 c 128,-1,11
 1310 1519 1310 1519 1562 1266 c 0,12,13
 1816 1013 1816 1013 1816 655 c 0,0,1
1701 655 m 0,14,15
 1701 969 1701 969 1482 1188 c 0,16,17
 1262 1409 1262 1409 952 1409 c 128,-1,18
 642 1409 642 1409 422 1188 c 0,19,20
 203 969 203 969 203 655 c 0,21,22
 203 341.5 203 341.5 422 121 c 0,23,24
 643 -100 643 -100 952 -100 c 128,-1,25
 1261 -100 1261 -100 1482 121 c 0,26,27
 1701 341.5 1701 341.5 1701 655 c 0,14,15
1274 255 m 1,28,29
 1214 228 1214 228 1140 202 c 0,30,31
 1069 180 1069 180 982 180 c 0,32,33
 773 180 773 180 652 304 c 0,34,35
 531 426 531 426 531 660 c 0,36,37
 531 889 531 889 656 1016 c 0,38,39
 780 1143 780 1143 982 1143 c 0,40,41
 1066 1143 1066 1143 1141 1121 c 128,-1,42
 1216 1099 1216 1099 1274 1070 c 1,43,-1
 1274 889 l 1,44,-1
 1258 889 l 1,45,46
 1215 926 1215 926 1139 962 c 0,47,48
 1060 996 1060 996 986 996 c 0,49,50
 862 996 862 996 790 914 c 0,51,52
 716 833 716 833 716 660 c 0,53,54
 716 498 716 498 786 412 c 0,55,56
 857 327 857 327 986 327 c 0,57,58
 1071 327 1071 327 1145 364 c 0,59,60
 1222 401 1222 401 1258 434 c 1,61,-1
 1274 434 l 1,62,-1
 1274 255 l 1,28,29
EndSplineSet
EndChar
StartChar: ordfeminine
Encoding: 170 170 109
Width: 1010
Flags: W
HStem: 541 155<381.049 518.441> 1030.26 132.744<389.974 751.319> 1365 154<379.788 595.933>
VStem: 114 172<784 913.86> 708 166<566 657 802 1045 1184 1257.94>
Fore
874 566 m 1,0,-1
 708 566 l 1,1,-1
 708 657 l 1,2,-1
 657 618 l 2,3,4
 622 593 622 593 594 581 c 0,5,6
 552 561 552 561 514 552 c 0,7,8
 477 541 477 541 404 541 c 0,9,10
 280 541 280 541 197 624 c 0,11,12
 114 709 114 709 114 839 c 0,13,14
 114 944 114 944 157 1008 c 0,15,16
 201 1075 201 1075 280 1112 c 0,17,18
 355 1148 355 1148 469 1163 c 128,-1,19
 583 1178 583 1178 708 1184 c 1,20,-1
 708 1203 l 2,21,22
 708 1253 708 1253 692 1287 c 0,23,24
 673 1320 673 1320 643 1337 c 128,-1,25
 613 1354 613 1354 571 1360 c 0,26,27
 523 1365 523 1365 482 1365 c 0,28,29
 405 1365 405 1365 324 1342 c 0,30,31
 253 1321 253 1321 204 1304 c 1,32,-1
 189 1304 l 1,33,-1
 189 1474 l 1,34,35
 223 1485 223 1485 320 1503 c 0,36,37
 406 1519 406 1519 483 1519 c 0,38,39
 676 1519 676 1519 774 1442 c 0,40,41
 874 1367 874 1367 874 1194 c 2,42,-1
 874 566 l 1,0,-1
708 802 m 1,43,-1
 708 1045 l 1,44,45
 639 1040 639 1040 557 1033 c 0,46,47
 473 1026 473 1026 420 1010 c 0,48,49
 361 994 361 994 323 954 c 0,50,51
 286 917 286 917 286 849 c 0,52,53
 286 774 286 774 330 735 c 128,-1,54
 374 696 374 696 461 696 c 0,55,56
 536 696 536 696 598 729 c 0,57,58
 661 764 661 764 708 802 c 1,43,-1
EndSplineSet
EndChar
StartChar: guillemotleft
Encoding: 171 171 110
Width: 1174
Flags: W
HStem: 162 980<613 613>
VStem: 103 940<191 608>
Fore
1043 191 m 1,0,-1
 555 610 l 1,1,-1
 555 695 l 1,2,-1
 1043 1113 l 1,3,-1
 1043 925 l 1,4,-1
 726 652 l 1,5,-1
 1043 379 l 1,6,-1
 1043 191 l 1,0,-1
613 162 m 1,7,-1
 103 608 l 1,8,-1
 103 697 l 1,9,-1
 613 1142 l 1,10,-1
 613 946 l 1,11,-1
 282 652 l 1,12,-1
 613 358 l 1,13,-1
 613 162 l 1,7,-1
EndSplineSet
EndChar
StartChar: logicalnot
Encoding: 172 172 111
Width: 1490
Flags: W
HStem: 602 160<157 1152>
VStem: 1152 171<57 602>
Fore
1323 57 m 1,0,-1
 1152 57 l 1,1,-1
 1152 602 l 1,2,-1
 157 602 l 1,3,-1
 157 762 l 1,4,-1
 1323 762 l 1,5,-1
 1323 57 l 1,0,-1
EndSplineSet
EndChar
StartChar: registered
Encoding: 174 174 113
Width: 1902
Flags: W
HStem: -210 110<682.9 1221.1> 570 126<815 938> 1005 125<815 1032.72> 1409 110<682.9 1221.1>
VStem: 86 117<383.3 926.7> 650 165<215 570 696 1005> 1120 182<793.085 929.294> 1701 115<383.3 926.7>
Fore
1816 655 m 0,0,1
 1816 295 1816 295 1562 44 c 0,2,3
 1311 -210 1311 -210 951 -210 c 128,-1,4
 591 -210 591 -210 340 44 c 0,5,6
 86 295 86 295 86 655 c 0,7,8
 86 1013 86 1013 340 1266 c 0,9,10
 592 1519 592 1519 951 1519 c 128,-1,11
 1310 1519 1310 1519 1562 1266 c 0,12,13
 1816 1013 1816 1013 1816 655 c 0,0,1
1701 655 m 0,14,15
 1701 969 1701 969 1482 1188 c 0,16,17
 1262 1409 1262 1409 952 1409 c 128,-1,18
 642 1409 642 1409 422 1188 c 0,19,20
 203 969 203 969 203 655 c 0,21,22
 203 341.5 203 341.5 422 121 c 0,23,24
 643 -100 643 -100 952 -100 c 128,-1,25
 1261 -100 1261 -100 1482 121 c 0,26,27
 1701 341.5 1701 341.5 1701 655 c 0,14,15
1448 215 m 1,28,-1
 1221 215 l 1,29,-1
 938 570 l 1,30,-1
 815 570 l 1,31,-1
 815 215 l 1,32,-1
 650 215 l 1,33,-1
 650 1130 l 1,34,-1
 929 1130 l 2,35,36
 1026 1130 1026 1130 1078 1123 c 0,37,38
 1133 1115 1133 1115 1188 1084 c 0,39,40
 1248 1049 1248 1049 1275 1002 c 0,41,42
 1302 954 1302 954 1302 879 c 0,43,44
 1302 778 1302 778 1246 715 c 0,45,46
 1193 652 1193 652 1102 615 c 1,47,-1
 1448 215 l 1,28,-1
1120 868 m 0,48,49
 1120 905 1120 905 1108 932 c 0,50,51
 1096 958 1096 958 1066 978 c 0,52,53
 1041 994 1041 994 1010 1000 c 0,54,55
 975 1005 975 1005 930 1005 c 2,56,-1
 815 1005 l 1,57,-1
 815 696 l 1,58,-1
 913 696 l 2,59,60
 963 696 963 696 1003 706 c 0,61,62
 1045 715 1045 715 1071 738 c 0,63,64
 1098 762 1098 762 1108 791 c 0,65,66
 1120 821 1120 821 1120 868 c 0,48,49
EndSplineSet
EndChar
StartChar: macron
Encoding: 175 175 114
Width: 1118
Flags: W
HStem: 1659 130<-16 1134>
Fore
1134 1659 m 1,0,-1
 -16 1659 l 1,1,-1
 -16 1789 l 1,2,-1
 1134 1789 l 1,3,-1
 1134 1659 l 1,0,-1
EndSplineSet
EndChar
StartChar: degree
Encoding: 176 176 115
Width: 964
Flags: W
HStem: 755 152<401.4 565.2> 1363 152<398.8 565.2>
VStem: 101 157<1050.5 1218.2> 706 157<1053.1 1218.2>
Fore
863 1135 m 128,-1,1
 863 975 863 975 753 865 c 128,-1,2
 643 755 643 755 482 755 c 0,3,4
 322 755 322 755 212 864 c 0,5,6
 101 974 101 974 101 1135 c 0,7,8
 101 1295 101 1295 211 1405 c 128,-1,9
 321 1515 321 1515 482 1515 c 128,-1,10
 643 1515 643 1515 753 1405 c 128,-1,0
 863 1295 863 1295 863 1135 c 128,-1,1
706 1135 m 0,11,12
 706 1232 706 1232 642 1297 c 0,13,14
 578 1363 578 1363 482 1363 c 128,-1,15
 386 1363 386 1363 322 1297 c 0,16,17
 258 1232 258 1232 258 1135 c 0,18,19
 258 1036 258 1036 324 972 c 0,20,21
 389 907 389 907 482 907 c 0,22,23
 578 907 578 907 642 974 c 0,24,25
 706 1039 706 1039 706 1135 c 0,11,12
EndSplineSet
EndChar
StartChar: plusminus
Encoding: 177 177 116
Width: 1490
Flags: W
HStem: 159 158<162 662 828 1328> 739 158<162 662 828 1328>
VStem: 662 166<317 739 897 1402>
Fore
1328 159 m 1,0,-1
 162 159 l 1,1,-1
 162 317 l 1,2,-1
 662 317 l 1,3,-1
 662 739 l 1,4,-1
 162 739 l 1,5,-1
 162 897 l 1,6,-1
 662 897 l 1,7,-1
 662 1402 l 1,8,-1
 828 1402 l 1,9,-1
 828 897 l 1,10,-1
 1328 897 l 1,11,-1
 1328 739 l 1,12,-1
 828 739 l 1,13,-1
 828 317 l 1,14,-1
 1328 317 l 1,15,-1
 1328 159 l 1,0,-1
EndSplineSet
EndChar
StartChar: uni00B2
Encoding: 178 178 117
Width: 1010
Flags: W
HStem: 566 144<373 866> 1371 148<377.984 527.709>
VStem: 619 185<1153.87 1288.38>
Fore
866 566 m 1,0,-1
 185 566 l 1,1,-1
 185 718 l 1,2,-1
 332 832 l 2,3,4
 404 886 404 886 447 929 c 0,5,6
 552 1030 552 1030 586 1088 c 0,7,8
 619 1146 619 1146 619 1227 c 0,9,10
 619 1295 619 1295 576 1334 c 0,11,12
 531 1371 531 1371 457 1371 c 0,13,14
 387 1371 387 1371 318 1341 c 0,15,16
 248 1312 248 1312 206 1279 c 1,17,-1
 191 1279 l 1,18,-1
 191 1458 l 1,19,20
 255 1486 255 1486 330 1502 c 0,21,22
 410 1519 410 1519 481 1519 c 0,23,24
 638 1519 638 1519 720 1440 c 0,25,26
 804 1362 804 1362 804 1239 c 0,27,28
 804 1153 804 1153 764 1076 c 0,29,30
 726 998 726 998 617 900 c 0,31,32
 569 858 569 858 496 802 c 2,33,-1
 373 710 l 1,34,-1
 866 710 l 1,35,-1
 866 566 l 1,0,-1
EndSplineSet
EndChar
StartChar: uni00B3
Encoding: 179 179 118
Width: 1010
Flags: W
HStem: 542 139<378.14 553.376> 968 139<334 521.018> 1380 139<394.157 554.152>
VStem: 641 173<1205.6 1303.04> 665 172<763.6 888.4>
Fore
837 828 m 0,0,1
 837 757 837 757 807 700 c 0,2,3
 777 644 777 644 729 611 c 0,4,5
 678 575 678 575 614 558 c 0,6,7
 556 542 556 542 474 542 c 128,-1,8
 392 542 392 542 320 557 c 0,9,10
 245 573 245 573 184 600 c 1,11,-1
 184 775 l 1,12,-1
 201 775 l 1,13,14
 239 740 239 740 315 710 c 0,15,16
 393 681 393 681 471 681 c 0,17,18
 555 681 555 681 610 718 c 0,19,20
 665 754 665 754 665 826 c 128,-1,21
 665 898 665 898 622 933 c 0,22,23
 576 968 576 968 474 968 c 2,24,-1
 334 968 l 1,25,-1
 334 1107 l 1,26,-1
 459 1107 l 2,27,28
 545 1107 545 1107 594 1145 c 0,29,30
 641 1183 641 1183 641 1249 c 0,31,32
 641 1309 641 1309 600 1344 c 0,33,34
 560 1380 560 1380 472 1380 c 0,35,36
 404 1380 404 1380 330 1349 c 0,37,38
 255 1319 255 1319 216 1283 c 1,39,-1
 199 1283 l 1,40,-1
 199 1458 l 1,41,42
 267 1486 267 1486 338 1502 c 0,43,44
 415 1519 415 1519 492 1519 c 0,45,46
 644 1519 644 1519 729 1449 c 128,-1,47
 814 1379 814 1379 814 1281 c 0,48,49
 814 1194 814 1194 766 1138 c 0,50,51
 716 1080 716 1080 640 1055 c 1,52,-1
 640 1047 l 1,53,54
 723 1030 723 1030 778 976 c 0,55,56
 837 923 837 923 837 828 c 0,0,1
EndSplineSet
EndChar
StartChar: acute
Encoding: 180 180 119
Width: 1118
Flags: W
HStem: 1302 374<598 871>
VStem: 449 422<1302 1676>
Fore
871 1676 m 1,0,-1
 598 1302 l 1,1,-1
 449 1302 l 1,2,-1
 628 1676 l 1,3,-1
 871 1676 l 1,0,-1
EndSplineSet
EndChar
StartChar: mu
Encoding: 181 181 120
Width: 1163
Flags: W
HStem: -17 181<489.251 666.626>
VStem: 136 188<-412 115 275 1117> 839 188<275 1117> 855 172<0 116>
Fore
1027 0 m 1,0,-1
 855 0 l 1,1,-1
 855 116 l 1,2,-1
 849 116 l 1,3,4
 787 51 787 51 728 18 c 0,5,6
 667 -17 667 -17 578 -17 c 0,7,8
 486 -17 486 -17 433 18 c 128,-1,9
 380 53 380 53 324 115 c 1,10,-1
 324 -412 l 1,11,-1
 136 -412 l 1,12,-1
 136 1117 l 1,13,-1
 324 1117 l 1,14,-1
 324 275 l 1,15,16
 366 225.5 366 225.5 429 194 c 0,17,18
 492 164 492 164 578 164 c 0,19,20
 666 164 666 164 730 193 c 0,21,22
 790 222 790 222 839 275 c 1,23,-1
 839 1117 l 1,24,-1
 1027 1117 l 1,25,-1
 1027 0 l 1,0,-1
EndSplineSet
EndChar
StartChar: paragraph
Encoding: 182 182 121
Width: 1118
Flags: W
HStem: 1359 130<655 842>
VStem: 515 140<-363 593> 842 140<-363 1359>
Fore
982 -363 m 1,0,-1
 842 -363 l 1,1,-1
 842 1359 l 1,2,-1
 655 1359 l 1,3,-1
 655 -363 l 1,4,-1
 515 -363 l 1,5,-1
 515 593 l 1,6,7
 309 598 309 598 183 722 c 128,-1,8
 57 846 57 846 57 1050 c 0,9,10
 57 1258 57 1258 187 1373 c 0,11,12
 318 1489 318 1489 560 1489 c 2,13,-1
 982 1489 l 1,14,-1
 982 -363 l 1,0,-1
EndSplineSet
EndChar
StartChar: periodcentered
Encoding: 183 183 122
Width: 724
Flags: W
HStem: 832 285<243 482>
VStem: 243 239<832 1117>
Fore
482 832 m 1,0,-1
 243 832 l 1,1,-1
 243 1117 l 1,2,-1
 482 1117 l 1,3,-1
 482 832 l 1,0,-1
EndSplineSet
EndChar
StartChar: cedilla
Encoding: 184 184 123
Width: 1118
Flags: W
HStem: -423 150<364.259 524.825>
VStem: 614 159<-185.915 -8.19973>
Fore
767 20 m 1,0,1
 769 1 769 1 770 -26 c 0,2,3
 773 -53 773 -53 773 -89 c 0,4,5
 773 -252 773 -252 686 -337 c 0,6,7
 598 -423 598 -423 466 -423 c 0,8,9
 428.5 -423 428.5 -423 379 -417 c 128,-1,10
 329.5 -411 329.5 -411 289 -399 c 1,11,-1
 289 -239 l 1,12,-1
 298 -239 l 1,13,14
 326 -251 326 -251 361 -262 c 0,15,16
 402 -273 402 -273 440 -273 c 0,17,18
 534 -273 534 -273 574 -234 c 0,19,20
 614 -194 614 -194 614 -107 c 0,21,22
 614 -71 614 -71 613 -50 c 0,23,24
 611 -16 611 -16 610 20 c 1,25,-1
 767 20 l 1,0,1
EndSplineSet
EndChar
StartChar: uni0E01
Encoding: 3585 3585 124
Width: 1417
VWidth: 2045
Flags: HW
HStem: 0 21G<260 480 1041 1262> 701 220<480 591> 1062 222<486.3 873.7>
VStem: 260 220<0 701> 1041 221<0 896.3>
Fore
395 921 m 0,0,-1
 591 921 l 1,1,-1
 591 701 l 1,2,-1
 480 701 l 1,3,-1
 480 0 l 1,4,-1
 260 0 l 1,5,-1
 260 701 l 1,6,-1
 100 701 l 1,7,8
 100 860 100 860 178 994 c 128,-1,9
 256 1128 256 1128 390 1206 c 128,-1,10
 524 1284 524 1284 682 1284 c 128,-1,11
 840 1284 840 1284 974 1206 c 128,-1,12
 1108 1128 1108 1128 1185 995.5 c 128,-1,13
 1262 863 1262 863 1262 702 c 2,14,-1
 1262 0 l 1,15,-1
 1041 0 l 1,16,-1
 1041 700 l 2,17,18
 1041 851 1041 851 935 956.5 c 128,-1,19
 829 1062 829 1062 680 1062 c 128,-1,20
 531 1062 531 1062 426 956 c 0,21,22
 409 940 409 940 395 921 c 0,0,-1
EndSplineSet
EndChar
StartChar: uni0E02
Encoding: 3586 3586 125
Width: 1410
VWidth: 2045
Flags: HW
HStem: 0 220<411 521 741 1035> 618 188<294 398> 982 287<301.05 496>
VStem: 74 183<846.05 940.95> 437 185<847.2 940.8> 521 220<220 538.1> 686 218<748.306 1001.31> 1035 220<220 1254>
Back
-164 1640 m 132,-1,0
 -164 1708 -164 1708 -116 1756 c 132,-1,1
 -68 1804 -68 1804 0 1804 c 132,-1,2
 68 1804 68 1804 116 1756 c 132,-1,3
 164 1708 164 1708 164 1640 c 132,-1,4
 164 1572 164 1572 116 1524 c 132,-1,5
 68 1476 68 1476 0 1476 c 132,-1,6
 -68 1476 -68 1476 -116 1524 c 132,-1,7
 -164 1572 -164 1572 -164 1640 c 132,-1,0
-384 1640 m 132,-1,7
 -384 1799 -384 1799 -271.5 1911.5 c 132,-1,8
 -159 2024 -159 2024 0 2024 c 132,-1,9
 159 2024 159 2024 271.5 1911.5 c 132,-1,10
 384 1799 384 1799 384 1640 c 132,-1,11
 384 1481 384 1481 271.5 1368.5 c 132,-1,12
 159 1256 159 1256 0 1256 c 132,-1,13
 -159 1256 -159 1256 -271.5 1368.5 c 132,-1,14
 -384 1481 -384 1481 -384 1640 c 132,-1,7
EndSplineSet
Fore
552 1074 m 5,0,1
 622 988 622 988 622 892 c 4,2,3
 622 779 622 779 541.5 698.5 c 132,-1,4
 461 618 461 618 348 618 c 132,-1,5
 235 618 235 618 154.5 698.5 c 132,-1,6
 74 779 74 779 74 892 c 28,7,8
 74 1068 74 1068 207 1169.5 c 132,-1,9
 340 1271 340 1271 496 1269 c 4,10,11
 677 1267 677 1267 790.5 1154.5 c 132,-1,12
 904 1042 904 1042 904 878 c 4,13,14
 904 731 904 731 789 581 c 4,15,16
 741 512 741 512 741 425 c 6,17,-1
 741 220 l 5,18,-1
 1035 220 l 5,19,-1
 1035 1254 l 5,20,-1
 1255 1254 l 5,21,-1
 1255 0 l 5,22,-1
 411 0 l 5,23,-1
 411 220 l 5,24,-1
 521 220 l 5,25,-1
 521 425 l 6,26,27
 521 565 521 565 634 706 c 4,28,29
 690 777 690 777 685.5 874.5 c 132,-1,30
 681 972 681 972 635.5 1015.5 c 132,-1,31
 590 1059 590 1059 552 1074 c 5,0,1
257 893.5 m 132,-1,33
 257 857 257 857 281.5 832.5 c 132,-1,34
 306 808 306 808 346 806 c 132,-1,35
 386 804 386 804 411.5 831 c 132,-1,36
 437 858 437 858 437 894 c 132,-1,37
 437 930 437 930 411 956 c 132,-1,38
 385 982 385 982 348.5 982 c 132,-1,39
 312 982 312 982 284.5 956 c 132,-1,32
 257 930 257 930 257 893.5 c 132,-1,33
EndSplineSet
EndChar
StartChar: uni0E03
Encoding: 3587 3587 126
Width: 1542
VWidth: 2045
Flags: HW
HStem: 0 220<531 641 861 1165> 468 190<332 436> 834 184<317 433.95> 1234 20G<1165 1385>
VStem: 52 243<698.05 860> 475 187<699.2 792.8> 641 220<220 503.07> 818 213<731.905 967.947> 1165 220<220 1254>
Back
104 733 m 4,0,1
 104 846 104 846 184.5 926.5 c 4,2,3
 265 1007 265 1007 378 1007 c 4,4,5
 491 1007 491 1007 571.5 926.5 c 4,6,7
 652 846 652 846 652 733 c 4,8,9
 652 620 652 620 571.5 539.5 c 4,10,11
 491 459 491 459 378 459 c 4,12,13
 265 459 265 459 184.5 539.5 c 4,14,15
 104 620 104 620 104 733 c 4,0,1
287 735 m 4,55,-1
 287 698 287 698 314 671 c 4,56,57
 340 645 340 645 378 645 c 4,58,59
 416 645 416 645 441 671 c 4,60,61
 467 699 467 699 467 735 c 4,62,63
 467 771 467 771 441 797 c 4,64,65
 415 823 415 823 378 823 c 4,66,67
 342 823 342 823 314 797 c 4,68,69
 287 771 287 771 287 735 c 4,55,-1
EndSplineSet
Fore
317 1018 m 5,0,1
 498 1018 498 1018 580 938.5 c 132,-1,2
 662 859 662 859 662 746 c 132,-1,3
 662 633 662 633 577 549.5 c 132,-1,4
 492 466 492 466 381 468 c 4,5,6
 276 470 276 470 163.5 568.5 c 132,-1,7
 51 667 51 667 52 860 c 28,8,9
 53 1030 53 1030 157 1136.5 c 132,-1,10
 261 1243 261 1243 378 1264 c 5,11,-1
 545 1176 l 5,12,-1
 706 1264 l 5,13,14
 795 1252 795 1252 911.5 1144 c 132,-1,15
 1028 1036 1028 1036 1031.5 861.5 c 132,-1,16
 1035 687 1035 687 948 577 c 132,-1,17
 861 467 861 467 861 345 c 6,18,-1
 861 220 l 1,19,-1
 1165 220 l 1,20,-1
 1165 1254 l 1,21,-1
 1385 1254 l 1,22,-1
 1385 0 l 1,23,-1
 531 0 l 1,24,-1
 531 220 l 1,25,-1
 641 220 l 1,26,-1
 641 365 l 6,27,28
 641 485 641 485 729.5 622 c 132,-1,29
 818 759 818 759 818 850 c 132,-1,30
 818 941 818 941 787.5 991 c 132,-1,31
 757 1041 757 1041 696 1076 c 5,32,-1
 541 1000 l 5,33,-1
 385 1073 l 5,34,35
 318 1060 318 1060 317 1018 c 5,0,1
295 745.5 m 132,-1,37
 295 709 295 709 319.5 684.5 c 132,-1,38
 344 660 344 660 384 658 c 132,-1,39
 424 656 424 656 449.5 683 c 132,-1,40
 475 710 475 710 475 746 c 132,-1,41
 475 782 475 782 449 808 c 132,-1,42
 423 834 423 834 386.5 834 c 132,-1,43
 350 834 350 834 322.5 808 c 132,-1,36
 295 782 295 782 295 745.5 c 132,-1,37
EndSplineSet
EndChar
StartChar: uni0E04
Encoding: 3588 3588 127
Width: 1460
VWidth: 2045
Flags: HW
HStem: 0 21G<141 361 1082 1303> 330 186<670.6 769.4> 694 184<673.2 768.1> 1062 222<527.3 914.7>
VStem: 141 220<452 895.7> 809 185<559.2 652.8> 1082 221<0 896.3>
Fore
629 606 m 0,0,1
 629 569 629 569 656 542 c 0,2,3
 682 516 682 516 720 516 c 128,-1,4
 758 516 758 516 783 542 c 0,5,6
 809 570 809 570 809 606 c 128,-1,7
 809 642 809 642 783 668 c 128,-1,8
 757 694 757 694 720 694 c 0,9,10
 684 694 684 694 656 668 c 0,11,12
 629 642 629 642 629 606 c 0,0,1
361 0 m 17,13,-1
 141 0 l 1,14,-1
 141 702 l 2,15,16
 141 860 141 860 219 994 c 128,-1,17
 297 1128 297 1128 431 1206 c 128,-1,18
 565 1284 565 1284 723 1284 c 128,-1,19
 881 1284 881 1284 1015 1206 c 128,-1,20
 1149 1128 1149 1128 1226 995.5 c 128,-1,21
 1303 863 1303 863 1303 702 c 2,22,-1
 1303 0 l 1,23,-1
 1082 0 l 1,24,-1
 1082 700 l 2,25,26
 1082 851 1082 851 976 956.5 c 128,-1,27
 870 1062 870 1062 721 1062 c 128,-1,28
 572 1062 572 1062 466.5 956.5 c 128,-1,29
 361 851 361 851 361 702 c 2,30,-1
 361 452 l 1,31,-1
 474 726 l 2,32,33
 487 758 487 758 526 798 c 0,34,35
 607 878 607 878 720 878 c 128,-1,36
 833 878 833 878 913.5 797.5 c 128,-1,37
 994 717 994 717 994 604 c 128,-1,38
 994 491 994 491 913.5 410.5 c 128,-1,39
 833 330 833 330 720 330 c 128,-1,40
 607 330 607 330 526 410 c 9,41,-1
 361 0 l 17,13,-1
EndSplineSet
EndChar
StartChar: uni0E05
Encoding: 3589 3589 128
Width: 1452
VWidth: 2045
Flags: HW
HStem: 0 21G<141 361 1082 1303> 330 186<670.6 769.4> 694 184<673.05 767.95>
VStem: 141 220<452 1031.12> 809 185<559.2 652.8> 1082 221<0 1061.95>
Fore
629 605.5 m 128,-1,1
 629 569 629 569 655.5 542.5 c 128,-1,2
 682 516 682 516 720 516 c 128,-1,3
 758 516 758 516 783.5 543 c 128,-1,4
 809 570 809 570 809 606 c 128,-1,5
 809 642 809 642 783 668 c 128,-1,6
 757 694 757 694 720.5 694 c 128,-1,7
 684 694 684 694 656.5 668 c 128,-1,0
 629 642 629 642 629 605.5 c 128,-1,1
988 1284 m 1,8,9
 1161 1223 1161 1223 1232 1110 c 128,-1,10
 1303 997 1303 997 1303 782 c 2,11,-1
 1303 0 l 1,12,-1
 1082 0 l 1,13,-1
 1082 780 l 2,14,15
 1082 997 1082 997 946 1036 c 1,16,-1
 724 917 l 1,17,-1
 506 1036 l 1,18,19
 361 1002 361 1002 361 782 c 2,20,-1
 361 452 l 1,21,-1
 474 726 l 2,22,23
 487 758 487 758 526 798 c 0,24,25
 607 878 607 878 720 878 c 128,-1,26
 833 878 833 878 913.5 797.5 c 128,-1,27
 994 717 994 717 994 604 c 128,-1,28
 994 491 994 491 913.5 410.5 c 128,-1,29
 833 330 833 330 720 330 c 128,-1,30
 607 330 607 330 526 410 c 9,31,-1
 361 0 l 17,32,-1
 141 0 l 1,33,-1
 141 782 l 2,34,35
 141 974 141 974 220.5 1114 c 128,-1,36
 300 1254 300 1254 471 1286 c 1,37,-1
 734 1134 l 1,38,-1
 988 1284 l 1,8,9
EndSplineSet
EndChar
StartChar: uni0E06
Encoding: 3590 3590 129
Width: 1623
VWidth: 2045
Flags: HW
HStem: -20 186<532.6 631.4> 344 188<535.2 630.1> 549 159<292 396> 1234 20G<1250 1470>
VStem: 308 183<207.9 302.8> 435 167<749.2 842.8> 829 212<799.839 975.581> 1250 220<226 1254>
Fore
491 256 m 0,0,1
 491 219 491 219 518 192 c 0,2,3
 544 166 544 166 582 166 c 128,-1,4
 620 166 620 166 645 192 c 0,5,6
 671 220 671 220 671 256 c 128,-1,7
 671 292 671 292 645 318 c 128,-1,8
 619 344 619 344 582 344 c 0,9,10
 546 344 546 344 518 318 c 0,11,12
 491 292 491 292 491 256 c 0,0,1
675 522 m 1,13,14
 675 603 675 603 752 711.5 c 128,-1,15
 829 820 829 820 829 887.5 c 128,-1,16
 829 955 829 955 802 1012.5 c 128,-1,17
 775 1070 775 1070 706 1096 c 1,18,-1
 551 1020 l 1,19,-1
 395 1093 l 1,20,21
 319 1071 319 1071 304 1026 c 1,22,23
 408 1054 408 1054 505 987.5 c 128,-1,24
 602 921 602 921 602 809.5 c 128,-1,25
 602 698 602 698 533.5 622.5 c 128,-1,26
 465 547 465 547 336.5 549.5 c 128,-1,27
 208 552 208 552 131 636.5 c 128,-1,28
 54 721 54 721 55 838 c 24,29,30
 56 1033 56 1033 163.5 1143 c 128,-1,31
 271 1253 271 1253 388 1274 c 1,32,-1
 555 1186 l 1,33,-1
 716 1274 l 1,34,35
 805 1262 805 1262 921.5 1154 c 128,-1,36
 1038 1046 1038 1046 1041 881 c 128,-1,37
 1044 716 1044 716 963.5 624 c 128,-1,38
 883 532 883 532 885 448 c 9,39,-1
 1250 226 l 1,40,-1
 1250 1254 l 1,41,-1
 1470 1254 l 1,42,-1
 1470 0 l 25,43,-1
 1250 0 l 25,44,-1
 885 235 l 17,45,46
 886 135 886 135 806.5 57.5 c 128,-1,47
 727 -20 727 -20 598 -20 c 128,-1,48
 469 -20 469 -20 388.5 60.5 c 128,-1,49
 308 141 308 141 308 254 c 0,50,51
 308 378 308 378 392.5 455 c 128,-1,52
 477 532 477 532 582 532 c 0,53,54
 648 532 648 532 675 522 c 1,13,14
255 795.5 m 128,-1,56
 255 759 255 759 279.5 734.5 c 128,-1,57
 304 710 304 710 344 708 c 128,-1,58
 384 706 384 706 409.5 733 c 128,-1,59
 435 760 435 760 435 796 c 128,-1,60
 435 832 435 832 409 858 c 128,-1,61
 383 884 383 884 346.5 884 c 128,-1,62
 310 884 310 884 282.5 858 c 128,-1,55
 255 832 255 832 255 795.5 c 128,-1,56
EndSplineSet
EndChar
StartChar: uni0E07
Encoding: 3591 3591 130
Width: 1081
VWidth: 2045
Flags: HW
HStem: 0 21G<704 924> 726 186<600.6 699.4> 1090 184<603.05 697.95>
VStem: 376 183<954.05 1048.95> 705 219<262.091 730.986> 739 185<955.2 1048.8>
Fore
705 262 m 29,0,-1
 704 731 l 5,1,2
 678 726 678 726 650 726 c 4,3,4
 537 726 537 726 456.5 806.5 c 132,-1,5
 376 887 376 887 376 1000 c 132,-1,6
 376 1113 376 1113 456.5 1193.5 c 132,-1,7
 537 1274 537 1274 650 1274 c 132,-1,8
 763 1274 763 1274 843.5 1193.5 c 132,-1,9
 924 1113 924 1113 924 1000 c 14,10,-1
 924 0 l 5,11,-1
 704 0 l 13,12,-1
 108 596 l 1,13,-1
 240 728 l 1,14,-1
 705 262 l 29,0,-1
559 1001.5 m 132,-1,16
 559 965 559 965 585.5 938.5 c 132,-1,17
 612 912 612 912 650 912 c 132,-1,18
 688 912 688 912 713.5 939 c 132,-1,19
 739 966 739 966 739 1002 c 132,-1,20
 739 1038 739 1038 713 1064 c 132,-1,21
 687 1090 687 1090 650.5 1090 c 132,-1,22
 614 1090 614 1090 586.5 1064 c 132,-1,15
 559 1038 559 1038 559 1001.5 c 132,-1,16
EndSplineSet
EndChar
StartChar: uni0E08
Encoding: 3592 3592 131
Width: 1368
VWidth: 2045
Flags: HW
HStem: 0 21G<848 1068> 352 186<590.6 689.4> 716 184<593.2 688.1> 1064 220<479.9 836.1>
VStem: 106 220<732 910.1> 366 183<579.9 674.8> 990 220<646.35 910.1>
Fore
106 732 m 21,0,1
 106 882 106 882 180 1009 c 132,-1,2
 254 1136 254 1136 381 1210 c 132,-1,3
 508 1284 508 1284 658 1284 c 132,-1,4
 808 1284 808 1284 935 1210 c 132,-1,5
 1062 1136 1062 1136 1136 1009 c 132,-1,6
 1210 882 1210 882 1210 732 c 4,7,8
 1210 670 1210 670 1197 612 c 10,9,-1
 1068 0 l 1,10,-1
 848 0 l 1,11,-1
 776 388 l 17,12,13
 715 352 715 352 640 352 c 0,14,15
 527 352 527 352 446.5 432.5 c 128,-1,16
 366 513 366 513 366 626 c 128,-1,17
 366 739 366 739 446.5 819.5 c 128,-1,18
 527 900 527 900 640 900 c 128,-1,19
 753 900 753 900 834 820 c 0,20,21
 895 758 895 758 909 678 c 10,22,-1
 946 485 l 1,23,-1
 983 661 l 18,24,25
 990 695 990 695 990 732 c 4,26,27
 990 869 990 869 892.5 966.5 c 132,-1,28
 795 1064 795 1064 658 1064 c 132,-1,29
 521 1064 521 1064 423.5 966.5 c 132,-1,30
 326 869 326 869 326 732 c 13,31,-1
 106 732 l 21,0,1
549 628 m 0,32,33
 549 591 549 591 576 564 c 0,34,35
 602 538 602 538 640 538 c 128,-1,36
 678 538 678 538 703 564 c 0,37,38
 729 592 729 592 729 628 c 128,-1,39
 729 664 729 664 703 690 c 128,-1,40
 677 716 677 716 640 716 c 4,41,42
 604 716 604 716 576 690 c 0,43,44
 549 664 549 664 549 628 c 0,32,33
EndSplineSet
EndChar
StartChar: uni0E09
Encoding: 3593 3593 132
Width: 1466
VWidth: 2045
Flags: HW
HStem: -20 186<1050.6 1149.4> 254 186<300.6 399.4> 618 184<303.05 397.95> 1064 220<479.9 836.1>
VStem: 76 183<482.05 576.95> 439 185<483.2 576.8> 992 220<506.531 910.961> 1189 185<209.2 302.8>
Fore
147 942 m 17,0,1
 161 976 161 976 180 1009 c 0,2,3
 254 1136 254 1136 381 1210 c 128,-1,4
 508 1284 508 1284 658 1284 c 128,-1,5
 808 1284 808 1284 935 1210 c 128,-1,6
 1062 1136 1062 1136 1137 1009 c 128,-1,7
 1212 882 1212 882 1212 732 c 2,8,-1
 1212 505 l 21,9,10
 1256 485 1256 485 1294 448 c 4,11,12
 1374 367 1374 367 1374 254 c 132,-1,13
 1374 141 1374 141 1293.5 60.5 c 132,-1,14
 1213 -20 1213 -20 1100 -20 c 132,-1,15
 987 -20 987 -20 906 60 c 4,16,17
 863 104 863 104 843 157 c 13,18,-1
 624 0 l 9,19,-1
 405 0 l 25,20,-1
 405 259 l 1,21,22
 379 254 379 254 350 254 c 0,23,24
 237 254 237 254 156.5 334.5 c 128,-1,25
 76 415 76 415 76 528 c 128,-1,26
 76 641 76 641 156.5 721.5 c 128,-1,27
 237 802 237 802 350 802 c 128,-1,28
 463 802 463 802 543.5 721.5 c 128,-1,29
 624 641 624 641 624 528 c 2,30,-1
 624 240 l 25,31,-1
 931 470 l 6,32,33
 965 495 965 495 992 507 c 13,34,-1
 992 729 l 2,35,36
 992 869 992 869 893.5 966.5 c 128,-1,37
 795 1064 795 1064 658 1064 c 128,-1,38
 521 1064 521 1064 424 966 c 0,39,40
 375 918 375 918 350 859 c 9,41,-1
 147 942 l 17,0,1
1009 256 m 4,42,43
 1009 219 1009 219 1036 192 c 4,44,45
 1062 166 1062 166 1100 166 c 132,-1,46
 1138 166 1138 166 1163 192 c 4,47,48
 1189 220 1189 220 1189 256 c 132,-1,49
 1189 292 1189 292 1163 318 c 132,-1,50
 1137 344 1137 344 1100 344 c 4,51,52
 1064 344 1064 344 1036 318 c 4,53,54
 1009 292 1009 292 1009 256 c 4,42,43
259 529.5 m 128,-1,56
 259 493 259 493 285.5 466.5 c 128,-1,57
 312 440 312 440 350 440 c 128,-1,58
 388 440 388 440 413.5 467 c 128,-1,59
 439 494 439 494 439 530 c 128,-1,60
 439 566 439 566 413 592 c 128,-1,61
 387 618 387 618 350.5 618 c 128,-1,62
 314 618 314 618 286.5 592 c 128,-1,55
 259 566 259 566 259 529.5 c 128,-1,56
EndSplineSet
EndChar
StartChar: uni0E0A
Encoding: 3594 3594 133
Width: 1435
VWidth: 2045
Flags: HW
HStem: 0 220<411 521 741 1035> 618 188<294 398> 982 287<301.05 496>
VStem: 74 183<846.05 940.95> 437 185<847.2 940.8> 521 220<220 516.592> 686 218<748.306 1001.31> 1035 219<220 771.505> 1143 219<1173 1368>
Fore
960 756 m 5,0,-1
 960 976 l 5,1,2
 1020 1007 1020 1007 1069 1091 c 4,3,4
 1143 1218 1143 1218 1143 1368 c 5,5,-1
 1362 1368 l 5,6,7
 1362 1211 1362 1211 1301 1068 c 4,8,9
 1256 963 1256 963 1188 879 c 5,10,11
 1254 804 1254 804 1254 702 c 6,12,-1
 1255 0 l 5,13,-1
 411 0 l 5,14,-1
 411 220 l 5,15,-1
 521 220 l 5,16,-1
 521 425 l 6,17,18
 521 565 521 565 634 706 c 0,19,20
 690 777 690 777 685.5 874.5 c 128,-1,21
 681 972 681 972 635.5 1015.5 c 128,-1,22
 590 1059 590 1059 552 1074 c 1,23,24
 622 988 622 988 622 892 c 0,25,26
 622 779 622 779 541.5 698.5 c 128,-1,27
 461 618 461 618 348 618 c 128,-1,28
 235 618 235 618 154.5 698.5 c 128,-1,29
 74 779 74 779 74 892 c 0,30,31
 74 1068 74 1068 207 1169.5 c 128,-1,32
 340 1271 340 1271 496 1269 c 0,33,34
 677 1267 677 1267 790.5 1154.5 c 128,-1,35
 904 1042 904 1042 904 878 c 0,36,37
 904 735 904 735 789 581 c 0,38,39
 741 517 741 517 741 425 c 6,40,-1
 741 220 l 5,41,-1
 1035 220 l 5,42,-1
 1035 704 l 22,43,44
 1035 756 1035 756 960 756 c 5,0,-1
257 893.5 m 128,-1,46
 257 857 257 857 281.5 832.5 c 128,-1,47
 306 808 306 808 346 806 c 128,-1,48
 386 804 386 804 411.5 831 c 128,-1,49
 437 858 437 858 437 894 c 128,-1,50
 437 930 437 930 411 956 c 128,-1,51
 385 982 385 982 348.5 982 c 128,-1,52
 312 982 312 982 284.5 956 c 128,-1,45
 257 930 257 930 257 893.5 c 128,-1,46
EndSplineSet
EndChar
StartChar: uni0E0B
Encoding: 3595 3595 134
Width: 1572
VWidth: 2045
Flags: HW
HStem: 0 220<531 641 861 1155> 468 190<332 436> 834 184<317 433.95>
VStem: 52 243<698.05 860> 475 187<699.2 792.8> 641 220<220 503.07> 818 213<731.905 967.947> 1155 220<220 756> 1263 219<1173 1368>
Fore
641 365 m 2,0,1
 641 485 641 485 729.5 622 c 128,-1,2
 818 759 818 759 818 850 c 128,-1,3
 818 941 818 941 787.5 991 c 128,-1,4
 757 1041 757 1041 696 1076 c 1,5,-1
 541 1000 l 1,6,-1
 385 1073 l 1,7,8
 318 1060 318 1060 317 1018 c 1,9,10
 498 1018 498 1018 580 938.5 c 128,-1,11
 662 859 662 859 662 746 c 128,-1,12
 662 633 662 633 577 549.5 c 128,-1,13
 492 466 492 466 381 468 c 0,14,15
 276 470 276 470 163.5 568.5 c 128,-1,16
 51 667 51 667 52 860 c 24,17,18
 53 1030 53 1030 157 1136.5 c 128,-1,19
 261 1243 261 1243 378 1264 c 1,20,-1
 545 1176 l 1,21,-1
 706 1264 l 1,22,23
 795 1252 795 1252 911.5 1144 c 128,-1,24
 1028 1036 1028 1036 1031.5 861.5 c 128,-1,25
 1035 687 1035 687 948 577 c 128,-1,26
 861 467 861 467 861 345 c 2,27,-1
 861 220 l 1,28,-1
 1155 220 l 1,29,-1
 1155 704 l 18,30,31
 1155 756 1155 756 1080 756 c 1,32,-1
 1080 976 l 1,33,34
 1140 1007 1140 1007 1189 1091 c 0,35,36
 1263 1218 1263 1218 1263 1368 c 1,37,-1
 1482 1368 l 1,38,39
 1482 1211 1482 1211 1421 1068 c 0,40,41
 1376 963 1376 963 1308 879 c 1,42,43
 1374 804 1374 804 1374 702 c 2,44,-1
 1375 0 l 1,45,-1
 531 0 l 1,46,-1
 531 220 l 1,47,-1
 641 220 l 1,48,-1
 641 365 l 2,0,1
295 745.5 m 128,-1,50
 295 709 295 709 319.5 684.5 c 128,-1,51
 344 660 344 660 384 658 c 128,-1,52
 424 656 424 656 449.5 683 c 128,-1,53
 475 710 475 710 475 746 c 128,-1,54
 475 782 475 782 449 808 c 128,-1,55
 423 834 423 834 386.5 834 c 128,-1,56
 350 834 350 834 322.5 808 c 128,-1,49
 295 782 295 782 295 745.5 c 128,-1,50
1358 1362 m 1,57,-1
EndSplineSet
EndChar
StartChar: uni0E0C
Encoding: 3596 3596 135
Width: 1940
VWidth: 2045
Flags: W
HStem: -10 186<438.6 537.4 1050.6 1149.4> 354 184<441.2 536.1> 701 220<435 546> 1062 222<481.3 868.7>
VStem: 214 183<217.9 312.8> 215 220<533 701> 577 185<219.2 312.8> 826 183<217.9 312.8> 1036 221<531 896.3> 1552 220<240 1254>
Fore
1009 266 m 0,0,1
 1009 229 1009 229 1036 202 c 0,2,3
 1062 176 1062 176 1100 176 c 128,-1,4
 1138 176 1138 176 1163 202 c 0,5,6
 1189 230 1189 230 1189 266 c 128,-1,7
 1189 302 1189 302 1163 328 c 128,-1,8
 1137 354 1137 354 1100 354 c 0,9,10
 1064 354 1064 354 1036 328 c 0,11,12
 1009 302 1009 302 1009 266 c 0,0,1
397 266 m 0,13,14
 397 229 397 229 424 202 c 0,15,16
 450 176 450 176 488 176 c 128,-1,17
 526 176 526 176 551 202 c 0,18,19
 577 230 577 230 577 266 c 128,-1,20
 577 302 577 302 551 328 c 128,-1,21
 525 354 525 354 488 354 c 0,22,23
 452 354 452 354 424 328 c 0,24,25
 397 302 397 302 397 266 c 0,13,14
435 533 m 17,26,27
 460 538 460 538 488 538 c 0,28,29
 601 538 601 538 681.5 457.5 c 128,-1,30
 762 377 762 377 762 264 c 128,-1,31
 762 151 762 151 681.5 70.5 c 128,-1,32
 601 -10 601 -10 488 -10 c 128,-1,33
 375 -10 375 -10 294 70 c 0,34,35
 214 151 214 151 214 264 c 2,36,-1
 215 701 l 1,37,-1
 95 701 l 1,38,39
 95 860 95 860 173 994 c 128,-1,40
 251 1128 251 1128 385 1206 c 128,-1,41
 519 1284 519 1284 677 1284 c 128,-1,42
 835 1284 835 1284 969 1206 c 128,-1,43
 1103 1128 1103 1128 1180 995.5 c 128,-1,44
 1257 863 1257 863 1257 702 c 2,45,-1
 1257 484 l 17,46,47
 1279 470 1279 470 1294 458 c 2,48,-1
 1552 240 l 25,49,-1
 1552 1254 l 1,50,-1
 1772 1254 l 1,51,-1
 1772 0 l 25,52,-1
 1552 0 l 17,53,-1
 1357 167 l 1,54,55
 1337 114 1337 114 1294 70 c 0,56,57
 1213 -10 1213 -10 1100 -10 c 128,-1,58
 987 -10 987 -10 906.5 70.5 c 128,-1,59
 826 151 826 151 826 264 c 128,-1,60
 826 377 826 377 906 458 c 0,61,62
 963 514 963 514 1036 531 c 0,63,-1
 1036 700 l 2,64,65
 1036 851 1036 851 930 956 c 0,66,67
 824 1062 824 1062 675 1062 c 128,-1,68
 526 1062 526 1062 420 956 c 0,69,70
 404 940 404 940 390 921 c 0,71,-1
 546 921 l 1,72,-1
 546 701 l 1,73,-1
 435 701 l 1,74,-1
 435 533 l 17,26,27
EndSplineSet
EndChar
StartChar: uni0E0D
Encoding: 3597 3597 136
Width: 1940
VWidth: 2045
Flags: W
HStem: -577 192<1085.9 1261> -207 134<1085.9 1180.8> -10 186<438.6 537.4> 0 220<1258 1552> 354 184<441.2 536.1> 701 220<435 546> 1062 222<481.3 870>
VStem: 214 183<217.9 312.8> 215 220<533 701> 577 185<219.2 312.8> 911 133<-342.8 -249.2> 1038 220<220 852> 1552 220<220 1254>
Fore
1258 220 m 17,0,-1
 1552 220 l 9,1,-1
 1552 1254 l 1,2,-1
 1772 1254 l 1,3,-1
 1772 0 l 25,4,-1
 1038 0 l 25,5,-1
 1038 700 l 2,6,7
 1038 852 1038 852 931.5 957 c 128,-1,8
 825 1062 825 1062 675 1062 c 0,9,10
 526 1062 526 1062 420 956 c 0,11,12
 404 940 404 940 390 921 c 0,13,-1
 546 921 l 1,14,-1
 546 701 l 1,15,-1
 435 701 l 1,16,-1
 435 533 l 17,17,18
 460 538 460 538 488 538 c 0,19,20
 601 538 601 538 681.5 457.5 c 128,-1,21
 762 377 762 377 762 264 c 128,-1,22
 762 151 762 151 681.5 70.5 c 128,-1,23
 601 -10 601 -10 488 -10 c 128,-1,24
 375 -10 375 -10 294 70 c 0,25,26
 214 151 214 151 214 264 c 2,27,-1
 215 701 l 1,28,-1
 95 701 l 1,29,30
 95 860 95 860 173 994 c 128,-1,31
 251 1128 251 1128 385 1206 c 128,-1,32
 519 1284 519 1284 677 1284 c 128,-1,33
 835 1284 835 1284 969 1206 c 128,-1,34
 1103 1128 1103 1128 1180 995.5 c 128,-1,35
 1257 863 1257 863 1258 703 c 2,36,-1
 1258 220 l 17,0,-1
397 266 m 0,37,38
 397 229 397 229 424 202 c 0,39,40
 450 176 450 176 488 176 c 128,-1,41
 526 176 526 176 551 202 c 0,42,43
 577 230 577 230 577 266 c 128,-1,44
 577 302 577 302 551 328 c 128,-1,45
 525 354 525 354 488 354 c 0,46,47
 452 354 452 354 424 328 c 0,48,49
 397 302 397 302 397 266 c 0,37,38
1764 -249 m 1,50,51
 1676 -436 1676 -436 1544 -507 c 128,-1,52
 1412 -578 1412 -578 1261 -577 c 0,53,54
 1078 -576 1078 -576 994.5 -488.5 c 128,-1,55
 911 -401 911 -401 911 -301 c 0,56,57
 913 -200 913 -200 977 -136.5 c 128,-1,58
 1041 -73 1041 -73 1135 -73 c 0,59,60
 1228 -73 1228 -73 1296.5 -141.5 c 128,-1,61
 1365 -210 1365 -210 1359 -294 c 0,62,63
 1353 -377 1353 -377 1301 -414 c 1,64,65
 1392 -418 1392 -418 1473.5 -364.5 c 128,-1,66
 1555 -311 1555 -311 1621 -154 c 1,67,-1
 1764 -249 l 1,50,51
1044 -296 m 128,-1,69
 1044 -332 1044 -332 1070.5 -358.5 c 128,-1,70
 1097 -385 1097 -385 1134 -385 c 0,71,72
 1170 -385 1170 -385 1197.5 -358.5 c 128,-1,73
 1225 -332 1225 -332 1225 -296 c 128,-1,74
 1225 -260 1225 -260 1197.5 -233.5 c 128,-1,75
 1170 -207 1170 -207 1134 -207 c 0,76,77
 1097 -207 1097 -207 1070.5 -233.5 c 128,-1,68
 1044 -260 1044 -260 1044 -296 c 128,-1,69
EndSplineSet
Substitution2: "Single Substitution lookup 9" uni0E0D.descless
Substitution2: "Single Substitution lookup 8" uni0E0D.descless
EndChar
StartChar: uni0E0E
Encoding: 3598 3598 137
Width: 1493
VWidth: 2045
Flags: HW
HStem: -626 186<472.6 571.4> -262 184<475.05 569.95> -10 186<267.598 366.398> 354 184<268.898 363.798> 701 220<590 701> 1062 222<546.3 933.7>
VStem: 43 185<219.195 312.795> 248 183<-397.95 -303.05> 370 220<532.995 700.995> 408 183<217.895 312.795> 1101 221<-277.266 850.964>
AnchorPoint: "BelowBase" 1175.71 -717.338 basechar 0
Fore
779 -481 m 25,0,-1
 716 -546 l 1,1,2
 635 -626 635 -626 522 -626 c 128,-1,3
 409 -626 409 -626 328.5 -545.5 c 128,-1,4
 248 -465 248 -465 248 -352 c 128,-1,5
 248 -239 248 -239 328.5 -158.5 c 128,-1,6
 409 -78 409 -78 522 -78 c 128,-1,7
 635 -78 635 -78 716 -158 c 1,8,-1
 777 -218 l 25,9,-1
 873 -120 l 1,10,-1
 1005 -251 l 1,11,-1
 909 -349 l 17,12,-1
 969 -408 l 17,13,-1
 1101 -277 l 29,14,-1
 1101 700 l 6,15,16
 1101 851 1101 851 995 956.5 c 132,-1,17
 889 1062 889 1062 740 1062 c 132,-1,18
 591 1062 591 1062 486 956 c 4,19,20
 469 940 469 940 455 921 c 4,21,-1
 701 921 l 5,22,-1
 701 701 l 5,23,-1
 590 701 l 5,24,-1
 591 264 l 6,25,26
 591 151 591 151 510 70 c 4,27,28
 430 -10 430 -10 317 -10 c 132,-1,29
 204 -10 204 -10 123.5 70.5 c 132,-1,30
 43 151 43 151 43 264 c 132,-1,31
 43 377 43 377 123.5 457.5 c 132,-1,32
 204 538 204 538 317 538 c 4,33,34
 345 538 345 538 370 533 c 13,35,-1
 370 701 l 5,36,-1
 160 701 l 5,37,38
 160 860 160 860 238 994 c 132,-1,39
 316 1128 316 1128 450 1206 c 132,-1,40
 584 1284 584 1284 742 1284 c 132,-1,41
 900 1284 900 1284 1034 1206 c 132,-1,42
 1168 1128 1168 1128 1245 996 c 4,43,44
 1322 863 1322 863 1322 702 c 6,45,-1
 1322 -321 l 29,46,-1
 969 -668 l 1,47,-1
 779 -481 l 25,0,-1
647 -350 m 25,48,-1
 585 -288 l 1,49,50
 559 -262 559 -262 522.5 -262 c 128,-1,51
 486 -262 486 -262 458.5 -288 c 128,-1,52
 431 -314 431 -314 431 -350.5 c 128,-1,53
 431 -387 431 -387 457.5 -413.5 c 128,-1,54
 484 -440 484 -440 522 -440 c 128,-1,55
 560 -440 560 -440 585 -414 c 1,56,-1
 647 -350 l 25,48,-1
408 266 m 4,57,58
 408 302 408 302 381 328 c 4,59,60
 353 354 353 354 317 354 c 4,61,62
 280 354 280 354 254 328 c 132,-1,63
 228 302 228 302 228 266 c 132,-1,64
 228 230 228 230 254 202 c 4,65,66
 279 176 279 176 317 176 c 132,-1,67
 355 176 355 176 381 202 c 4,68,69
 408 229 408 229 408 266 c 4,57,58
EndSplineSet
EndChar
StartChar: uni0E0F
Encoding: 3599 3599 138
Width: 1493
VWidth: 2045
Flags: HW
HStem: -610 188<275.6 374.4> -244 182<278.05 372.95> -10 186<267.598 366.398> 354 184<268.898 363.798> 701 220<590 701> 1062 222<546.3 933.7>
VStem: 43 185<219.195 312.795> 51 183<-379.95 -285.05> 370 220<532.995 700.995> 408 183<217.895 312.795> 1101 221<-277.266 850.964>
AnchorPoint: "BelowBase" 1064.81 -660.698 basechar 0
Fore
750 -371 m 25,0,-1
 882 -241 l 9,1,-1
 1009 -368 l 1,2,-1
 1101 -277 l 25,3,-1
 1101 700 l 2,4,5
 1101 851 1101 851 995 956.5 c 128,-1,6
 889 1062 889 1062 740 1062 c 128,-1,7
 591 1062 591 1062 486 956 c 0,8,9
 469 940 469 940 455 921 c 0,10,-1
 701 921 l 1,11,-1
 701 701 l 1,12,-1
 590 701 l 1,13,-1
 591 264 l 2,14,15
 591 151 591 151 510 70 c 0,16,17
 430 -10 430 -10 317 -10 c 128,-1,18
 204 -10 204 -10 123.5 70.5 c 128,-1,19
 43 151 43 151 43 264 c 128,-1,20
 43 377 43 377 123.5 457.5 c 128,-1,21
 204 538 204 538 317 538 c 0,22,23
 345 538 345 538 370 533 c 9,24,-1
 370 701 l 1,25,-1
 160 701 l 1,26,27
 160 860 160 860 238 994 c 128,-1,28
 316 1128 316 1128 450 1206 c 128,-1,29
 584 1284 584 1284 742 1284 c 128,-1,30
 900 1284 900 1284 1034 1206 c 128,-1,31
 1168 1128 1168 1128 1245 996 c 0,32,33
 1322 863 1322 863 1322 702 c 2,34,-1
 1322 -321 l 25,35,-1
 1009 -628 l 1,36,-1
 883 -501 l 17,37,-1
 750 -634 l 25,38,-1
 582 -465 l 9,39,-1
 518 -530 l 1,40,41
 438 -610 438 -610 325 -610 c 128,-1,42
 212 -610 212 -610 131.5 -529.5 c 128,-1,43
 51 -449 51 -449 51 -336 c 128,-1,44
 51 -223 51 -223 131.5 -142.5 c 128,-1,45
 212 -62 212 -62 325 -62 c 128,-1,46
 438 -62 438 -62 518 -142 c 1,47,-1
 580 -202 l 25,48,-1
 646 -134 l 1,49,-1
 778 -265 l 1,50,-1
 712 -333 l 17,51,-1
 750 -371 l 25,0,-1
450 -332 m 25,52,-1
 388 -270 l 1,53,54
 362 -244 362 -244 325.5 -244 c 128,-1,55
 289 -244 289 -244 261.5 -270 c 128,-1,56
 234 -296 234 -296 234 -332.5 c 128,-1,57
 234 -369 234 -369 260.5 -395.5 c 128,-1,58
 287 -422 287 -422 325 -422 c 128,-1,59
 363 -422 363 -422 388 -396 c 1,60,-1
 450 -332 l 25,52,-1
408 266 m 0,61,62
 408 302 408 302 381 328 c 0,63,64
 353 354 353 354 317 354 c 0,65,66
 280 354 280 354 254 328 c 128,-1,67
 228 302 228 302 228 266 c 128,-1,68
 228 230 228 230 254 202 c 0,69,70
 279 176 279 176 317 176 c 128,-1,71
 355 176 355 176 381 202 c 0,72,73
 408 229 408 229 408 266 c 0,61,62
EndSplineSet
EndChar
StartChar: uni0E10
Encoding: 3600 3600 139
Width: 1245
VWidth: 2045
Flags: HW
HStem: -807 134<79.2 172.8> -521 133<745.9 842.1> -494 134<77.9 174.1> -210 134<745.9 842.1> 0 21G<698 918> 133 185<430.6 529.4> 496 184<433.2 528.1> 732 186<383.768 737> 1064 220<479.9 836.1>
VStem: -98 134<-629.8 -536.2> 206 183<359.9 454.8> 569 134<-344.8 -251.2> 883 136<-344.8 -251.2>
Fore
980 818 m 17,0,1
 958 901 958 901 892 966 c 0,2,3
 795 1064 795 1064 658 1064 c 128,-1,4
 521 1064 521 1064 424 966 c 0,5,6
 401 944 401 944 384 918 c 0,7,-1
 737 918 l 1,8,9
 850 918 850 918 930.5 837.5 c 128,-1,10
 1011 757 1011 757 1011 644 c 0,11,-1
 1007 612 l 25,12,-1
 918 0 l 1,13,-1
 698 0 l 1,14,-1
 640 192 l 17,15,16
 592 136 592 136 481 132.5 c 128,-1,17
 370 129 370 129 288 211 c 128,-1,18
 206 293 206 293 206 406 c 128,-1,19
 206 519 206 519 286.5 599.5 c 128,-1,20
 367 680 367 680 480 680 c 128,-1,21
 593 680 593 680 674 600 c 0,22,23
 738 534 738 534 759 458 c 10,24,-1
 776 400 l 1,25,-1
 793 601 l 24,26,27
 796 638 796 638 795 642 c 16,28,29
 783 691 783 691 768 706 c 0,30,31
 743 732 743 732 704 732 c 2,32,-1
 106 732 l 1,33,34
 106 882 106 882 180 1009 c 128,-1,35
 254 1136 254 1136 381 1210 c 128,-1,36
 508 1284 508 1284 658 1284 c 128,-1,37
 808 1284 808 1284 935 1210 c 128,-1,38
 1062 1136 1062 1136 1136 1009 c 0,39,40
 1166 957 1166 957 1184 902 c 9,41,-1
 980 818 l 17,0,1
389 408 m 0,42,43
 389 371 389 371 416 344 c 0,44,45
 442 318 442 318 480 318 c 128,-1,46
 518 318 518 318 543 344 c 0,47,48
 569 372 569 372 569 408 c 128,-1,49
 569 444 569 444 543 470 c 128,-1,50
 517 496 517 496 480 496 c 0,51,52
 444 496 444 496 416 470 c 0,53,54
 389 444 389 444 389 408 c 0,42,43
1019 -603 m 25,55,-1
 744 -875 l 1,56,-1
 628 -760 l 1,57,-1
 515 -873 l 1,58,-1
 332 -695 l 1,59,-1
 287 -740 l 2,60,61
 218 -807 218 -807 127 -807 c 0,62,63
 34 -807 34 -807 -32 -741 c 128,-1,64
 -98 -675 -98 -675 -98 -583 c 128,-1,65
 -98 -491 -98 -491 -32.5 -425.5 c 128,-1,66
 33 -360 33 -360 127 -360 c 0,67,68
 219 -360 219 -360 285 -426 c 2,69,-1
 332 -474 l 1,70,-1
 439 -369 l 1,71,-1
 550 -477 l 1,72,-1
 444 -583 l 1,73,-1
 515 -654 l 1,74,-1
 628 -541 l 1,75,-1
 744 -656 l 1,76,-1
 839 -562 l 1,77,-1
 839 -518 l 1,78,79
 816 -521 816 -521 793 -521 c 0,80,81
 701 -521 701 -521 635 -456 c 128,-1,82
 569 -391 569 -391 569 -299 c 0,83,84
 569 -208 569 -208 634 -142 c 128,-1,85
 699 -76 699 -76 793 -76 c 128,-1,86
 887 -76 887 -76 953 -142 c 128,-1,87
 1019 -208 1019 -208 1019 -299 c 2,88,-1
 1019 -603 l 25,55,-1
703 -298 m 128,-1,90
 703 -334 703 -334 730 -361 c 128,-1,91
 757 -388 757 -388 794 -388 c 128,-1,92
 831 -388 831 -388 857 -361 c 128,-1,93
 883 -334 883 -334 883 -298 c 128,-1,94
 883 -262 883 -262 857 -236 c 128,-1,95
 831 -210 831 -210 794 -210 c 128,-1,96
 757 -210 757 -210 730 -236 c 128,-1,89
 703 -262 703 -262 703 -298 c 128,-1,90
36 -583 m 128,-1,98
 36 -619 36 -619 63 -646 c 128,-1,99
 90 -673 90 -673 126 -673 c 128,-1,100
 162 -673 162 -673 189 -646.5 c 128,-1,101
 216 -620 216 -620 216 -583 c 128,-1,102
 216 -546 216 -546 189.5 -520 c 128,-1,103
 163 -494 163 -494 126 -494 c 128,-1,104
 89 -494 89 -494 62.5 -520.5 c 128,-1,97
 36 -547 36 -547 36 -583 c 128,-1,98
EndSplineSet
Substitution2: "Single Substitution lookup 9" uni0E10.descless
Substitution2: "Single Substitution lookup 8" uni0E10.descless
EndChar
StartChar: uni0E11
Encoding: 3601 3601 140
Width: 1835
VWidth: 2045
Flags: HW
HStem: 0 21G<641.5 886 1431 1651> 468 190<332 436> 834 184<317 433.95>
VStem: 52 243<698.05 860> 475 187<699.2 792.8> 641 220<264 482.848> 818 215<710.55 967.947> 1431 220<0 1012.4>
Fore
1109 854 m 128,-1,1
 1135 1008 1135 1008 1189 1133 c 144,-1,3
 1243 1258 1243 1258 1391 1259 c 0,4,5
 1528 1259 1528 1259 1590 1184.5 c 128,-1,6
 1652 1110 1652 1110 1651 966 c 10,7,-1
 1651 0 l 1,8,-1
 1431 0 l 1,9,-1
 1431 936 l 2,10,11
 1431 995 1431 995 1373 996 c 0,12,13
 1317 997 1317 997 1299 921 c 0,14,15
 1271 769 1271 769 1132.5 446 c 128,-1,16
 994 123 994 123 886 0 c 9,17,-1
 642 0 l 25,18,-1
 641 363 l 2,19,20
 641 455 641 455 729.5 592 c 128,-1,21
 818 729 818 729 818 850 c 0,22,23
 818 941 818 941 787.5 991 c 128,-1,24
 757 1041 757 1041 696 1076 c 1,25,-1
 541 1000 l 1,26,-1
 385 1073 l 1,27,28
 318 1060 318 1060 317 1018 c 1,29,30
 498 1018 498 1018 580 938.5 c 128,-1,31
 662 859 662 859 662 746 c 128,-1,32
 662 633 662 633 577 549.5 c 128,-1,33
 492 466 492 466 381 468 c 0,34,35
 276 470 276 470 163.5 568.5 c 128,-1,36
 51 667 51 667 52 860 c 24,37,38
 53 1030 53 1030 157 1136.5 c 128,-1,39
 261 1243 261 1243 378 1264 c 1,40,-1
 545 1176 l 1,41,-1
 706 1264 l 1,42,43
 795 1252 795 1252 911.5 1144 c 128,-1,44
 1028 1036 1028 1036 1033 894.5 c 128,-1,45
 1038 753 1038 753 949.5 610 c 128,-1,46
 861 467 861 467 861 345 c 2,47,-1
 861 264 l 17,48,0
 1083 700 1083 700 1109 854 c 128,-1,1
295 745.5 m 128,-1,50
 295 709 295 709 319.5 684.5 c 128,-1,51
 344 660 344 660 384 658 c 128,-1,52
 424 656 424 656 449.5 683 c 128,-1,53
 475 710 475 710 475 746 c 128,-1,54
 475 782 475 782 449 808 c 128,-1,55
 423 834 423 834 386.5 834 c 128,-1,56
 350 834 350 834 322.5 808 c 128,-1,49
 295 782 295 782 295 745.5 c 128,-1,50
EndSplineSet
EndChar
StartChar: uni0E12
Encoding: 3602 3602 141
Width: 1987
VWidth: 2045
Flags: HW
HStem: -10 186<1095.6 1194.4> 1234 20G<1597 1817>
VStem: 141 220<242 1031.12> 767 186<571.2 664.8> 871 183<217.9 312.8> 1081 221<530.901 1063.15> 1597 220<239.711 1254>
Fore
1054 266 m 0,0,1
 1054 229 1054 229 1081 202 c 0,2,3
 1107 176 1107 176 1145 176 c 128,-1,4
 1183 176 1183 176 1208 202 c 0,5,6
 1234 230 1234 230 1234 266 c 128,-1,7
 1234 302 1234 302 1208 328 c 128,-1,8
 1182 354 1182 354 1145 354 c 0,9,10
 1109 354 1109 354 1081 328 c 0,11,12
 1054 302 1054 302 1054 266 c 0,0,1
1081 779 m 2,13,14
 1081 998 1081 998 946 1036 c 1,15,-1
 724 917 l 1,16,-1
 506 1036 l 1,17,18
 361 1002 361 1002 361 782 c 2,19,-1
 361 242 l 9,20,-1
 536 392 l 1,21,22
 414 460 414 460 405 618 c 0,23,24
 399 728 399 728 486.5 814 c 128,-1,25
 574 900 574 900 679 899 c 0,26,27
 785 899 785 899 869 815 c 128,-1,28
 953 731 953 731 953 618 c 0,29,30
 953 498 953 498 873 414 c 8,31,32
 612 142 612 142 361 0 c 17,33,-1
 141 0 l 1,34,-1
 141 782 l 2,35,36
 141 974 141 974 220.5 1114 c 128,-1,37
 300 1254 300 1254 471 1286 c 1,38,-1
 734 1134 l 1,39,-1
 988 1284 l 1,40,41
 1161 1223 1161 1223 1231.5 1111 c 128,-1,42
 1302 999 1302 999 1302 781 c 2,43,-1
 1302 484 l 17,44,45
 1324 470 1324 470 1338 458 c 2,46,-1
 1597 240 l 25,47,-1
 1597 1254 l 1,48,-1
 1817 1254 l 1,49,-1
 1817 0 l 25,50,-1
 1597 0 l 17,51,-1
 1402 167 l 1,52,53
 1382 114 1382 114 1338 70 c 0,54,55
 1258 -10 1258 -10 1145 -10 c 128,-1,56
 1032 -10 1032 -10 951.5 70.5 c 128,-1,57
 871 151 871 151 871 264 c 128,-1,58
 871 377 871 377 952 458 c 0,59,60
 1008 514 1008 514 1081 531 c 0,61,-1
 1081 779 l 2,13,14
587 618 m 0,62,63
 587 581 587 581 614 554 c 0,64,65
 640 528 640 528 678 528 c 128,-1,66
 716 528 716 528 741 554 c 0,67,68
 767 582 767 582 767 618 c 128,-1,69
 767 654 767 654 741 680 c 128,-1,70
 715 706 715 706 678 706 c 0,71,72
 642 706 642 706 614 680 c 0,73,74
 587 654 587 654 587 618 c 0,62,63
EndSplineSet
EndChar
StartChar: uni0E13
Encoding: 3603 3603 142
Width: 2038
VWidth: 2045
Flags: HW
HStem: -10 184<448.6 547.4 1670.6 1769.4> 354 184<451.05 545.95> 701 220<445 556> 1062 222<491.3 875.719>
VStem: 224 183<218.05 312.95> 225 220<533 701> 587 185<219.2 312.8> 1046 221<239.711 899.507> 1562 221<530.901 1254> 1809 184<217.2 310.8>
Fore
1629 263.5 m 132,-1,1
 1629 227 1629 227 1655.5 200.5 c 132,-1,2
 1682 174 1682 174 1720 174 c 132,-1,3
 1758 174 1758 174 1783.5 201 c 132,-1,4
 1809 228 1809 228 1809 264 c 132,-1,5
 1809 300 1809 300 1783 326 c 132,-1,6
 1757 352 1757 352 1720.5 352 c 132,-1,7
 1684 352 1684 352 1656.5 326 c 132,-1,0
 1629 300 1629 300 1629 263.5 c 132,-1,1
407 265.5 m 128,-1,9
 407 229 407 229 433.5 202.5 c 128,-1,10
 460 176 460 176 498 176 c 128,-1,11
 536 176 536 176 561.5 203 c 128,-1,12
 587 230 587 230 587 266 c 128,-1,13
 587 302 587 302 561 328 c 128,-1,14
 535 354 535 354 498.5 354 c 128,-1,15
 462 354 462 354 434.5 328 c 128,-1,8
 407 302 407 302 407 265.5 c 128,-1,9
1783 531 m 21,16,17
 1856 514 1856 514 1912 458 c 4,18,19
 1993 377 1993 377 1993 264 c 132,-1,20
 1993 151 1993 151 1912.5 70.5 c 132,-1,21
 1832 -10 1832 -10 1719 -10 c 132,-1,22
 1606 -10 1606 -10 1526 70 c 4,23,24
 1482 114 1482 114 1462 167 c 5,25,-1
 1267 0 l 13,26,-1
 1047 0 l 25,27,-1
 1046 700 l 18,28,29
 1046 853 1046 853 940 956 c 0,30,31
 832 1062 832 1062 685 1062 c 0,32,33
 536 1062 536 1062 430 956 c 0,34,35
 414 940 414 940 400 921 c 0,36,-1
 556 921 l 1,37,-1
 556 701 l 1,38,-1
 445 701 l 1,39,-1
 445 533 l 17,40,41
 470 538 470 538 498 538 c 0,42,43
 611 538 611 538 691.5 457.5 c 128,-1,44
 772 377 772 377 772 264 c 128,-1,45
 772 151 772 151 691.5 70.5 c 128,-1,46
 611 -10 611 -10 498 -10 c 128,-1,47
 385 -10 385 -10 304 70 c 0,48,49
 224 151 224 151 224 264 c 2,50,-1
 225 701 l 1,51,-1
 105 701 l 1,52,53
 105 860 105 860 183 994 c 128,-1,54
 261 1128 261 1128 395 1206 c 128,-1,55
 529 1284 529 1284 687 1284 c 128,-1,56
 845 1284 845 1284 979 1206 c 128,-1,57
 1113 1128 1113 1128 1190 996 c 128,-1,59
 1267 864 1267 864 1267 702 c 2,60,-1
 1267 240 l 13,61,-1
 1526 458 l 6,62,63
 1540 470 1540 470 1562 484 c 5,64,-1
 1562 1254 l 5,65,-1
 1782 1254 l 13,66,-1
 1783 531 l 21,16,17
1832 -392 m 0,67,-1
EndSplineSet
EndChar
StartChar: uni0E14
Encoding: 3604 3604 143
Width: 1443
VWidth: 2045
Flags: HW
HStem: 0 21G<141 361 1082 1303> 1062 222<527.3 914.7>
VStem: 141 220<242 895.7> 807 186<551.2 644.8> 1082 221<0 896.3>
Fore
627 598 m 0,0,1
 627 561 627 561 654 534 c 0,2,3
 680 508 680 508 718 508 c 128,-1,4
 756 508 756 508 781 534 c 0,5,6
 807 562 807 562 807 598 c 128,-1,7
 807 634 807 634 781 660 c 128,-1,8
 755 686 755 686 718 686 c 0,9,10
 682 686 682 686 654 660 c 0,11,12
 627 634 627 634 627 598 c 0,0,1
361 0 m 17,13,-1
 141 0 l 1,14,-1
 141 702 l 2,15,16
 141 860 141 860 219 994 c 128,-1,17
 297 1128 297 1128 431 1206 c 128,-1,18
 565 1284 565 1284 723 1284 c 128,-1,19
 881 1284 881 1284 1015 1206 c 128,-1,20
 1149 1128 1149 1128 1226 995.5 c 128,-1,21
 1303 863 1303 863 1303 702 c 2,22,-1
 1303 0 l 1,23,-1
 1082 0 l 1,24,-1
 1082 700 l 2,25,26
 1082 851 1082 851 976 956.5 c 128,-1,27
 870 1062 870 1062 721 1062 c 128,-1,28
 572 1062 572 1062 466.5 956.5 c 128,-1,29
 361 851 361 851 361 702 c 2,30,-1
 361 242 l 9,31,-1
 576 372 l 1,32,33
 454 440 454 440 445 598 c 0,34,35
 439 710 439 710 529 796 c 128,-1,36
 619 882 619 882 719 882 c 0,37,38
 822 882 822 882 907.5 796.5 c 128,-1,39
 993 711 993 711 993 598 c 0,40,41
 993 470 993 470 913 394 c 8,42,43
 654 150 654 150 361 0 c 17,13,-1
EndSplineSet
EndChar
StartChar: uni0E15
Encoding: 3605 3605 144
Width: 1453
VWidth: 2045
Flags: HW
HStem: 0 21G<141 361 1082 1303>
VStem: 141 220<242 973.63> 807 186<551.2 644.8> 1082 221<0 1061.96>
Fore
361 242 m 9,0,-1
 576 372 l 1,1,2
 454 440 454 440 445 598 c 0,3,4
 439 708 439 708 526.5 794 c 128,-1,5
 614 880 614 880 719 879 c 0,6,7
 825 879 825 879 909 795 c 128,-1,8
 993 711 993 711 993 598 c 0,9,10
 993 470 993 470 913 394 c 8,11,12
 654 150 654 150 361 0 c 17,13,-1
 141 0 l 1,14,-1
 141 782 l 2,15,16
 141 974 141 974 220.5 1114 c 128,-1,17
 300 1254 300 1254 471 1286 c 1,18,-1
 734 1134 l 1,19,-1
 988 1284 l 1,20,21
 1161 1223 1161 1223 1232 1110 c 128,-1,22
 1303 997 1303 997 1303 782 c 2,23,-1
 1303 0 l 1,24,-1
 1082 0 l 1,25,-1
 1082 780 l 2,26,27
 1082 997 1082 997 946 1036 c 1,28,-1
 724 917 l 1,29,-1
 506 1036 l 1,30,31
 361 1002 361 1002 361 782 c 2,32,-1
 361 242 l 9,0,-1
627 598 m 0,33,34
 627 561 627 561 654 534 c 0,35,36
 680 508 680 508 718 508 c 128,-1,37
 756 508 756 508 781 534 c 0,38,39
 807 562 807 562 807 598 c 128,-1,40
 807 634 807 634 781 660 c 128,-1,41
 755 686 755 686 718 686 c 0,42,43
 682 686 682 686 654 660 c 0,44,45
 627 634 627 634 627 598 c 0,33,34
EndSplineSet
EndChar
StartChar: uni0E16
Encoding: 3606 3606 145
Width: 1412
VWidth: 2045
Flags: HW
HStem: -10 186<486.6 585.4> 354 184<489.2 584.1> 1062 222<486.3 873.7>
VStem: 262 183<217.9 312.8> 263 220<533 701> 625 185<219.2 312.8> 1041 221<0 896.3>
Fore
445 266 m 0,0,1
 445 229 445 229 472 202 c 0,2,3
 498 176 498 176 536 176 c 128,-1,4
 574 176 574 176 599 202 c 0,5,6
 625 230 625 230 625 266 c 128,-1,7
 625 302 625 302 599 328 c 128,-1,8
 573 354 573 354 536 354 c 0,9,10
 500 354 500 354 472 328 c 0,11,12
 445 302 445 302 445 266 c 0,0,1
263 701 m 1,13,-1
 100 701 l 1,14,15
 100 860 100 860 178 994 c 128,-1,16
 256 1128 256 1128 390 1206 c 128,-1,17
 524 1284 524 1284 682 1284 c 128,-1,18
 840 1284 840 1284 974 1206 c 128,-1,19
 1108 1128 1108 1128 1185 995.5 c 128,-1,20
 1262 863 1262 863 1262 702 c 2,21,-1
 1262 0 l 1,22,-1
 1041 0 l 1,23,-1
 1041 700 l 2,24,25
 1041 851 1041 851 935 956.5 c 128,-1,26
 829 1062 829 1062 680 1062 c 128,-1,27
 531 1062 531 1062 426 956 c 0,28,29
 409 940 409 940 395 921 c 0,30,-1
 591 921 l 1,31,-1
 591 701 l 1,32,-1
 483 701 l 1,33,-1
 483 533 l 17,34,35
 508 538 508 538 536 538 c 0,36,37
 649 538 649 538 729.5 457.5 c 128,-1,38
 810 377 810 377 810 264 c 128,-1,39
 810 151 810 151 729.5 70.5 c 128,-1,40
 649 -10 649 -10 536 -10 c 128,-1,41
 423 -10 423 -10 342.5 70.5 c 128,-1,42
 262 151 262 151 262 264 c 2,43,-1
 263 701 l 1,13,-1
EndSplineSet
EndChar
StartChar: uni0E17
Encoding: 3607 3607 146
Width: 1547
VWidth: 2045
Flags: HW
HStem: 0 21G<414 634 1171 1391> 726 186<310.6 409.4> 1090 184<313.05 407.95>
VStem: 86 183<954.05 1048.95> 414 220<462.8 730.986> 449 185<955.2 1048.8> 1171 220<0 1014.72>
Fore
634 463 m 29,0,-1
 929 1133 l 22,1,2
 983 1258 983 1258 1131 1259 c 4,3,4
 1267 1260 1267 1260 1329.5 1185 c 132,-1,5
 1392 1110 1392 1110 1391 966 c 14,6,-1
 1391 0 l 5,7,-1
 1171 0 l 5,8,-1
 1171 936 l 6,9,10
 1171 997 1171 997 1113 996 c 4,11,12
 1068 995 1068 995 1049 951 c 6,13,-1
 634 0 l 5,14,-1
 414 0 l 13,15,-1
 414 731 l 5,16,17
 388 726 388 726 360 726 c 4,18,19
 247 726 247 726 166.5 806.5 c 132,-1,20
 86 887 86 887 86 1000 c 132,-1,21
 86 1113 86 1113 166.5 1193.5 c 132,-1,22
 247 1274 247 1274 360 1274 c 132,-1,23
 473 1274 473 1274 553.5 1193.5 c 132,-1,24
 634 1113 634 1113 634 1000 c 6,25,-1
 634 463 l 29,0,-1
269 1001.5 m 132,-1,27
 269 965 269 965 295.5 938.5 c 132,-1,28
 322 912 322 912 360 912 c 132,-1,29
 398 912 398 912 423.5 939 c 132,-1,30
 449 966 449 966 449 1002 c 132,-1,31
 449 1038 449 1038 423 1064 c 132,-1,32
 397 1090 397 1090 360.5 1090 c 132,-1,33
 324 1090 324 1090 296.5 1064 c 132,-1,26
 269 1038 269 1038 269 1001.5 c 132,-1,27
EndSplineSet
EndChar
StartChar: uni0E18
Encoding: 3608 3608 147
Width: 1228
VWidth: 2045
Flags: HW
HStem: 0 220<191 302> 0 212<522 793> 732 186<522 737> 1064 220<479.9 836.1>
VStem: 302 220<220 732> 793 218<213 731.783>
Fore
522 732 m 25,0,-1
 522 212 l 9,1,-1
 793 213 l 25,2,-1
 791 648 l 2,3,4
 791 732 791 732 704 732 c 2,5,-1
 522 732 l 25,0,-1
302 732 m 25,6,-1
 106 732 l 1,7,8
 106 882 106 882 180 1009 c 128,-1,9
 254 1136 254 1136 381 1210 c 128,-1,10
 508 1284 508 1284 658 1284 c 128,-1,11
 808 1284 808 1284 935 1210 c 128,-1,12
 1062 1136 1062 1136 1136 1009 c 0,13,14
 1166 957 1166 957 1184 902 c 9,15,-1
 980 818 l 17,16,17
 958 901 958 901 892 966 c 0,18,19
 795 1064 795 1064 658 1064 c 128,-1,20
 521 1064 521 1064 424 966 c 0,21,22
 401 944 401 944 384 918 c 0,23,-1
 737 918 l 2,24,25
 850 918 850 918 930.5 837.5 c 128,-1,26
 1011 757 1011 757 1011 644 c 10,27,-1
 1011 0 l 17,28,-1
 191 0 l 1,29,-1
 191 220 l 1,30,-1
 302 220 l 1,31,-1
 302 732 l 25,6,-1
EndSplineSet
EndChar
StartChar: uni0E19
Encoding: 3609 3609 148
Width: 1603
VWidth: 2045
Flags: HW
HStem: -10 184<1157.6 1256.4> 726 186<310.6 409.4> 1090 184<313.05 407.95>
VStem: 86 183<954.05 1048.95> 414 220<229.711 730.986> 449 185<955.2 1048.8> 1080 220<530.901 1254> 1296 184<217.2 310.8>
Fore
1116 263.5 m 128,-1,1
 1116 227 1116 227 1142.5 200.5 c 128,-1,2
 1169 174 1169 174 1207 174 c 128,-1,3
 1245 174 1245 174 1270.5 201 c 128,-1,4
 1296 228 1296 228 1296 264 c 128,-1,5
 1296 300 1296 300 1270 326 c 128,-1,6
 1244 352 1244 352 1207.5 352 c 128,-1,7
 1171 352 1171 352 1143.5 326 c 128,-1,0
 1116 300 1116 300 1116 263.5 c 128,-1,1
1079 524 m 17,8,-1
 1080 1254 l 1,9,-1
 1300 1254 l 9,10,-1
 1300 531 l 17,11,12
 1352 505 1352 505 1400 458 c 0,13,14
 1480 377 1480 377 1480 264 c 128,-1,15
 1480 151 1480 151 1399.5 70.5 c 128,-1,16
 1319 -10 1319 -10 1206 -10 c 0,17,18
 1110 -10 1110 -10 1012 70 c 0,19,20
 955 118 955 118 926 212 c 1,21,-1
 634 0 l 5,22,-1
 414 0 l 13,23,-1
 414 731 l 5,24,25
 388 726 388 726 360 726 c 4,26,27
 247 726 247 726 166.5 806.5 c 132,-1,28
 86 887 86 887 86 1000 c 132,-1,29
 86 1113 86 1113 166.5 1193.5 c 132,-1,30
 247 1274 247 1274 360 1274 c 132,-1,31
 473 1274 473 1274 554 1194 c 4,32,33
 634 1112 634 1112 634 1000 c 6,34,-1
 634 230 l 29,35,-1
 1079 524 l 17,8,-1
269 1001.5 m 132,-1,37
 269 965 269 965 295.5 938.5 c 132,-1,38
 322 912 322 912 360 912 c 132,-1,39
 398 912 398 912 423.5 939 c 132,-1,40
 449 966 449 966 449 1002 c 132,-1,41
 449 1038 449 1038 423 1064 c 132,-1,42
 397 1090 397 1090 360.5 1090 c 132,-1,43
 324 1090 324 1090 296.5 1064 c 132,-1,36
 269 1038 269 1038 269 1001.5 c 132,-1,37
EndSplineSet
EndChar
StartChar: uni0E1A
Encoding: 3610 3610 149
Width: 1502
VWidth: 2045
Flags: HW
HStem: 0 214<303 414 634 1114> 726 186<310.6 409.4> 1090 184<313.05 407.95>
VStem: 86 183<954.05 1048.95> 414 220<214 730.986> 449 185<955.2 1048.8> 1114 219<213 1254>
Fore
1333 1254 m 25,0,-1
 1333 0 l 17,1,-1
 303 0 l 1,2,-1
 303 214 l 1,3,-1
 414 214 l 9,4,-1
 414 731 l 1,5,6
 388 726 388 726 360 726 c 0,7,8
 247 726 247 726 166.5 806.5 c 128,-1,9
 86 887 86 887 86 1000 c 128,-1,10
 86 1113 86 1113 166.5 1193.5 c 128,-1,11
 247 1274 247 1274 360 1274 c 128,-1,12
 473 1274 473 1274 554 1194 c 0,13,14
 634 1112 634 1112 634 1000 c 2,15,-1
 634 214 l 29,16,-1
 1114 213 l 29,17,-1
 1114 1254 l 25,18,-1
 1333 1254 l 25,0,-1
269 1001.5 m 128,-1,20
 269 965 269 965 295.5 938.5 c 128,-1,21
 322 912 322 912 360 912 c 128,-1,22
 398 912 398 912 423.5 939 c 128,-1,23
 449 966 449 966 449 1002 c 128,-1,24
 449 1038 449 1038 423 1064 c 128,-1,25
 397 1090 397 1090 360.5 1090 c 128,-1,26
 324 1090 324 1090 296.5 1064 c 128,-1,19
 269 1038 269 1038 269 1001.5 c 128,-1,20
EndSplineSet
EndChar
StartChar: uni0E1B
Encoding: 3611 3611 150
Width: 1508
VWidth: 2045
Flags: HW
HStem: 0 214<303 414 634 1114> 726 186<310.6 409.4> 1090 184<313.05 407.95>
VStem: 86 183<954.05 1048.95> 414 220<214 730.986> 449 185<955.2 1048.8> 1114 219<213 1834>
AnchorPoint: "AboveBase" 993.359 1375.4 basechar 0
Fore
1333 1834 m 25,0,-1
 1333 0 l 17,1,-1
 303 0 l 1,2,-1
 303 214 l 1,3,-1
 414 214 l 9,4,-1
 414 731 l 1,5,6
 388 726 388 726 360 726 c 0,7,8
 247 726 247 726 166.5 806.5 c 128,-1,9
 86 887 86 887 86 1000 c 128,-1,10
 86 1113 86 1113 166.5 1193.5 c 128,-1,11
 247 1274 247 1274 360 1274 c 128,-1,12
 473 1274 473 1274 554 1194 c 0,13,14
 634 1112 634 1112 634 1000 c 2,15,-1
 634 214 l 25,16,-1
 1114 213 l 25,17,-1
 1114 1834 l 25,18,-1
 1333 1834 l 25,0,-1
269 1001.5 m 128,-1,20
 269 965 269 965 295.5 938.5 c 128,-1,21
 322 912 322 912 360 912 c 128,-1,22
 398 912 398 912 423.5 939 c 128,-1,23
 449 966 449 966 449 1002 c 128,-1,24
 449 1038 449 1038 423 1064 c 128,-1,25
 397 1090 397 1090 360.5 1090 c 128,-1,26
 324 1090 324 1090 296.5 1064 c 128,-1,19
 269 1038 269 1038 269 1001.5 c 128,-1,20
EndSplineSet
EndChar
StartChar: uni0E1C
Encoding: 3612 3612 151
Width: 1393
VWidth: 2045
Flags: HW
HStem: 0 21G<1012 1232> 726 186<370.6 469.4> 1090 184<372.05 466.95>
VStem: 146 220<284 730.986> 146 185<955.2 1048.8> 511 183<954.05 1048.95> 1012 220<284 1254>
Fore
1012 0 m 17,0,-1
 689 376 l 1,1,-1
 366 0 l 5,2,-1
 146 -0 l 29,3,-1
 146 1000 l 6,4,5
 146 1112 146 1112 226 1194 c 4,6,7
 307 1274 307 1274 420 1274 c 132,-1,8
 533 1274 533 1274 613.5 1193.5 c 132,-1,9
 694 1113 694 1113 694 1000 c 132,-1,10
 694 887 694 887 613.5 806.5 c 132,-1,11
 533 726 533 726 420 726 c 4,12,13
 392 726 392 726 366 731 c 5,14,-1
 365 284 l 5,15,-1
 689 662 l 1,16,-1
 1012 284 l 1,17,-1
 1012 1254 l 1,18,-1
 1232 1254 l 1,19,-1
 1232 0 l 25,20,-1
 1012 0 l 17,0,-1
511 1001.5 m 132,-1,22
 511 1038 511 1038 483.5 1064 c 132,-1,23
 456 1090 456 1090 419.5 1090 c 132,-1,24
 383 1090 383 1090 357 1064 c 132,-1,25
 331 1038 331 1038 331 1002 c 132,-1,26
 331 966 331 966 356.5 939 c 132,-1,27
 382 912 382 912 420 912 c 132,-1,28
 458 912 458 912 484.5 938.5 c 132,-1,21
 511 965 511 965 511 1001.5 c 132,-1,22
EndSplineSet
EndChar
StartChar: uni0E1D
Encoding: 3613 3613 152
Width: 1393
VWidth: 2045
Flags: HW
HStem: 0 21G<1012 1232> 726 186<370.6 469.4> 1090 184<372.05 466.95>
VStem: 146 220<284 730.986> 146 185<955.2 1048.8> 511 183<954.05 1048.95> 1012 220<284 1834>
AnchorPoint: "AboveBase" 902.688 1327.48 basechar 0
Fore
1012 0 m 17,0,-1
 689 376 l 1,1,-1
 366 0 l 1,2,-1
 146 -0 l 25,3,-1
 146 1000 l 2,4,5
 146 1112 146 1112 226 1194 c 0,6,7
 307 1274 307 1274 420 1274 c 128,-1,8
 533 1274 533 1274 613.5 1193.5 c 128,-1,9
 694 1113 694 1113 694 1000 c 128,-1,10
 694 887 694 887 613.5 806.5 c 128,-1,11
 533 726 533 726 420 726 c 0,12,13
 392 726 392 726 366 731 c 1,14,-1
 365 284 l 1,15,-1
 689 662 l 1,16,-1
 1012 284 l 1,17,-1
 1012 1834 l 1,18,-1
 1232 1834 l 1,19,-1
 1232 0 l 25,20,-1
 1012 0 l 17,0,-1
511 1001.5 m 128,-1,22
 511 1038 511 1038 483.5 1064 c 128,-1,23
 456 1090 456 1090 419.5 1090 c 128,-1,24
 383 1090 383 1090 357 1064 c 128,-1,25
 331 1038 331 1038 331 1002 c 128,-1,26
 331 966 331 966 356.5 939 c 128,-1,27
 382 912 382 912 420 912 c 128,-1,28
 458 912 458 912 484.5 938.5 c 128,-1,21
 511 965 511 965 511 1001.5 c 128,-1,22
EndSplineSet
EndChar
StartChar: uni0E1E
Encoding: 3614 3614 153
Width: 1650
VWidth: 2045
Flags: HW
HStem: 0 21G<414 633.998 1250 1470> 726 186<310.6 409.4> 1090 184<313.05 407.95>
VStem: 86 183<954.05 1048.95> 414 220<511.507 730.986> 449 185<955.2 1048.8> 1250 220<494 1254>
Fore
634 0 m 5,0,-1
 414 0 l 13,1,-1
 414 731 l 5,2,3
 388 726 388 726 360 726 c 4,4,5
 247 726 247 726 166.5 806.5 c 132,-1,6
 86 887 86 887 86 1000 c 132,-1,7
 86 1113 86 1113 166.5 1193.5 c 132,-1,8
 247 1274 247 1274 360 1274 c 132,-1,9
 473 1274 473 1274 553.5 1193.5 c 132,-1,10
 634 1113 634 1113 634 1000 c 6,11,-1
 634 493 l 21,12,-1
 884 1254 l 5,13,-1
 1000 1254 l 5,14,-1
 1250 494 l 5,15,-1
 1250 1254 l 5,16,-1
 1470 1254 l 5,17,-1
 1470 0 l 5,18,-1
 1250 0 l 5,19,-1
 943 843 l 5,20,-1
 634 0 l 5,0,-1
269 1001.5 m 132,-1,22
 269 965 269 965 295.5 938.5 c 132,-1,23
 322 912 322 912 360 912 c 132,-1,24
 398 912 398 912 423.5 939 c 132,-1,25
 449 966 449 966 449 1002 c 132,-1,26
 449 1038 449 1038 423 1064 c 132,-1,27
 397 1090 397 1090 360.5 1090 c 132,-1,28
 324 1090 324 1090 296.5 1064 c 132,-1,21
 269 1038 269 1038 269 1001.5 c 132,-1,22
EndSplineSet
EndChar
StartChar: uni0E1F
Encoding: 3615 3615 154
Width: 1652
VWidth: 2045
Flags: HW
HStem: 0 21G<414 633.998 1250 1470> 726 186<310.6 409.4> 1090 184<313.05 407.95>
VStem: 86 183<954.05 1048.95> 414 220<511.507 730.986> 449 185<955.2 1048.8> 1250 220<494 1834>
AnchorPoint: "AboveBase" 1155.71 1397.47 basechar 0
Fore
634 0 m 1,0,-1
 414 0 l 9,1,-1
 414 731 l 1,2,3
 388 726 388 726 360 726 c 0,4,5
 247 726 247 726 166.5 806.5 c 128,-1,6
 86 887 86 887 86 1000 c 128,-1,7
 86 1113 86 1113 166.5 1193.5 c 128,-1,8
 247 1274 247 1274 360 1274 c 128,-1,9
 473 1274 473 1274 553.5 1193.5 c 128,-1,10
 634 1113 634 1113 634 1000 c 2,11,-1
 634 493 l 17,12,-1
 884 1254 l 1,13,-1
 1000 1254 l 1,14,-1
 1250 494 l 1,15,-1
 1250 1834 l 1,16,-1
 1470 1834 l 1,17,-1
 1470 0 l 1,18,-1
 1250 0 l 1,19,-1
 943 843 l 1,20,-1
 634 0 l 1,0,-1
269 1001.5 m 128,-1,22
 269 965 269 965 295.5 938.5 c 128,-1,23
 322 912 322 912 360 912 c 128,-1,24
 398 912 398 912 423.5 939 c 128,-1,25
 449 966 449 966 449 1002 c 128,-1,26
 449 1038 449 1038 423 1064 c 128,-1,27
 397 1090 397 1090 360.5 1090 c 128,-1,28
 324 1090 324 1090 296.5 1064 c 128,-1,21
 269 1038 269 1038 269 1001.5 c 128,-1,22
EndSplineSet
EndChar
StartChar: uni0E20
Encoding: 3616 3616 155
Width: 1501
VWidth: 2045
Flags: HW
HStem: -10 186<267.598 366.398> 354 184<268.898 363.798> 701 220<590 701> 1062 222<546.3 933.7>
VStem: 43 185<219.195 312.795> 370 220<532.995 700.995> 408 183<217.895 312.795> 1101 219<0 850.986>
Fore
408 266 m 4,0,1
 408 302 408 302 381 328 c 4,2,3
 353 354 353 354 317 354 c 4,4,5
 280 354 280 354 254 328 c 132,-1,6
 228 302 228 302 228 266 c 132,-1,7
 228 230 228 230 254 202 c 4,8,9
 279 176 279 176 317 176 c 132,-1,10
 355 176 355 176 381 202 c 4,11,12
 408 229 408 229 408 266 c 4,0,1
1320 0 m 17,13,-1
 1101 0 l 9,14,-1
 1101 700 l 2,15,16
 1101 851 1101 851 995 956.5 c 128,-1,17
 889 1062 889 1062 740 1062 c 128,-1,18
 591 1062 591 1062 486 956 c 0,19,20
 469 940 469 940 455 921 c 0,21,-1
 701 921 l 1,22,-1
 701 701 l 1,23,-1
 590 701 l 5,24,-1
 591 264 l 6,25,26
 591 151 591 151 510 70 c 4,27,28
 430 -10 430 -10 317 -10 c 132,-1,29
 204 -10 204 -10 123.5 70.5 c 132,-1,30
 43 151 43 151 43 264 c 132,-1,31
 43 377 43 377 123.5 457.5 c 132,-1,32
 204 538 204 538 317 538 c 4,33,34
 345 538 345 538 370 533 c 13,35,-1
 370 701 l 5,36,-1
 160 701 l 1,37,38
 160 860 160 860 238 994 c 128,-1,39
 316 1128 316 1128 450 1206 c 128,-1,40
 584 1284 584 1284 742 1284 c 128,-1,41
 900 1284 900 1284 1034 1206 c 128,-1,42
 1168 1128 1168 1128 1245 996 c 0,43,44
 1322 863 1322 863 1322 702 c 2,45,-1
 1320 0 l 17,13,-1
EndSplineSet
EndChar
StartChar: uni0E21
Encoding: 3617 3617 156
Width: 1422
VWidth: 2045
Flags: HW
HStem: 0 186<310.6 409.4> 364 184<313.2 408.1> 726 186<310.6 409.4> 1090 184<313.05 407.95>
VStem: 86 183<227.9 322.8 954.05 1048.95> 415 219<543.064 730.986> 449 185<955.2 1048.8> 1036 220<212.825 1254>
Fore
1036 213 m 25,0,-1
 1036 1254 l 1,1,-1
 1256 1254 l 1,2,-1
 1256 0 l 1,3,-1
 1036 0 l 1,4,-1
 631 228 l 17,5,6
 617 144 617 144 554 80 c 0,7,8
 473 0 473 0 360 0 c 128,-1,9
 247 0 247 0 166.5 80.5 c 128,-1,10
 86 161 86 161 86 274 c 128,-1,11
 86 387 86 387 166.5 467.5 c 128,-1,12
 247 548 247 548 360 548 c 0,13,14
 389 548 389 548 415 543 c 0,15,-1
 414 731 l 1,16,17
 388 726 388 726 360 726 c 0,18,19
 247 726 247 726 166.5 806.5 c 128,-1,20
 86 887 86 887 86 1000 c 128,-1,21
 86 1113 86 1113 166.5 1193.5 c 128,-1,22
 247 1274 247 1274 360 1274 c 128,-1,23
 473 1274 473 1274 553.5 1193.5 c 128,-1,24
 634 1113 634 1113 634 1000 c 2,25,-1
 634 439 l 17,26,-1
 1036 213 l 25,0,-1
269 276 m 0,27,28
 269 239 269 239 296 212 c 0,29,30
 322 186 322 186 360 186 c 128,-1,31
 398 186 398 186 423 212 c 0,32,33
 449 240 449 240 449 276 c 128,-1,34
 449 312 449 312 423 338 c 128,-1,35
 397 364 397 364 360 364 c 0,36,37
 324 364 324 364 296 338 c 0,38,39
 269 312 269 312 269 276 c 0,27,28
269 1001.5 m 128,-1,41
 269 965 269 965 295.5 938.5 c 128,-1,42
 322 912 322 912 360 912 c 128,-1,43
 398 912 398 912 423.5 939 c 128,-1,44
 449 966 449 966 449 1002 c 128,-1,45
 449 1038 449 1038 423 1064 c 128,-1,46
 397 1090 397 1090 360.5 1090 c 128,-1,47
 324 1090 324 1090 296.5 1064 c 128,-1,40
 269 1038 269 1038 269 1001.5 c 128,-1,41
EndSplineSet
EndChar
StartChar: uni0E22
Encoding: 3618 3618 157
Width: 1331
VWidth: 2045
Flags: HW
HStem: 0 218<448 937> 420 218<507.986 722> 716 186<474.1 572.9> 1080 184<476.7 571.6>
VStem: 228 220<218 379.65> 612 185<945.2 1038.8> 937 220<218 1254>
Fore
358 767 m 1,0,1
 358 730 358 730 394.5 684 c 128,-1,2
 431 638 431 638 519 638 c 2,3,-1
 722 638 l 1,4,-1
 722 420 l 1,5,-1
 527 420 l 2,6,7
 510 420 510 420 479 394 c 128,-1,8
 448 368 448 368 448 327 c 2,9,-1
 448 218 l 1,10,-1
 937 218 l 1,11,-1
 937 1254 l 1,12,-1
 1157 1254 l 1,13,-1
 1157 0 l 1,14,-1
 228 0 l 1,15,-1
 228 365 l 2,16,17
 228 460 228 460 290 517 c 1,18,19
 213 588 213 588 168 676.5 c 128,-1,20
 123 765 123 765 123.5 876.5 c 128,-1,21
 124 988 124 988 185 1085 c 128,-1,22
 246 1182 246 1182 327.5 1223 c 136,-1,23
 409 1264 409 1264 524 1264 c 0,24,25
 636 1264 636 1264 717 1183.5 c 128,-1,26
 798 1103 798 1103 797.5 990 c 128,-1,27
 797 877 797 877 716.5 796.5 c 128,-1,28
 636 716 636 716 524 716 c 128,-1,30
 412 716 412 716 358 767 c 1,0,1
432 992 m 0,31,32
 432 955 432 955 460 928 c 0,33,34
 486 902 486 902 524 902 c 128,-1,35
 562 902 562 902 586 928 c 0,36,37
 612 956 612 956 612 992 c 128,-1,38
 612 1028 612 1028 586 1054 c 128,-1,39
 560 1080 560 1080 524 1080 c 128,-1,41
 488 1080 488 1080 460 1054 c 128,-1,43
 432 1028 432 1028 432 992 c 0,31,32
EndSplineSet
EndChar
StartChar: uni0E23
Encoding: 3619 3619 158
Width: 1172
VWidth: 2045
Flags: HW
HStem: -10 186<607.598 706.398> 354 184<608.898 703.798> 732 186<383.768 737.138> 1064 220<479.9 836.1>
VStem: 383 185<219.195 312.795> 711 220<533 756.913> 748 183<217.895 312.795>
Fore
748 266 m 4,0,1
 748 302 748 302 721 328 c 4,2,3
 693 354 693 354 657 354 c 4,4,5
 620 354 620 354 594 328 c 132,-1,6
 568 302 568 302 568 266 c 132,-1,7
 568 230 568 230 594 202 c 4,8,9
 619 176 619 176 657 176 c 132,-1,10
 695 176 695 176 721 202 c 4,11,12
 748 229 748 229 748 266 c 4,0,1
958 875 m 21,13,14
 935 924 935 924 892 966 c 4,15,16
 795 1064 795 1064 658 1064 c 132,-1,17
 521 1064 521 1064 424 966 c 4,18,19
 401 944 401 944 384 918 c 4,20,-1
 657 918 l 6,21,22
 770 918 770 918 850.5 837.5 c 132,-1,23
 931 757 931 757 931 644 c 14,24,-1
 931 264 l 22,25,26
 931 151 931 151 850.5 70.5 c 132,-1,27
 770 -10 770 -10 657 -10 c 132,-1,28
 544 -10 544 -10 463.5 70.5 c 132,-1,29
 383 151 383 151 383 264 c 132,-1,30
 383 377 383 377 463.5 457.5 c 132,-1,31
 544 538 544 538 657 538 c 4,32,33
 685 538 685 538 711 533 c 13,34,-1
 711 648 l 6,35,36
 711 732 711 732 624 732 c 6,37,-1
 106 732 l 5,38,39
 106 882 106 882 180 1009 c 132,-1,40
 254 1136 254 1136 381 1210 c 132,-1,41
 508 1284 508 1284 658 1284 c 132,-1,42
 808 1284 808 1284 935 1210 c 132,-1,43
 1062 1136 1062 1136 1136 1009 c 13,44,-1
 958 875 l 21,13,14
EndSplineSet
EndChar
StartChar: uni0E24
Encoding: 3620 3620 159
Width: 1435
VWidth: 2045
Flags: HW
HStem: -10 186<486.6 585.4> 354 184<489.2 584.1> 1062 222<486.3 873.7>
VStem: 262 183<217.9 312.8> 263 220<533 701> 625 185<219.2 312.8> 1041 221<-560 896.3>
Fore
445 266 m 0,0,1
 445 229 445 229 472 202 c 0,2,3
 498 176 498 176 536 176 c 128,-1,4
 574 176 574 176 599 202 c 0,5,6
 625 230 625 230 625 266 c 128,-1,7
 625 302 625 302 599 328 c 128,-1,8
 573 354 573 354 536 354 c 0,9,10
 500 354 500 354 472 328 c 0,11,12
 445 302 445 302 445 266 c 0,0,1
263 701 m 1,13,-1
 100 701 l 1,14,15
 100 860 100 860 178 994 c 128,-1,16
 256 1128 256 1128 390 1206 c 128,-1,17
 524 1284 524 1284 682 1284 c 128,-1,18
 840 1284 840 1284 974 1206 c 128,-1,19
 1108 1128 1108 1128 1185 995.5 c 128,-1,20
 1262 863 1262 863 1262 702 c 2,21,-1
 1262 -560 l 1,22,-1
 1041 -560 l 1,23,-1
 1041 700 l 2,24,25
 1041 851 1041 851 935 956.5 c 128,-1,26
 829 1062 829 1062 680 1062 c 128,-1,27
 531 1062 531 1062 426 956 c 0,28,29
 409 940 409 940 395 921 c 0,30,-1
 591 921 l 1,31,-1
 591 701 l 1,32,-1
 483 701 l 1,33,-1
 483 533 l 17,34,35
 508 538 508 538 536 538 c 0,36,37
 649 538 649 538 729.5 457.5 c 128,-1,38
 810 377 810 377 810 264 c 128,-1,39
 810 151 810 151 729.5 70.5 c 128,-1,40
 649 -10 649 -10 536 -10 c 128,-1,41
 423 -10 423 -10 342.5 70.5 c 128,-1,42
 262 151 262 151 262 264 c 2,43,-1
 263 701 l 1,13,-1
EndSplineSet
EndChar
StartChar: uni0E25
Encoding: 3621 3621 160
Width: 1477
VWidth: 2045
Flags: HW
HStem: -0 186<508.6 607.4> 652 222<571.1 906.9> 1062 222<527.3 914.7>
VStem: 141 220<702 895.7> 284 183<227.899 322.799> 647 185<229.199 322.799> 1082 221<0 492.12>
Fore
467 276 m 0,0,1
 467 239 467 239 494 212 c 0,2,3
 520 186 520 186 558 186 c 128,-1,4
 596 186 596 186 621 212 c 0,5,6
 647 240 647 240 647 276 c 128,-1,7
 647 312 647 312 621 338 c 128,-1,8
 595 364 595 364 558 364 c 0,9,10
 522 364 522 364 494 338 c 0,11,12
 467 312 467 312 467 276 c 0,0,1
1082 291 m 18,13,14
 1082 446 1082 446 973 548.5 c 128,-1,15
 864 651 864 651 721 652 c 0,16,17
 580 652 580 652 558 548 c 1,18,19
 671 548 671 548 751.5 467.5 c 128,-1,20
 832 387 832 387 832 274 c 128,-1,21
 832 161 832 161 751.5 80.5 c 128,-1,22
 671 -0 671 -0 558 -0 c 128,-1,23
 445 -0 445 -0 364.5 80.5 c 128,-1,24
 284 161 284 161 284 274 c 2,25,-1
 284 332 l 2,26,27
 284 542 284 542 354.5 655.5 c 128,-1,28
 425 769 425 769 515 821.5 c 128,-1,29
 605 874 605 874 718 874 c 0,30,31
 881 874 881 874 1015 796 c 0,32,33
 1049 776 1049 776 1079 752 c 1,34,35
 1063 870 1063 870 976 956 c 0,36,37
 870 1062 870 1062 721 1062 c 128,-1,38
 572 1062 572 1062 466.5 956.5 c 128,-1,39
 361 851 361 851 361 702 c 9,40,-1
 141 702 l 17,41,42
 141 860 141 860 219 994 c 128,-1,43
 297 1128 297 1128 431 1206 c 128,-1,44
 565 1284 565 1284 723 1284 c 128,-1,45
 881 1284 881 1284 1015 1206 c 128,-1,46
 1149 1128 1149 1128 1226 995.5 c 128,-1,47
 1303 863 1303 863 1303 702 c 2,48,-1
 1303 0 l 1,49,-1
 1082 0 l 9,50,-1
 1082 291 l 18,13,14
EndSplineSet
EndChar
StartChar: uni0E26
Encoding: 3622 3622 161
Width: 1504
VWidth: 2045
Flags: HW
HStem: -10 186<267.598 366.398> 354 184<268.898 363.798> 701 220<590 701> 1062 222<546.3 933.7>
VStem: 43 185<219.195 312.795> 370 220<532.995 700.995> 408 183<217.895 312.795> 1101 219<-560 850.986>
Fore
408 266 m 0,0,1
 408 302 408 302 381 328 c 0,2,3
 353 354 353 354 317 354 c 0,4,5
 280 354 280 354 254 328 c 128,-1,6
 228 302 228 302 228 266 c 128,-1,7
 228 230 228 230 254 202 c 0,8,9
 279 176 279 176 317 176 c 128,-1,10
 355 176 355 176 381 202 c 0,11,12
 408 229 408 229 408 266 c 0,0,1
1320 -560 m 17,13,-1
 1101 -560 l 9,14,-1
 1101 700 l 2,15,16
 1101 851 1101 851 995 956.5 c 128,-1,17
 889 1062 889 1062 740 1062 c 128,-1,18
 591 1062 591 1062 486 956 c 0,19,20
 469 940 469 940 455 921 c 0,21,-1
 701 921 l 1,22,-1
 701 701 l 1,23,-1
 590 701 l 1,24,-1
 591 264 l 2,25,26
 591 151 591 151 510 70 c 0,27,28
 430 -10 430 -10 317 -10 c 128,-1,29
 204 -10 204 -10 123.5 70.5 c 128,-1,30
 43 151 43 151 43 264 c 128,-1,31
 43 377 43 377 123.5 457.5 c 128,-1,32
 204 538 204 538 317 538 c 0,33,34
 345 538 345 538 370 533 c 9,35,-1
 370 701 l 1,36,-1
 160 701 l 1,37,38
 160 860 160 860 238 994 c 128,-1,39
 316 1128 316 1128 450 1206 c 128,-1,40
 584 1284 584 1284 742 1284 c 128,-1,41
 900 1284 900 1284 1034 1206 c 128,-1,42
 1168 1128 1168 1128 1245 996 c 0,43,44
 1322 863 1322 863 1322 702 c 2,45,-1
 1320 -560 l 17,13,-1
EndSplineSet
EndChar
StartChar: uni0E27
Encoding: 3623 3623 162
Width: 1258
VWidth: 2045
Flags: HW
HStem: -10 186<757.598 856.398> 354 184<758.898 853.798> 1064 220<435.8 732.2>
VStem: 88 220<788 936.2> 533 185<219.195 312.795> 860 221<532.995 936.199> 898 183<217.895 312.795>
Fore
88 788 m 21,0,1
 88 993 88 993 233.5 1138.5 c 132,-1,2
 379 1284 379 1284 584 1284 c 132,-1,3
 789 1284 789 1284 935 1134.5 c 132,-1,4
 1081 985 1081 985 1081 788 c 6,5,-1
 1081 264 l 6,6,7
 1081 158 1081 158 1000 70 c 0,8,9
 927 -10 927 -10 807 -10 c 0,10,11
 694 -10 694 -10 613.5 70.5 c 128,-1,12
 533 151 533 151 533 264 c 128,-1,13
 533 377 533 377 613.5 457.5 c 128,-1,14
 694 538 694 538 807 538 c 0,15,16
 835 538 835 538 860 533 c 5,17,-1
 860 788 l 6,18,19
 860 902 860 902 779 983 c 132,-1,20
 698 1064 698 1064 584 1064 c 132,-1,21
 470 1064 470 1064 389 983 c 132,-1,22
 308 902 308 902 308 788 c 13,23,-1
 88 788 l 21,0,1
898 266 m 0,24,25
 898 302 898 302 871 328 c 0,26,27
 843 354 843 354 807 354 c 0,28,29
 770 354 770 354 744 328 c 128,-1,30
 718 302 718 302 718 266 c 128,-1,31
 718 230 718 230 744 202 c 0,32,33
 769 176 769 176 807 176 c 128,-1,34
 845 176 845 176 871 202 c 0,35,36
 898 229 898 229 898 266 c 0,24,25
EndSplineSet
EndChar
StartChar: uni0E28
Encoding: 3624 3624 163
Width: 1502
VWidth: 2045
Flags: HW
HStem: 0 21G<141 361 1082 1303> 330 186<670.6 769.4> 694 184<673.2 768.1> 1062 222<527.3 913.586>
VStem: 141 220<452 895.7> 809 185<559.2 652.8> 1082 221<0 780.569> 1160 220<1184.1 1318>
Back
0 1200 m 4,0,1
 182 1200 182 1200 311 1329 c 4,2,3
 440 1458 440 1458 440 1640 c 5,4,-1
 660 1640 l 5,5,6
 660 1461 660 1461 571.5 1309 c 4,7,8
 483 1157 483 1157 331 1068.5 c 4,9,10
 179 980 179 980 0 980 c 4
EndSplineSet
Fore
974 958 m 1,0,1
 869 1062 869 1062 721 1062 c 0,2,3
 572 1062 572 1062 466.5 956.5 c 128,-1,4
 361 851 361 851 361 702 c 2,5,-1
 361 452 l 1,6,-1
 474 726 l 2,7,8
 487 758 487 758 526 798 c 0,9,10
 607 878 607 878 720 878 c 0,11,12
 863 878 863 878 974 958 c 1,0,1
1119 1129 m 1,13,14
 1160 1215 1160 1215 1160 1318 c 1,15,-1
 1380 1318 l 1,16,17
 1380 1114 1380 1114 1257 934 c 1,18,19
 1303 827 1303 827 1303 702 c 2,20,-1
 1303 0 l 1,21,-1
 1082 0 l 1,22,-1
 1082 700 l 2,23,24
 1082 733 1082 733 1077 763 c 1,25,26
 1048 735 1048 735 974 708 c 1,27,28
 994 660 994 660 994 604 c 0,29,30
 994 491 994 491 913.5 410.5 c 128,-1,31
 833 330 833 330 720 330 c 128,-1,32
 607 330 607 330 526 410 c 9,33,-1
 361 0 l 17,34,-1
 141 0 l 1,35,-1
 141 702 l 2,36,37
 141 860 141 860 219 994 c 128,-1,38
 297 1128 297 1128 431 1206 c 128,-1,39
 565 1284 565 1284 723 1284 c 0,40,41
 878 1284 878 1284 1015 1206 c 0,42,43
 1073 1173 1073 1173 1119 1129 c 1,13,14
629 606 m 0,44,45
 629 569 629 569 656 542 c 0,46,47
 682 516 682 516 720 516 c 128,-1,48
 758 516 758 516 783 542 c 0,49,50
 809 570 809 570 809 606 c 128,-1,51
 809 642 809 642 783 668 c 128,-1,52
 757 694 757 694 720 694 c 0,53,54
 684 694 684 694 656 668 c 0,55,56
 629 642 629 642 629 606 c 0,44,45
EndSplineSet
EndChar
StartChar: uni0E29
Encoding: 3625 3625 164
Width: 1533
VWidth: 2045
Flags: HW
HStem: 0 214<303 414 634 1114> 386 163<973 1085.14> 726 186<310.6 409.4> 756 134<797.9 892.8> 1090 184<313.05 407.95>
VStem: 86 183<954.05 1048.95> 414 220<214 591.009> 449 185<955.2 1048.8> 1114 219<213 402 809 1254>
Fore
1333 511 m 9,0,-1
 1333 0 l 1,1,-1
 303 0 l 1,2,-1
 303 214 l 1,3,-1
 414 214 l 9,4,-1
 414 731 l 1,5,6
 388 726 388 726 360 726 c 0,7,8
 247 726 247 726 166.5 806.5 c 128,-1,9
 86 887 86 887 86 1000 c 128,-1,10
 86 1113 86 1113 166.5 1193.5 c 128,-1,11
 247 1274 247 1274 360 1274 c 128,-1,12
 473 1274 473 1274 554 1194 c 0,13,14
 634 1112 634 1112 634 1000 c 2,15,-1
 634 735 l 17,16,17
 650 788 650 788 689 826 c 0,18,19
 753 890 753 890 847 890 c 0,20,21
 940 890 940 890 1008.5 821.5 c 128,-1,22
 1077 753 1077 753 1071 669 c 0,23,24
 1065 586 1065 586 1013 549 c 1,25,26
 1064 547 1064 547 1113 564 c 9,27,-1
 1114 1254 l 9,28,-1
 1333 1254 l 17,29,-1
 1333 809 l 17,30,-1
 1476 714 l 1,31,32
 1415 585 1415 585 1333 511 c 9,0,-1
1113 402 m 17,33,34
 1045 386 1045 386 973 386 c 0,35,36
 790 387 790 387 706 474 c 0,37,38
 653 530 653 530 634 591 c 9,39,-1
 634 214 l 9,40,-1
 1114 213 l 17,41,-1
 1113 402 l 17,33,34
756 667 m 128,-1,43
 756 631 756 631 782.5 604.5 c 128,-1,44
 809 578 809 578 846 578 c 0,45,46
 882 578 882 578 909.5 604.5 c 128,-1,47
 937 631 937 631 937 667 c 128,-1,48
 937 703 937 703 909.5 729.5 c 128,-1,49
 882 756 882 756 846 756 c 0,50,51
 809 756 809 756 782.5 729.5 c 128,-1,42
 756 703 756 703 756 667 c 128,-1,43
269 1001.5 m 128,-1,53
 269 965 269 965 295.5 938.5 c 128,-1,54
 322 912 322 912 360 912 c 128,-1,55
 398 912 398 912 423.5 939 c 128,-1,56
 449 966 449 966 449 1002 c 128,-1,57
 449 1038 449 1038 423 1064 c 128,-1,58
 397 1090 397 1090 360.5 1090 c 128,-1,59
 324 1090 324 1090 296.5 1064 c 128,-1,52
 269 1038 269 1038 269 1001.5 c 128,-1,53
EndSplineSet
EndChar
StartChar: uni0E2A
Encoding: 3626 3626 165
Width: 1484
VWidth: 2045
Flags: HW
HStem: -0 186<508.6 607.4> 652 222<571.1 906.9> 1062 222<527.3 914.7>
VStem: 141 220<702 895.7> 284 183<227.899 322.799> 647 185<229.199 322.799> 1082 221<0 445.687> 1158 220<1183.7 1314>
Fore
1001 791 m 25,0,-1
 1079 742 l 17,1,-1
 1078 816 l 25,2,-1
 1001 791 l 25,0,-1
467 276 m 0,3,4
 467 239 467 239 494 212 c 0,5,6
 520 186 520 186 558 186 c 128,-1,7
 596 186 596 186 621 212 c 0,8,9
 647 240 647 240 647 276 c 128,-1,10
 647 312 647 312 621 338 c 128,-1,11
 595 364 595 364 558 364 c 0,12,13
 522 364 522 364 494 338 c 0,14,15
 467 312 467 312 467 276 c 0,3,4
1258 933 m 1,16,17
 1303 826 1303 826 1303 702 c 2,18,-1
 1303 0 l 1,19,-1
 1082 0 l 9,20,-1
 1082 291 l 18,21,22
 1082 446 1082 446 973 548.5 c 128,-1,23
 864 651 864 651 721 652 c 0,24,25
 580 653 580 653 558 548 c 1,26,27
 671 548 671 548 751.5 467.5 c 128,-1,28
 832 387 832 387 832 274 c 128,-1,29
 832 161 832 161 751.5 80.5 c 128,-1,30
 671 -0 671 -0 558 -0 c 128,-1,31
 445 -0 445 -0 364.5 80.5 c 128,-1,32
 284 161 284 161 284 274 c 2,33,-1
 284 332 l 2,34,35
 284 542 284 542 354.5 655.5 c 128,-1,36
 425 769 425 769 515 821.5 c 128,-1,37
 605 874 605 874 718 874 c 0,38,39
 864 874 864 874 976 957 c 1,40,41
 870 1062 870 1062 721 1062 c 128,-1,42
 572 1062 572 1062 466.5 956.5 c 128,-1,43
 361 851 361 851 361 702 c 9,44,-1
 141 702 l 17,45,46
 141 860 141 860 219 994 c 128,-1,47
 297 1128 297 1128 431 1206 c 128,-1,48
 565 1284 565 1284 723 1284 c 128,-1,49
 881 1284 881 1284 1015 1206 c 0,50,51
 1072 1173 1072 1173 1119 1130 c 1,52,53
 1158 1214 1158 1214 1158 1314 c 1,54,-1
 1378 1314 l 1,55,56
 1377 1105 1377 1105 1258 933 c 1,16,17
718 654 m 0,57,-1
EndSplineSet
EndChar
StartChar: uni0E2B
Encoding: 3627 3627 166
Width: 1581
VWidth: 2045
Flags: HW
HStem: 0 21G<414 634 1171 1391> 726 186<310.6 409.4> 1090 184<313.05 407.95 1117.2 1212.1>
VStem: 86 183<954.05 1048.95> 414 220<342.8 730.986> 449 185<955.2 1048.8> 890 183<953.9 1048.8> 1171 220<0 634.898> 1253 185<955.2 1048.8>
Fore
1340 790 m 1,0,1
 1392 716 1392 716 1391 586 c 10,2,-1
 1391 0 l 1,3,-1
 1171 0 l 1,4,-1
 1171 556 l 2,5,6
 1171 617 1171 617 1103 616 c 0,7,8
 1060 615 1060 615 1029 571 c 2,9,-1
 634 0 l 1,10,-1
 414 0 l 9,11,-1
 414 731 l 1,12,13
 388 726 388 726 360 726 c 0,14,15
 247 726 247 726 166.5 806.5 c 128,-1,16
 86 887 86 887 86 1000 c 128,-1,17
 86 1113 86 1113 166.5 1193.5 c 128,-1,18
 247 1274 247 1274 360 1274 c 128,-1,19
 473 1274 473 1274 553.5 1193.5 c 128,-1,20
 634 1113 634 1113 634 1000 c 2,21,-1
 634 343 l 25,22,-1
 909 753 l 18,23,24
 933 789 933 789 962 815 c 1,25,26
 890 893 890 893 890 1000 c 0,27,28
 890 1113 890 1113 970.5 1193.5 c 128,-1,29
 1051 1274 1051 1274 1164 1274 c 128,-1,30
 1277 1274 1277 1274 1357.5 1193.5 c 128,-1,31
 1438 1113 1438 1113 1438 1000 c 0,32,33
 1438 878 1438 878 1340 790 c 1,0,1
1073 1002 m 0,34,35
 1073 965 1073 965 1100 938 c 0,36,37
 1126 912 1126 912 1164 912 c 128,-1,38
 1202 912 1202 912 1227 938 c 0,39,40
 1253 966 1253 966 1253 1002 c 128,-1,41
 1253 1038 1253 1038 1227 1064 c 128,-1,42
 1201 1090 1201 1090 1164 1090 c 0,43,44
 1128 1090 1128 1090 1100 1064 c 0,45,46
 1073 1038 1073 1038 1073 1002 c 0,34,35
269 1001.5 m 128,-1,48
 269 965 269 965 295.5 938.5 c 128,-1,49
 322 912 322 912 360 912 c 128,-1,50
 398 912 398 912 423.5 939 c 128,-1,51
 449 966 449 966 449 1002 c 128,-1,52
 449 1038 449 1038 423 1064 c 128,-1,53
 397 1090 397 1090 360.5 1090 c 128,-1,54
 324 1090 324 1090 296.5 1064 c 128,-1,47
 269 1038 269 1038 269 1001.5 c 128,-1,48
1296 -192 m 1,55,-1
 1116 -192 l 1,56,-1
EndSplineSet
EndChar
StartChar: uni0E2C
Encoding: 3628 3628 167
Width: 1654
VWidth: 2045
Flags: HW
HStem: 0 21G<414 633.998 1250 1470> 726 186<310.6 409.4> 978 186<1111.6 1210.4> 1090 184<313.05 407.95> 1342 184<1114.2 1209.1>
VStem: 86 183<954.05 1048.95> 414 220<432.8 730.986> 449 185<955.2 1048.8> 887 183<1205.9 1300.8> 1250 220<434 992.223>
AnchorPoint: "AboveBase" 868.63 1389.2 basechar 0
Fore
1393 1399 m 9,0,-1
 1485 1492 l 1,1,-1
 1641 1338 l 1,2,-1
 1470 1164 l 1,3,-1
 1470 0 l 1,4,-1
 1250 0 l 1,5,-1
 943 643 l 1,6,-1
 634 0 l 1,7,-1
 414 0 l 9,8,-1
 414 731 l 1,9,10
 388 726 388 726 360 726 c 0,11,12
 247 726 247 726 166.5 806.5 c 128,-1,13
 86 887 86 887 86 1000 c 128,-1,14
 86 1113 86 1113 166.5 1193.5 c 128,-1,15
 247 1274 247 1274 360 1274 c 128,-1,16
 473 1274 473 1274 553.5 1193.5 c 128,-1,17
 634 1113 634 1113 634 1000 c 2,18,-1
 634 433 l 17,19,-1
 884 974 l 1,20,-1
 1000 974 l 1,21,-1
 1250 434 l 1,22,-1
 1250 992 l 17,23,24
 1208 978 1208 978 1161 978 c 0,25,26
 1048 978 1048 978 967.5 1058.5 c 128,-1,27
 887 1139 887 1139 887 1252 c 128,-1,28
 887 1365 887 1365 967.5 1445.5 c 128,-1,29
 1048 1526 1048 1526 1161 1526 c 128,-1,30
 1274 1526 1274 1526 1354 1446 c 0,31,32
 1377 1423 1377 1423 1393 1399 c 9,0,-1
1070 1254 m 0,33,34
 1070 1217 1070 1217 1097 1190 c 0,35,36
 1123 1164 1123 1164 1161 1164 c 128,-1,37
 1199 1164 1199 1164 1224 1190 c 0,38,39
 1250 1218 1250 1218 1250 1254 c 128,-1,40
 1250 1290 1250 1290 1224 1316 c 128,-1,41
 1198 1342 1198 1342 1161 1342 c 0,42,43
 1125 1342 1125 1342 1097 1316 c 0,44,45
 1070 1290 1070 1290 1070 1254 c 0,33,34
269 1001.5 m 128,-1,47
 269 965 269 965 295.5 938.5 c 128,-1,48
 322 912 322 912 360 912 c 128,-1,49
 398 912 398 912 423.5 939 c 128,-1,50
 449 966 449 966 449 1002 c 128,-1,51
 449 1038 449 1038 423 1064 c 128,-1,52
 397 1090 397 1090 360.5 1090 c 128,-1,53
 324 1090 324 1090 296.5 1064 c 128,-1,46
 269 1038 269 1038 269 1001.5 c 128,-1,47
EndSplineSet
EndChar
StartChar: uni0E2D
Encoding: 3629 3629 168
Width: 1489
VWidth: 2045
Flags: HW
HStem: -0 213<606 1082> 336 186<610.6 709.4> 700 184<612.05 706.95> 1062 222<527.3 914.7>
VStem: 141 220<702 895.7> 386 220<213 340.986> 386 185<565.2 658.8> 751 183<564.05 658.95> 1082 221<213 896.3>
Fore
141 702 m 17,0,1
 141 860 141 860 219 994 c 128,-1,2
 297 1128 297 1128 431 1206 c 128,-1,3
 565 1284 565 1284 723 1284 c 128,-1,4
 881 1284 881 1284 1015 1206 c 128,-1,5
 1149 1128 1149 1128 1226 995.5 c 128,-1,6
 1303 863 1303 863 1303 702 c 2,7,-1
 1303 0 l 1,8,-1
 386 -0 l 25,9,-1
 386 610 l 2,10,11
 386 722 386 722 466 804 c 0,12,13
 547 884 547 884 660 884 c 128,-1,14
 773 884 773 884 853.5 803.5 c 128,-1,15
 934 723 934 723 934 610 c 128,-1,16
 934 497 934 497 853.5 416.5 c 128,-1,17
 773 336 773 336 660 336 c 0,18,19
 632 336 632 336 606 341 c 1,20,-1
 606 213 l 9,21,-1
 1082 213 l 17,22,-1
 1082 700 l 2,23,24
 1082 851 1082 851 976 956.5 c 128,-1,25
 870 1062 870 1062 721 1062 c 128,-1,26
 572 1062 572 1062 466.5 956.5 c 128,-1,27
 361 851 361 851 361 702 c 9,28,-1
 141 702 l 17,0,1
751 611.5 m 128,-1,30
 751 648 751 648 723.5 674 c 128,-1,31
 696 700 696 700 659.5 700 c 128,-1,32
 623 700 623 700 597 674 c 128,-1,33
 571 648 571 648 571 612 c 128,-1,34
 571 576 571 576 596.5 549 c 128,-1,35
 622 522 622 522 660 522 c 128,-1,36
 698 522 698 522 724.5 548.5 c 128,-1,29
 751 575 751 575 751 611.5 c 128,-1,30
EndSplineSet
EndChar
StartChar: uni0E2E
Encoding: 3630 3630 169
Width: 1298
VWidth: 2045
Flags: HW
HStem: -0 213<350 856> 236 186<350.6 449.4> 600 184<352.05 446.95> 800 180<323.8 674.827> 1090 195<319.3 691.4>
VStem: 114 253<971.777 1104.4> 130 181<465.2 558.8> 491 187<464.05 558.95> 856 221<213 841.461>
Fore
856 741 m 2,0,1
 856 818 856 818 831 878 c 1,2,3
 687 799 687 799 506 800 c 0,4,5
 317 800 317 800 216 868 c 128,-1,6
 115 936 115 936 114 1025 c 0,7,8
 113 1132 113 1132 229.5 1209.5 c 128,-1,9
 346 1287 346 1287 538 1285 c 0,10,11
 656 1284 656 1284 753 1244 c 128,-1,12
 850 1204 850 1204 899 1153 c 1,13,14
 957 1223 957 1223 968 1276 c 1,15,-1
 1160 1184 l 1,16,17
 1113 1074 1113 1074 1028 987 c 1,18,19
 1077 876 1077 876 1077 743 c 2,20,-1
 1077 0 l 1,21,-1
 130 -0 l 25,22,-1
 130 510 l 2,23,24
 130 622 130 622 210 704 c 0,25,26
 291 784 291 784 404 784 c 128,-1,27
 517 784 517 784 597.5 703.5 c 128,-1,28
 678 623 678 623 678 510 c 128,-1,29
 678 397 678 397 597.5 316.5 c 128,-1,30
 517 236 517 236 404 236 c 0,31,32
 376 236 376 236 350 241 c 1,33,-1
 350 213 l 9,34,-1
 856 213 l 17,35,-1
 856 741 l 2,0,1
491 511.5 m 128,-1,37
 491 548 491 548 463.5 574 c 128,-1,38
 436 600 436 600 399.5 600 c 128,-1,39
 363 600 363 600 337 574 c 128,-1,40
 311 548 311 548 311 512 c 128,-1,41
 311 476 311 476 336.5 449 c 128,-1,42
 362 422 362 422 400 422 c 128,-1,43
 438 422 438 422 464.5 448.5 c 128,-1,36
 491 475 491 475 491 511.5 c 128,-1,37
723 1019 m 1,44,45
 661 1093 661 1093 526 1090 c 0,46,47
 367 1087 367 1087 367 1029 c 0,48,49
 367 985 367 985 511 980 c 0,50,51
 637 975 637 975 723 1019 c 1,44,45
EndSplineSet
EndChar
StartChar: uni0E2F
Encoding: 3631 3631 170
Width: 1295
VWidth: 2045
Flags: HW
HStem: 0 21G<919 1139> 637 255<306.6 444> 1070 184<309.2 404.1>
VStem: 82 183<933.9 1028.8> 445 185<935.2 1028.8> 919 220<0 813 1029.59 1254>
Fore
265 982 m 4,0,1
 265 945 265 945 292 918 c 4,2,3
 318 892 318 892 356 892 c 132,-1,4
 394 892 394 892 419 918 c 4,5,6
 445 946 445 946 445 982 c 132,-1,7
 445 1018 445 1018 419 1044 c 132,-1,8
 393 1070 393 1070 356 1070 c 4,9,10
 320 1070 320 1070 292 1044 c 4,11,12
 265 1018 265 1018 265 982 c 4,0,1
606 876 m 5,13,14
 714 893 714 893 816.5 987 c 132,-1,15
 919 1081 919 1081 919 1254 c 5,16,-1
 1139 1254 l 5,17,-1
 1139 0 l 5,18,-1
 919 0 l 5,19,-1
 919 813 l 5,20,21
 822 718 822 718 713 677 c 132,-1,22
 604 636 604 636 444 637 c 132,-1,23
 284 638 284 638 183 747.5 c 156,-1,24
 82 857 82 857 82 980 c 4,25,26
 82 1093 82 1093 162.5 1173.5 c 132,-1,27
 243 1254 243 1254 356 1254 c 132,-1,28
 469 1254 469 1254 549.5 1173.5 c 132,-1,29
 630 1093 630 1093 630 980 c 4,30,31
 630 926 630 926 606 876 c 5,13,14
EndSplineSet
EndChar
StartChar: uni0E30
Encoding: 3632 3632 171
Width: 1158
VWidth: 2045
Flags: HW
HStem: 45 193<272.6 448> 417 133<272.6 370.1> 665 193<271.3 448> 1036 133<272.6 368.8>
VStem: 99 133<277.6 376.4 897.9 995.4>
Fore
951 994 m 5,0,1
 862 804 862 804 731 734 c 0,2,3
 599 664 599 664 448 665 c 0,4,5
 266 667 266 667 183 754 c 0,6,7
 99 841 99 841 99 941 c 0,8,9
 99 1040 99 1040 164 1105 c 0,10,11
 228 1169 228 1169 322 1169 c 0,12,13
 415 1169 415 1169 483 1101 c 0,14,15
 552 1034 552 1034 547 949 c 0,16,17
 541 865 541 865 489 828 c 1,18,19
 581 823 581 823 662 878 c 0,20,21
 744 932 744 932 810 1089 c 1,22,-1
 951 994 l 5,0,1
232 946 m 4,23,24
 232 909 232 909 258 884 c 0,25,26
 283 858 283 858 322 858 c 0,27,28
 360 858 360 858 386 884 c 128,-1,29
 412 910 412 910 412 946 c 128,-1,30
 412 982 412 982 386 1010 c 0,31,32
 358 1036 358 1036 322 1036 c 0,33,34
 284 1036 284 1036 258 1010 c 128,-1,35
 232 984 232 984 232 946 c 4,23,24
951 375 m 1,36,37
 862 185 862 185 731 115 c 0,38,39
 600 43 600 43 448 45 c 0,40,41
 267 46 267 46 183 134 c 128,-1,42
 99 222 99 222 99 322 c 0,43,44
 99 421 99 421 164 486 c 0,45,46
 230 550 230 550 322 550 c 0,47,48
 415 550 415 550 483 482 c 0,49,50
 552 415 552 415 547 330 c 0,51,52
 541 247 541 247 489 208 c 1,53,54
 579 204 579 204 662 258 c 0,55,56
 744 313 744 313 810 470 c 1,57,-1
 951 375 l 1,36,37
232 327 m 128,-1,59
 232 289 232 289 258 264 c 0,60,61
 284 238 284 238 322 238 c 0,62,63
 358 238 358 238 386 264 c 0,64,65
 412 290 412 290 412 327 c 128,-1,66
 412 364 412 364 386 390 c 0,67,68
 359 417 359 417 322 417 c 0,69,70
 284 417 284 417 258 390 c 0,71,58
 232 365 232 365 232 327 c 128,-1,59
EndSplineSet
EndChar
StartChar: uni0E31
Encoding: 3633 3633 172
Width: 0
VWidth: 2045
Flags: W
HStem: 1414 163<-463 -234.8> 1785 133<-639.4 -540.6>
VStem: -813 133<1648.2 1741.8>
AnchorPoint: "AboveMark" -346.401 1986.39 basemark 0
AnchorPoint: "AboveBase" -278.113 1374.68 mark 0
Fore
139 1743 m 1,0,1
 61 1612 61 1612 -82 1512 c 0,2,3
 -223 1412 -223 1412 -463 1414 c 0,4,5
 -642 1416 -642 1416 -727 1505 c 0,6,7
 -813 1596 -813 1596 -813 1690 c 0,8,9
 -813 1789 -813 1789 -748 1854 c 0,10,11
 -684 1918 -684 1918 -590 1918 c 128,-1,12
 -496 1918 -496 1918 -428 1850 c 128,-1,13
 -360 1782 -360 1782 -365 1698 c 0,14,15
 -371 1614 -371 1614 -422 1577 c 1,16,17
 -278 1572 -278 1572 -176 1646 c 0,18,19
 -77 1716 -77 1716 -3 1838 c 1,20,-1
 139 1743 l 1,0,1
-680 1695 m 128,-1,22
 -680 1659 -680 1659 -654 1633 c 128,-1,23
 -628 1607 -628 1607 -590 1607 c 128,-1,24
 -552 1607 -552 1607 -526 1633 c 128,-1,25
 -500 1659 -500 1659 -500 1695 c 128,-1,26
 -500 1731 -500 1731 -526 1759 c 0,27,28
 -552 1785 -552 1785 -590 1785 c 128,-1,29
 -628 1785 -628 1785 -654 1759 c 0,30,21
 -680 1731 -680 1731 -680 1695 c 128,-1,22
EndSplineSet
EndChar
StartChar: uni0E32
Encoding: 3634 3634 173
Width: 1169
VWidth: 2045
Flags: HW
HStem: 0 21G<860 1080> 1064 220<435.545 734.157>
VStem: 88 220<788 936.2> 860 220<0 901.939>
Fore
1080 0 m 13,0,-1
 1081 788 l 6,1,2
 1081 984 1081 984 935 1134 c 132,-1,3
 789 1284 789 1284 584 1284 c 132,-1,4
 379 1284 379 1284 233.5 1138.5 c 132,-1,5
 88 993 88 993 88 788 c 13,6,-1
 308 788 l 21,7,8
 308 902 308 902 389 983 c 132,-1,9
 470 1064 470 1064 585 1064 c 132,-1,10
 700 1064 700 1064 780 983 c 132,-1,11
 860 902 860 902 860 788 c 6,12,-1
 860 0 l 5,13,-1
 1080 0 l 13,0,-1
EndSplineSet
EndChar
StartChar: uni0E34
Encoding: 3636 3636 175
Width: 0
VWidth: 2045
Flags: HW
HStem: 1683 174<-770.356 -590.7>
AnchorPoint: "AboveMark" -305.258 1833.74 basemark 0
AnchorPoint: "AboveBase" -163.095 1296.25 mark 0
Fore
-939 1593 m 9,0,-1
 -425 1544 l 1,1,2
 -468 1602 -468 1602 -543 1641 c 128,-1,3
 -618 1680 -618 1680 -709 1683 c 0,4,5
 -750 1683 -750 1683 -832 1656 c 0,6,7
 -914 1630 -914 1630 -939 1593 c 9,0,-1
-1229 1464 m 17,8,9
 -1173 1660 -1173 1660 -1023 1758 c 0,10,11
 -872 1858 -872 1858 -709 1857 c 0,12,13
 -509 1854 -509 1854 -351 1722 c 0,14,15
 -196 1590 -196 1590 -171 1365 c 1,16,-1
 -1229 1464 l 17,8,9
EndSplineSet
EndChar
StartChar: uni0E35
Encoding: 3637 3637 176
Width: 0
VWidth: 2045
Flags: HW
HStem: 1683 174<-770.356 -590.7>
VStem: -328 157<1701 2000>
AnchorPoint: "AboveBase" -158.521 1298.51 mark 0
AnchorPoint: "AboveMark" -240.878 2048.77 basemark 0
Fore
-328 1701 m 9,0,-1
 -328 2000 l 1,1,-1
 -171 2000 l 1,2,-1
 -171 1365 l 1,3,-1
 -1229 1464 l 1,4,5
 -1173 1660 -1173 1660 -1023 1758 c 0,6,7
 -872 1858 -872 1858 -709 1857 c 0,8,9
 -510 1854 -510 1854 -328 1701 c 9,0,-1
-939 1593 m 9,10,-1
 -425 1544 l 1,11,12
 -468 1602 -468 1602 -543 1641 c 128,-1,13
 -618 1680 -618 1680 -709 1683 c 0,14,15
 -750 1683 -750 1683 -832 1656 c 0,16,17
 -914 1630 -914 1630 -939 1593 c 9,10,-1
EndSplineSet
EndChar
StartChar: uni0E36
Encoding: 3638 3638 177
Width: 0
VWidth: 2045
Flags: HW
HStem: 1683 174<-770.356 -610.992> 1933 133<-411.1 -313.6>
VStem: -273 136<1794.9 1891.1>
AnchorPoint: "AboveBase" -173.767 1300.78 mark 0
AnchorPoint: "AboveMark" -355.878 2123.68 basemark 0
Fore
-273 1639 m 1,0,1
 -189 1525 -189 1525 -171 1365 c 1,2,-1
 -1229 1464 l 1,3,4
 -1173 1660 -1173 1660 -1023 1758 c 0,5,6
 -872 1858 -872 1858 -709 1857 c 0,7,8
 -649 1856 -649 1856 -588 1843 c 1,9,10
 -588 1936 -588 1936 -522 2001 c 0,11,12
 -457 2066 -457 2066 -363 2066 c 128,-1,13
 -269 2066 -269 2066 -204 2001 c 0,14,15
 -137 1937 -137 1937 -137 1844 c 0,16,17
 -137 1753 -137 1753 -204 1686 c 0,18,19
 -235 1655 -235 1655 -273 1639 c 1,0,1
-453 1843 m 128,-1,21
 -453 1806 -453 1806 -426 1781 c 0,22,23
 -398 1755 -398 1755 -363 1755 c 0,24,25
 -326 1755 -326 1755 -300 1781 c 0,26,27
 -273 1806 -273 1806 -273 1843 c 128,-1,28
 -273 1880 -273 1880 -300 1907 c 0,29,30
 -325 1933 -325 1933 -363 1933 c 0,31,32
 -400 1933 -400 1933 -426 1907 c 0,33,20
 -453 1880 -453 1880 -453 1843 c 128,-1,21
-939 1593 m 9,34,-1
 -425 1544 l 1,35,36
 -468 1602 -468 1602 -543 1641 c 128,-1,37
 -618 1680 -618 1680 -709 1683 c 0,38,39
 -750 1683 -750 1683 -832 1656 c 0,40,41
 -914 1630 -914 1630 -939 1593 c 9,34,-1
EndSplineSet
EndChar
StartChar: uni0E37
Encoding: 3639 3639 178
Width: 0
VWidth: 2045
Flags: HW
HStem: 1683 174<-770.356 -616.7>
VStem: -564 157<1834 2000> -328 157<1701 2000>
AnchorPoint: "AboveMark" -320.155 2080.85 basemark 0
AnchorPoint: "AboveBase" -174.528 1293.98 mark 0
Fore
-407 1761 m 17,0,1
 -362 1730 -362 1730 -328 1701 c 1,2,-1
 -328 2000 l 1,3,-1
 -171 2000 l 1,4,-1
 -171 1365 l 1,5,-1
 -1229 1464 l 1,6,7
 -1173 1660 -1173 1660 -1023 1758 c 0,8,9
 -872 1858 -872 1858 -709 1857 c 0,10,11
 -638 1856 -638 1856 -564 1834 c 1,12,-1
 -564 2000 l 1,13,-1
 -407 2000 l 1,14,-1
 -407 1761 l 17,0,1
-939 1593 m 9,15,-1
 -425 1544 l 1,16,17
 -468 1602 -468 1602 -543 1641 c 128,-1,18
 -618 1680 -618 1680 -709 1683 c 0,19,20
 -750 1683 -750 1683 -832 1656 c 0,21,22
 -914 1630 -914 1630 -939 1593 c 9,15,-1
EndSplineSet
EndChar
StartChar: uni0E38
Encoding: 3640 3640 179
Width: 0
VWidth: 2045
Flags: HW
HStem: -532 133<-432.75 -337.2> -221 134<-433.4 -335.9>
VStem: -610 136<-357.75 -260.25> -338 180<-755 -529> -294 136<-357.75 -260.25>
AnchorPoint: "BelowBase" -158.835 -88.4521 mark 0
Fore
-338 -755 m 13,0,-1
 -338 -529 l 1,1,2
 -362 -532 -362 -532 -384 -532 c 0,3,4
 -476 -532 -476 -532 -544 -467 c 0,5,6
 -610 -401 -610 -401 -610 -310 c 0,7,8
 -610 -218 -610 -218 -544 -152 c 0,9,10
 -478 -87 -478 -87 -384 -87 c 128,-1,11
 -290 -87 -290 -87 -225 -152 c 0,12,13
 -158 -219 -158 -219 -158 -308 c 2,14,-1
 -158 -755 l 1,15,-1
 -338 -755 l 13,0,-1
-474 -309 m 132,-1,17
 -474 -346 -474 -346 -447 -372 c 0,18,19
 -422 -399 -422 -399 -384 -399 c 0,20,21
 -348 -399 -348 -399 -321 -372 c 0,22,23
 -294 -346 -294 -346 -294 -309 c 128,-1,24
 -294 -272 -294 -272 -321 -246 c 0,25,26
 -347 -221 -347 -221 -384 -221 c 0,27,28
 -422 -221 -422 -221 -447 -246 c 0,29,16
 -474 -272 -474 -272 -474 -309 c 132,-1,17
EndSplineSet
EndChar
StartChar: uni0E39
Encoding: 3641 3641 180
Width: 0
VWidth: 2045
Flags: HW
HStem: -775 156<-494 -331> -532 133<-766.8 -671.9> -221 134<-768.1 -670.6>
VStem: -945 136<-358.4 -259.6> -674 180<-619 -529> -630 136<-357.1 -260.9> -331 180<-619 -85>
AnchorPoint: "AboveMark" -185.807 1193.52 mark 0
AnchorPoint: "BelowBase" -112.1 -84.9668 mark 0
Fore
-674 -775 m 25,0,-1
 -674 -529 l 1,1,2
 -696 -532 -696 -532 -720 -532 c 0,3,4
 -812 -532 -812 -532 -879 -467 c 0,5,6
 -945 -401 -945 -401 -945 -310 c 0,7,8
 -945 -218 -945 -218 -879 -152 c 0,9,10
 -814 -87 -814 -87 -720 -87 c 0,11,12
 -625 -87 -625 -87 -560 -152 c 0,13,14
 -494 -218 -494 -218 -494 -308 c 2,15,-1
 -494 -619 l 1,16,-1
 -331 -619 l 1,17,-1
 -331 -85 l 1,18,-1
 -151 -85 l 1,19,-1
 -151 -775 l 1,20,-1
 -674 -775 l 25,0,-1
-809 -309 m 128,-1,22
 -809 -347 -809 -347 -783 -372 c 0,23,24
 -756 -399 -756 -399 -720 -399 c 0,25,26
 -683 -399 -683 -399 -656 -372 c 0,27,28
 -630 -346 -630 -346 -630 -309 c 128,-1,29
 -630 -272 -630 -272 -656 -246 c 0,30,31
 -682 -221 -682 -221 -720 -221 c 0,32,33
 -757 -221 -757 -221 -783 -246 c 128,-1,21
 -809 -271 -809 -271 -809 -309 c 128,-1,22
EndSplineSet
EndChar
StartChar: uni0E3A
Encoding: 3642 3642 181
Width: 0
VWidth: 2045
Flags: HW
AnchorPoint: "BelowBase" -185.278 -86.1191 mark 0
Fore
-552 -258 m 132,-1,1
 -552 -184 -552 -184 -499 -133 c 0,2,3
 -445 -82 -445 -82 -370 -82 c 128,-1,4
 -295 -82 -295 -82 -244 -133 c 0,5,6
 -192 -184 -192 -184 -192 -258 c 0,7,8
 -192 -333 -192 -333 -244 -385 c 0,9,10
 -295 -438 -295 -438 -370 -438 c 0,11,12
 -444 -438 -444 -438 -499 -385 c 0,13,0
 -552 -332 -552 -332 -552 -258 c 132,-1,1
EndSplineSet
EndChar
StartChar: uni0E3F
Encoding: 3647 3647 182
Width: 1364
VWidth: 2045
Flags: HW
HStem: 0 172<345 550 707 877.3> 669 174<345 550 707 825.95> 1278 172<345 550 707 843.5>
VStem: 165 180<172 669 843 1278> 550 157<-131 0 172 669 843 1276 1450 1598> 994 191<964.95 1197> 1055 201<377.89 583.8>
Fore
707 0 m 9,0,-1
 707 -131 l 1,1,-1
 550 -131 l 1,2,-1
 550 0 l 1,3,-1
 165 0 l 1,4,-1
 165 1450 l 1,5,-1
 550 1450 l 1,6,-1
 550 1598 l 1,7,-1
 707 1598 l 1,8,-1
 707 1450 l 1,9,10
 870 1449 870 1449 970 1406 c 0,11,12
 1082 1358 1082 1358 1140 1249 c 0,13,14
 1185 1170 1185 1170 1185 1080 c 0,15,16
 1185 992 1185 992 1134 906 c 0,17,18
 1081 821 1081 821 980 772 c 1,19,20
 1112 735 1112 735 1185 639 c 0,21,22
 1256 546 1256 546 1256 420 c 0,23,24
 1256 281 1256 281 1171 163 c 0,25,26
 1145 125 1145 125 1104 97 c 0,27,28
 1039 47 1039 47 945 24 c 0,29,30
 849 0 849 0 707 0 c 9,0,-1
707 843 m 17,31,32
 798 846 798 846 845 858 c 0,33,34
 994 903 994 903 994 1056 c 0,35,36
 994 1175 994 1175 909 1232 c 0,37,38
 887 1248 887 1248 860 1257 c 0,39,40
 812 1271 812 1271 707 1276 c 1,41,-1
 707 843 l 17,31,32
707 172 m 17,42,43
 838 172 838 172 896 193 c 0,44,45
 928 202 928 202 951 221 c 0,46,47
 1042 277 1042 277 1052 387 c 0,48,49
 1055 406 1055 406 1055 420 c 0,50,51
 1055 554 1055 554 951 619 c 0,52,53
 927 634 927 634 896 643 c 0,54,55
 833 666 833 666 707 669 c 1,56,-1
 707 172 l 17,42,43
550 172 m 25,57,-1
 550 669 l 1,58,-1
 345 669 l 1,59,-1
 345 172 l 1,60,-1
 550 172 l 25,57,-1
550 841 m 25,61,-1
 550 1278 l 1,62,-1
 345 1278 l 1,63,-1
 345 843 l 1,64,-1
 550 841 l 25,61,-1
EndSplineSet
EndChar
StartChar: uni0E40
Encoding: 3648 3648 183
Width: 760
VWidth: 2045
Flags: HW
HStem: -10 186<371.6 470.4> 354 184<374.2 469.1> 1234 20G<148 368>
VStem: 147 183<217.9 312.8> 148 220<533 1254> 510 185<219.2 312.8>
Fore
330 266 m 4,0,1
 330 229 330 229 357 202 c 4,2,3
 383 176 383 176 421 176 c 132,-1,4
 459 176 459 176 484 202 c 4,5,6
 510 230 510 230 510 266 c 132,-1,7
 510 302 510 302 484 328 c 132,-1,8
 458 354 458 354 421 354 c 4,9,10
 385 354 385 354 357 328 c 4,11,12
 330 302 330 302 330 266 c 4,0,1
147 264 m 6,13,-1
 148 1254 l 5,14,-1
 368 1254 l 5,15,-1
 368 533 l 5,16,17
 393 538 393 538 421 538 c 4,18,19
 534 538 534 538 614.5 457.5 c 132,-1,20
 695 377 695 377 695 264 c 132,-1,21
 695 151 695 151 614.5 70.5 c 132,-1,22
 534 -10 534 -10 421 -10 c 132,-1,23
 308 -10 308 -10 227.5 70.5 c 132,-1,24
 147 151 147 151 147 264 c 6,13,-1
EndSplineSet
EndChar
StartChar: uni0E41
Encoding: 3649 3649 184
Width: 1400
VWidth: 2045
Flags: HW
HStem: -10 186<371.6 470.4 1001.6 1100.4> 354 184<374.2 469.1 1004.2 1099.1> 1234 20G<148 368 778 998>
VStem: 147 183<217.9 312.8> 148 220<533 1254> 510 185<219.2 312.8> 777 183<217.9 312.8> 778 220<533 1254> 1140 185<219.2 312.8>
Fore
960 266 m 0,0,1
 960 229 960 229 987 202 c 0,2,3
 1013 176 1013 176 1051 176 c 128,-1,4
 1089 176 1089 176 1114 202 c 0,5,6
 1140 230 1140 230 1140 266 c 128,-1,7
 1140 302 1140 302 1114 328 c 128,-1,8
 1088 354 1088 354 1051 354 c 0,9,10
 1015 354 1015 354 987 328 c 0,11,12
 960 302 960 302 960 266 c 0,0,1
777 264 m 2,13,-1
 778 1254 l 1,14,-1
 998 1254 l 1,15,-1
 998 533 l 1,16,17
 1023 538 1023 538 1051 538 c 0,18,19
 1164 538 1164 538 1244.5 457.5 c 128,-1,20
 1325 377 1325 377 1325 264 c 128,-1,21
 1325 151 1325 151 1244.5 70.5 c 128,-1,22
 1164 -10 1164 -10 1051 -10 c 128,-1,23
 938 -10 938 -10 857.5 70.5 c 128,-1,24
 777 151 777 151 777 264 c 2,13,-1
330 266 m 0,25,26
 330 229 330 229 357 202 c 0,27,28
 383 176 383 176 421 176 c 128,-1,29
 459 176 459 176 484 202 c 0,30,31
 510 230 510 230 510 266 c 128,-1,32
 510 302 510 302 484 328 c 128,-1,33
 458 354 458 354 421 354 c 0,34,35
 385 354 385 354 357 328 c 0,36,37
 330 302 330 302 330 266 c 0,25,26
147 264 m 2,38,-1
 148 1254 l 1,39,-1
 368 1254 l 1,40,-1
 368 533 l 1,41,42
 393 538 393 538 421 538 c 0,43,44
 534 538 534 538 614.5 457.5 c 128,-1,45
 695 377 695 377 695 264 c 128,-1,46
 695 151 695 151 614.5 70.5 c 128,-1,47
 534 -10 534 -10 421 -10 c 128,-1,48
 308 -10 308 -10 227.5 70.5 c 128,-1,49
 147 151 147 151 147 264 c 2,38,-1
EndSplineSet
EndChar
StartChar: uni0E42
Encoding: 3650 3650 185
Width: 852
VWidth: 2045
Flags: HW
HStem: -10 186<451.6 550.4> 354 184<454.2 549.1> 1522 186<-16.2324 257.23> 1854 220<79.9 436.1>
VStem: 230 180<217.9 312.8> 231 220<533 1546.9>
Fore
410 266 m 4,0,1
 410 229 410 229 437 202 c 4,2,3
 463 176 463 176 501 176 c 132,-1,4
 539 176 539 176 564 202 c 4,5,6
 590 230 590 230 590 266 c 132,-1,7
 590 302 590 302 564 328 c 132,-1,8
 538 354 538 354 501 354 c 4,9,10
 465 354 465 354 437 328 c 4,11,12
 410 302 410 302 410 266 c 4,0,1
231 1438 m 6,13,14
 231 1522 231 1522 144 1522 c 2,15,-1
 -294 1522 l 1,16,17
 -294 1672 -294 1672 -220 1799 c 128,-1,18
 -146 1926 -146 1926 -19 2000 c 128,-1,19
 108 2074 108 2074 258 2074 c 128,-1,20
 408 2074 408 2074 535 2000 c 128,-1,21
 662 1926 662 1926 736 1799 c 9,22,-1
 558 1665 l 17,23,24
 535 1714 535 1714 492 1756 c 0,25,26
 395 1854 395 1854 258 1854 c 128,-1,27
 121 1854 121 1854 24 1756 c 0,28,29
 1 1734 1 1734 -16 1708 c 0,30,-1
 177 1708 l 2,31,32
 290 1708 290 1708 370.5 1627.5 c 128,-1,33
 451 1547 451 1547 451 1434 c 6,34,-1
 451 533 l 5,35,36
 476 538 476 538 504 538 c 4,37,38
 617 538 617 538 697.5 457.5 c 132,-1,39
 778 377 778 377 778 264 c 132,-1,40
 778 151 778 151 697.5 70.5 c 132,-1,41
 617 -10 617 -10 504 -10 c 132,-1,42
 391 -10 391 -10 310.5 70.5 c 132,-1,43
 230 151 230 151 230 264 c 6,44,-1
 231 1438 l 6,13,14
EndSplineSet
EndChar
StartChar: uni0E43
Encoding: 3651 3651 186
Width: 963
VWidth: 2045
Flags: HW
HStem: -10 186<551.6 650.4> 354 184<554.2 649.1> 1334 186<-109.4 -10.6> 1872 210<10.2589 233.556>
VStem: 29 185<1563.2 1656.8> 330 180<217.9 312.8> 330 221<533 1764.18>
Fore
18 1860 m 1,0,1
 75 1860 75 1860 134 1802 c 0,2,3
 214 1721 214 1721 214 1608 c 128,-1,4
 214 1495 214 1495 133.5 1414.5 c 128,-1,5
 53 1334 53 1334 -60 1334 c 0,6,7
 -168 1334 -168 1334 -256 1417 c 128,-1,8
 -344 1500 -344 1500 -344 1638 c 0,9,10
 -344 1830 -344 1830 -213.5 1954.5 c 128,-1,11
 -83 2079 -83 2079 98 2082 c 0,12,13
 284 2085 284 2085 417.5 1952 c 128,-1,14
 551 1819 551 1819 551 1598 c 2,15,-1
 551 533 l 1,16,17
 576 538 576 538 604 538 c 0,18,19
 717 538 717 538 797.5 457.5 c 128,-1,20
 878 377 878 377 878 264 c 128,-1,21
 878 151 878 151 797.5 70.5 c 128,-1,22
 717 -10 717 -10 604 -10 c 128,-1,23
 491 -10 491 -10 410 71 c 0,24,25
 330 151 330 151 330 264 c 2,26,-1
 330 1597 l 2,27,28
 330 1726 330 1726 265 1798 c 128,-1,29
 200 1870 200 1870 90 1872 c 0,30,31
 32 1873 32 1873 18 1860 c 1,0,1
-151 1610 m 0,32,33
 -151 1573 -151 1573 -124 1546 c 0,34,35
 -98 1520 -98 1520 -60 1520 c 128,-1,36
 -22 1520 -22 1520 3 1546 c 0,37,38
 29 1574 29 1574 29 1610 c 128,-1,39
 29 1646 29 1646 3 1672 c 128,-1,40
 -23 1698 -23 1698 -60 1698 c 0,41,42
 -96 1698 -96 1698 -124 1672 c 0,43,44
 -151 1646 -151 1646 -151 1610 c 0,32,33
510 266 m 0,45,46
 510 229 510 229 537 202 c 0,47,48
 563 176 563 176 601 176 c 128,-1,49
 639 176 639 176 664 202 c 0,50,51
 690 230 690 230 690 266 c 128,-1,52
 690 302 690 302 664 328 c 128,-1,53
 638 354 638 354 601 354 c 0,54,55
 565 354 565 354 537 328 c 0,56,57
 510 302 510 302 510 266 c 0,45,46
EndSplineSet
EndChar
StartChar: uni0E44
Encoding: 3652 3652 187
Width: 963
VWidth: 2045
Flags: HW
HStem: -10 186<551.6 650.4> 354 184<554.2 649.1> 1481 21G<-172 34>
VStem: -172 197<1745 2101> 330 180<217.9 312.8> 330 221<533 1766>
Fore
551 2074 m 25,0,-1
 551 533 l 1,1,2
 576 538 576 538 604 538 c 0,3,4
 717 538 717 538 797.5 457.5 c 128,-1,5
 878 377 878 377 878 264 c 128,-1,6
 878 151 878 151 797.5 70.5 c 128,-1,7
 717 -10 717 -10 604 -10 c 128,-1,8
 491 -10 491 -10 410 71 c 0,9,10
 330 151 330 151 330 264 c 2,11,-1
 330 1766 l 25,12,-1
 34 1481 l 1,13,-1
 -172 1481 l 1,14,-1
 -172 1997 l 2,15,16
 -172 2077 -172 2077 -231 2136 c 1,17,-1
 -99 2268 l 1,18,19
 25 2176 25 2176 25 1997 c 2,20,-1
 25 1745 l 1,21,-1
 330 2074 l 1,22,-1
 551 2074 l 25,0,-1
510 266 m 0,23,24
 510 229 510 229 537 202 c 0,25,26
 563 176 563 176 601 176 c 128,-1,27
 639 176 639 176 664 202 c 0,28,29
 690 230 690 230 690 266 c 128,-1,30
 690 302 690 302 664 328 c 128,-1,31
 638 354 638 354 601 354 c 0,32,33
 565 354 565 354 537 328 c 0,34,35
 510 302 510 302 510 266 c 0,23,24
EndSplineSet
EndChar
StartChar: uni0E45
Encoding: 3653 3653 188
Width: 1126
VWidth: 2045
Flags: HW
HStem: 1064 220<245.544 544.157>
VStem: -102 220<788 936.2> 670 220<-550 901.938>
Fore
890 -550 m 9,0,-1
 891 788 l 2,1,2
 891 984 891 984 745 1134 c 128,-1,3
 599 1284 599 1284 394 1284 c 128,-1,4
 189 1284 189 1284 43.5 1138.5 c 128,-1,5
 -102 993 -102 993 -102 788 c 9,6,-1
 118 788 l 17,7,8
 118 902 118 902 199 983 c 128,-1,9
 280 1064 280 1064 395 1064 c 128,-1,10
 510 1064 510 1064 590 983 c 128,-1,11
 670 902 670 902 670 788 c 2,12,-1
 670 -550 l 1,13,-1
 890 -550 l 9,0,-1
EndSplineSet
EndChar
StartChar: uni0E46
Encoding: 3654 3654 189
Width: 1648
VWidth: 2045
Flags: HW
HStem: 408 190<468 572>
VStem: 175 256<638.05 798> 611 187<639.2 732.8> 1052 217<-560 924.5>
Fore
431 685.5 m 128,-1,1
 431 649 431 649 455.5 624.5 c 128,-1,2
 480 600 480 600 520 598 c 128,-1,3
 560 596 560 596 585.5 623 c 128,-1,4
 611 650 611 650 611 686 c 128,-1,5
 611 722 611 722 585 748 c 128,-1,6
 559 774 559 774 522.5 774 c 128,-1,7
 486 774 486 774 458.5 748 c 128,-1,0
 431 722 431 722 431 685.5 c 128,-1,1
1269 -560 m 17,8,-1
 1052 -560 l 1,9,-1
 1054 850 l 2,10,11
 1054 924 1054 924 1027 969 c 128,-1,12
 1000 1014 1000 1014 932 1036 c 1,13,-1
 747 940 l 1,14,-1
 561 1033 l 1,15,16
 484 1020 484 1020 443 942 c 1,17,18
 471 965 471 965 526 965 c 0,19,20
 625 965 625 965 711.5 882 c 128,-1,21
 798 799 798 799 798 686 c 128,-1,22
 798 573 798 573 713 489.5 c 128,-1,23
 628 406 628 406 517 408 c 0,24,25
 389 410 389 410 281.5 503.5 c 128,-1,26
 174 597 174 597 175 798 c 24,27,28
 176 1001 176 1001 286.5 1118.5 c 128,-1,29
 397 1236 397 1236 554 1264 c 1,30,-1
 751 1156 l 1,31,-1
 942 1264 l 1,32,33
 1028 1252 1028 1252 1147 1144 c 0,34,35
 1267 1036 1267 1036 1267 861 c 10,36,-1
 1269 -560 l 17,8,-1
EndSplineSet
EndChar
StartChar: uni0E47
Encoding: 3655 3655 190
Width: 0
VWidth: 2045
Flags: W
HStem: 1296 112<-472.299 -396.752> 1541 112<-470.702 -398.331> 1687 118<-695.039 -234.3> 1692 116.501<-799.089 -533.542> 1698 119<-886.3 -650.951>
VStem: -1095 131<1427.1 1667.6> -614 113<1436.75 1511.25> -367 113<1438.33 1509.67>
AnchorPoint: "AboveMark" -659.261 1267.29 mark 0
AnchorPoint: "AboveBase" -272.014 1267.68 mark 0
Fore
-964 1548 m 0,0,1
 -964 1455 -964 1455 -899 1441 c 1,2,3
 -902 1473 -902 1473 -880 1504 c 0,4,5
 -861 1534 -861 1534 -820 1536 c 0,6,7
 -760 1538 -760 1538 -704 1493 c 0,8,9
 -646 1448 -646 1448 -611 1441 c 1,10,11
 -614 1458 -614 1458 -614 1474 c 0,12,13
 -616 1546 -616 1546 -563 1600 c 0,14,15
 -508 1653 -508 1653 -434 1653 c 128,-1,16
 -360 1653 -360 1653 -307 1600 c 0,17,18
 -254 1549 -254 1549 -254 1474 c 0,19,20
 -254 1401 -254 1401 -307 1348 c 0,21,22
 -359 1296 -359 1296 -453 1296 c 0,23,24
 -568 1296 -568 1296 -653 1349 c 0,25,26
 -740 1402 -740 1402 -778 1405 c 0,27,28
 -827 1408 -827 1408 -832 1370 c 0,29,30
 -835 1332 -835 1332 -832 1296 c 1,31,32
 -1093 1329 -1093 1329 -1095 1547 c 0,33,34
 -1097 1699 -1097 1699 -996 1759 c 128,-1,35
 -895 1819 -895 1819 -776 1817 c 0,36,37
 -736 1817 -736 1817 -678 1811 c 128,-1,38
 -620 1805 -620 1805 -558 1805 c 0,39,40
 -309 1804 -309 1804 -273 1930 c 1,41,-1
 -171 1870 l 1,42,43
 -223 1689 -223 1689 -529 1687 c 0,44,45
 -586 1687 -586 1687 -659 1692 c 0,46,47
 -724 1698 -724 1698 -768 1698 c 0,48,49
 -859 1698 -859 1698 -912 1669 c 0,50,51
 -964 1640 -964 1640 -964 1548 c 0,0,1
-501 1474 m 128,-1,53
 -501 1446 -501 1446 -482 1427 c 128,-1,54
 -463 1408 -463 1408 -434 1408 c 0,55,56
 -406 1408 -406 1408 -387 1427 c 0,57,58
 -367 1447 -367 1447 -367 1474 c 128,-1,59
 -367 1501 -367 1501 -387 1521 c 128,-1,60
 -407 1541 -407 1541 -434 1541 c 0,61,62
 -462 1541 -462 1541 -482 1521 c 0,63,52
 -501 1502 -501 1502 -501 1474 c 128,-1,53
EndSplineSet
EndChar
StartChar: uni0E48
Encoding: 3656 3656 191
Width: 0
VWidth: 2045
Flags: W
VStem: -485 180<1812 2142>
AnchorPoint: "AboveMark" -391.93 1753.64 mark 0
Fore
-485 1812 m 17,0,-1
 -485 2142 l 1,1,-1
 -305 2142 l 1,2,-1
 -305 1812 l 1,3,-1
 -485 1812 l 17,0,-1
EndSplineSet
Substitution2: "Single Substitution lookup 5" uni0E48.low
MultipleSubs2: "Multiple Substitution lookup 4" uni0E4D uni0E48
EndChar
StartChar: uni0E49
Encoding: 3657 3657 192
Width: 0
VWidth: 2045
Flags: W
HStem: 2202 112<-565.299 -489.752>
VStem: -707 113<2098.75 2172.61> -460 113<2100.33 2170.38> -149 157<2108.3 2302>
AnchorPoint: "AboveMark" -236.754 1747.06 mark 0
Fore
-149 2302 m 1,0,-1
 8 2302 l 1,1,2
 11 2153 11 2153 -62 2031 c 0,3,4
 -134 1908 -134 1908 -259 1837 c 0,5,6
 -386 1764 -386 1764 -529 1764 c 2,7,-1
 -678 1764 l 1,8,-1
 -678 1918 l 1,9,-1
 -576 1974 l 1,10,11
 -629 1984 -629 1984 -656 2010 c 0,12,13
 -707 2064 -707 2064 -707 2137 c 0,14,15
 -707 2211 -707 2211 -655 2263 c 0,16,17
 -602 2314 -602 2314 -527 2314 c 128,-1,18
 -452 2314 -452 2314 -400 2263 c 0,19,20
 -347 2210 -347 2210 -347 2136 c 0,21,22
 -347 2049 -347 2049 -406 1992 c 2,23,-1
 -473 1920 l 1,24,25
 -350 1942 -350 1942 -249 2036 c 0,26,27
 -149 2130 -149 2130 -149 2302 c 1,0,-1
-594 2136 m 0,28,29
 -594 2108 -594 2108 -575 2089 c 0,30,31
 -555 2069 -555 2069 -527 2069 c 0,32,33
 -500 2069 -500 2069 -480 2089 c 128,-1,34
 -460 2109 -460 2109 -460 2136 c 0,35,36
 -460 2161 -460 2161 -480 2183 c 0,37,38
 -499 2202 -499 2202 -527 2202 c 0,39,40
 -556 2202 -556 2202 -575 2183 c 0,41,42
 -594 2163 -594 2163 -594 2136 c 0,28,29
EndSplineSet
Substitution2: "Single Substitution lookup 5" uni0E49.low
MultipleSubs2: "Multiple Substitution lookup 4" uni0E4D uni0E49
EndChar
StartChar: uni0E4A
Encoding: 3658 3658 193
Width: 0
VWidth: 2045
Flags: W
HStem: 1764 112<-771.4 -698.6> 2009 112<-770.669 -699.331> 2175 127<-745.6 -620.8 -465.3 -311.9>
VStem: -947 145<1908.2 2012> -668 113<1906.72 1978.4> -247 128<1957.78 2117.5> 14 128<2127.9 2254>
AnchorPoint: "AboveMark" -457.524 1734.18 mark 0
Fore
142 2254 m 17,0,1
 142 2120 142 2120 75 2008 c 0,2,3
 10 1897 10 1897 -104 1830 c 0,4,5
 -218 1764 -218 1764 -329 1764 c 1,6,-1
 -329 1891 l 1,7,8
 -324 1891 -324 1891 -285 1933 c 0,9,10
 -247 1974 -247 1974 -247 2033 c 0,11,12
 -247 2098 -247 2098 -285 2138 c 0,13,14
 -323 2176 -323 2176 -360 2175 c 0,15,16
 -441 2174 -441 2174 -471 2110 c 1,17,-1
 -572 2110 l 1,18,19
 -634 2175 -634 2175 -678 2175 c 0,20,21
 -730 2174 -730 2174 -771 2133 c 0,22,23
 -781 2125 -781 2125 -790 2113 c 1,24,25
 -761 2121 -761 2121 -735 2121 c 0,26,27
 -659 2121 -659 2121 -607 2069 c 128,-1,28
 -555 2017 -555 2017 -555 1942 c 0,29,30
 -555 1868 -555 1868 -607 1816 c 128,-1,31
 -659 1764 -659 1764 -735 1764 c 0,32,33
 -822 1764 -822 1764 -884 1830 c 0,34,35
 -947 1896 -947 1896 -947 2012 c 0,36,37
 -947 2146 -947 2146 -860 2224 c 128,-1,38
 -773 2302 -773 2302 -678 2302 c 0,39,40
 -574 2302 -574 2302 -520 2238 c 1,41,42
 -466 2303 -466 2303 -360 2302 c 0,43,44
 -272 2301 -272 2301 -194 2223 c 0,45,46
 -119 2145 -119 2145 -119 2033 c 0,47,48
 -119 1996 -119 1996 -127 1968 c 1,49,50
 -72 2010 -72 2010 -29 2083 c 0,51,52
 14 2157 14 2157 14 2254 c 1,53,-1
 142 2254 l 17,0,1
-802 1942 m 0,54,55
 -802 1916 -802 1916 -782 1896 c 0,56,57
 -763 1876 -763 1876 -735 1876 c 128,-1,58
 -707 1876 -707 1876 -688 1896 c 0,59,60
 -668 1915 -668 1915 -668 1942 c 0,61,62
 -668 1970 -668 1970 -688 1989 c 0,63,64
 -708 2009 -708 2009 -735 2009 c 128,-1,65
 -762 2009 -762 2009 -782 1989 c 128,-1,66
 -802 1969 -802 1969 -802 1942 c 0,54,55
EndSplineSet
Substitution2: "Single Substitution lookup 5" uni0E4A.low
MultipleSubs2: "Multiple Substitution lookup 4" uni0E4D uni0E4A
EndChar
StartChar: uni0E4B
Encoding: 3659 3659 194
Width: 0
VWidth: 2045
Flags: W
HStem: 1935 180<-598 -448 -267 -117>
VStem: -448 181<1785 1935 2115 2264>
AnchorPoint: "AboveMark" -387.384 1728.45 mark 0
Fore
-117 1935 m 1,0,-1
 -267 1935 l 1,1,-1
 -267 1785 l 1,2,-1
 -448 1785 l 1,3,-1
 -448 1935 l 1,4,-1
 -598 1935 l 1,5,-1
 -598 2115 l 1,6,-1
 -448 2115 l 1,7,-1
 -448 2264 l 1,8,-1
 -267 2264 l 1,9,-1
 -267 2115 l 1,10,-1
 -117 2115 l 1,11,-1
 -117 1935 l 1,0,-1
EndSplineSet
Substitution2: "Single Substitution lookup 5" uni0E4B.low
MultipleSubs2: "Multiple Substitution lookup 4" uni0E4D uni0E4B
EndChar
StartChar: uni0E4C
Encoding: 3660 3660 195
Width: 0
VWidth: 2045
Flags: W
HStem: 1806 133<-659.1 -562.9> 2096 154<-396 -15.2> 2118 134<-657.8 -564.2>
VStem: -835 134<1980.9 2077.1> -521 136<1980.9 2077.1>
AnchorPoint: "AboveMark" -387.384 1737.52 mark 0
Fore
-701 2029 m 128,-1,1
 -701 1992 -701 1992 -675 1966 c 0,2,3
 -648 1939 -648 1939 -611 1939 c 128,-1,4
 -574 1939 -574 1939 -547 1966 c 0,5,6
 -521 1992 -521 1992 -521 2029 c 128,-1,7
 -521 2066 -521 2066 -547 2092 c 0,8,9
 -575 2118 -575 2118 -611 2118 c 128,-1,10
 -647 2118 -647 2118 -675 2092 c 0,11,0
 -701 2066 -701 2066 -701 2029 c 128,-1,1
-140 2096 m 2,12,-1
 -396 2098 l 1,13,14
 -385 2063 -385 2063 -385 2030 c 0,15,16
 -385 1938 -385 1938 -452 1871 c 0,17,18
 -519 1806 -519 1806 -611 1806 c 128,-1,19
 -703 1806 -703 1806 -770 1871 c 0,20,21
 -835 1936 -835 1936 -835 2028 c 0,22,23
 -835 2122 -835 2122 -770 2186 c 0,24,25
 -704 2252 -704 2252 -610 2252 c 2,26,-1
 -140 2250 l 2,27,28
 -44 2250 -44 2250 0 2308 c 1,29,-1
 110 2199 l 1,30,31
 9 2096 9 2096 -140 2096 c 2,12,-1
EndSplineSet
Substitution2: "Single Substitution lookup 5" uni0E4C.low
MultipleSubs2: "Multiple Substitution lookup 4" uni0E4D uni0E4C
EndChar
StartChar: uni0E4D
Encoding: 3661 3661 196
Width: 0
VWidth: 2045
Flags: W
HStem: 1372 186<-453.4 -354.6> 1736 184<-450.8 -355.9>
VStem: -678 183<1599.9 1694.8> -315 185<1601.2 1694.8>
AnchorPoint: "AboveMark" -399.584 2008.25 basemark 0
AnchorPoint: "AboveBase" -277.712 1328.01 mark 0
Fore
-678 1646 m 128,-1,1
 -678 1759 -678 1759 -597.5 1839.5 c 128,-1,2
 -517 1920 -517 1920 -404 1920 c 128,-1,3
 -291 1920 -291 1920 -210.5 1839.5 c 128,-1,4
 -130 1759 -130 1759 -130 1646 c 128,-1,5
 -130 1533 -130 1533 -210.5 1452.5 c 128,-1,6
 -291 1372 -291 1372 -404 1372 c 128,-1,7
 -517 1372 -517 1372 -597.5 1452.5 c 128,-1,0
 -678 1533 -678 1533 -678 1646 c 128,-1,1
-495 1648 m 0,8,9
 -495 1611 -495 1611 -468 1584 c 0,10,11
 -442 1558 -442 1558 -404 1558 c 128,-1,12
 -366 1558 -366 1558 -341 1584 c 0,13,14
 -315 1612 -315 1612 -315 1648 c 128,-1,15
 -315 1684 -315 1684 -341 1710 c 128,-1,16
 -367 1736 -367 1736 -404 1736 c 0,17,18
 -440 1736 -440 1736 -468 1710 c 0,19,20
 -495 1684 -495 1684 -495 1648 c 0,8,9
EndSplineSet
Substitution2: "Single Substitution lookup 3" uni0E4D.high
EndChar
StartChar: uni0E4E
Encoding: 3662 3662 197
Width: 0
VWidth: 2045
Flags: HW
HStem: 1991 156<-263.8 -142.9>
VStem: -744 159<1549.9 1672.1>
AnchorPoint: "AboveBase" -139.855 1302.03 mark 0
Fore
-473 1344 m 17,0,1
 -586 1344 -586 1344 -665 1422 c 0,2,3
 -744 1500 -744 1500 -744 1611 c 128,-1,4
 -744 1722 -744 1722 -665 1800 c 0,5,6
 -586 1879 -586 1879 -473 1879 c 1,7,8
 -473 1990 -473 1990 -394 2069 c 0,9,10
 -314 2147 -314 2147 -204 2147 c 0,11,12
 -93 2147 -93 2147 -12 2069 c 0,13,14
 67 1991 67 1991 67 1879 c 1,15,-1
 -91 1879 l 1,16,17
 -91 1924 -91 1924 -124 1958 c 0,18,19
 -157 1991 -157 1991 -204 1991 c 0,20,21
 -250 1991 -250 1991 -283 1958 c 0,22,23
 -316 1924 -316 1924 -316 1879 c 0,24,25
 -316 1835 -316 1835 -284 1800 c 1,26,-1
 -284 1689 l 1,27,-1
 -393 1689 l 1,28,29
 -428 1722 -428 1722 -473 1722 c 0,30,31
 -520 1722 -520 1722 -553 1689 c 0,32,33
 -585 1658 -585 1658 -585 1611 c 128,-1,34
 -585 1564 -585 1564 -553 1532 c 0,35,36
 -519 1500 -519 1500 -473 1500 c 1,37,-1
 -473 1344 l 17,0,1
EndSplineSet
EndChar
StartChar: uni0E4F
Encoding: 3663 3663 198
Width: 1571
VWidth: 2045
Flags: HW
HStem: -23 133<677.4 889.3> 245 177<734.6 833.4> 600 179<737.2 832.1> 914 133<677.4 889.3>
VStem: 244 134<408 617.3> 514 179<463.9 558.8> 873 181<465.2 558.8> 1189 134<408 617.3>
Fore
693 512 m 0,0,1
 693 475 693 475 720 448 c 0,2,3
 746 422 746 422 784 422 c 128,-1,4
 822 422 822 422 847 448 c 0,5,6
 873 476 873 476 873 512 c 128,-1,7
 873 548 873 548 847 574 c 128,-1,8
 821 600 821 600 784 600 c 0,9,10
 748 600 748 600 720 574 c 0,11,12
 693 548 693 548 693 512 c 0,0,1
244 512 m 128,-1,14
 244 657 244 657 316 780 c 0,15,16
 390 904 390 904 513 975 c 0,17,18
 638 1047 638 1047 784 1047 c 0,19,20
 930 1047 930 1047 1054 975 c 0,21,22
 1179 903 1179 903 1251 780 c 128,-1,23
 1323 657 1323 657 1323 512 c 128,-1,24
 1323 367 1323 367 1251 244 c 128,-1,25
 1179 121 1179 121 1054 49 c 0,26,27
 930 -23 930 -23 784 -23 c 0,28,29
 638 -23 638 -23 513 49 c 0,30,31
 390 120 390 120 316 244 c 0,32,13
 244 367 244 367 244 512 c 128,-1,14
378 512 m 0,33,34
 378 432 378 432 410 356 c 0,35,36
 442 281 442 281 497 227 c 0,37,38
 555 172 555 172 627 142 c 0,39,40
 702 110 702 110 784 110 c 0,41,42
 865 110 865 110 941 142 c 0,43,44
 1015 174 1015 174 1070 227 c 0,45,46
 1126 281 1126 281 1157 356 c 0,47,48
 1189 432 1189 432 1189 512 c 0,49,50
 1189 593 1189 593 1157 668 c 0,51,52
 1126 743 1126 743 1070 797 c 0,53,54
 1015 850 1015 850 941 882 c 0,55,56
 865 914 865 914 784 914 c 0,57,58
 702 914 702 914 627 882 c 0,59,60
 555 852 555 852 497 797 c 0,61,62
 442 743 442 743 410 668 c 0,63,64
 378 593 378 593 378 512 c 0,33,34
514 512 m 0,65,66
 514 622 514 622 592 701 c 0,67,68
 672 779 672 779 784 779 c 0,69,70
 897 779 897 779 975 701 c 0,71,72
 1054 620 1054 620 1054 512 c 128,-1,73
 1054 404 1054 404 975 323 c 0,74,75
 897 245 897 245 784 245 c 0,76,77
 672 245 672 245 592 323 c 0,78,79
 514 402 514 402 514 512 c 0,65,66
EndSplineSet
EndChar
StartChar: uni0E50
Encoding: 3664 3664 199
Width: 1326
VWidth: 2045
Flags: HW
HStem: 0 197<514.409 837.175> 697 197<501.93 810.671>
VStem: 123 220<307.656 578.186> 983 220<303.879 587>
Fore
343 447 m 0,0,1
 343 340 343 340 446 268.5 c 128,-1,2
 549 197 549 197 663 197 c 0,3,4
 797 197 797 197 890 267 c 128,-1,5
 983 337 983 337 983 447 c 0,6,7
 983 555 983 555 880 626 c 128,-1,8
 777 697 777 697 663 697 c 0,9,10
 539 697 539 697 441 622.5 c 128,-1,11
 343 548 343 548 343 447 c 0,0,1
123 447 m 0,12,13
 123 566 123 566 196 671 c 0,14,15
 267 772 267 772 393 834 c 0,16,17
 516 894 516 894 663 894 c 128,-1,18
 810 894 810 894 934 834 c 0,19,20
 1058 773 1058 773 1130 671 c 0,21,22
 1203 568 1203 568 1203 447 c 0,23,24
 1203 325 1203 325 1130 224 c 0,25,26
 1059 122 1059 122 934 60 c 0,27,28
 810 0 810 0 663 0 c 128,-1,29
 516 0 516 0 393 60 c 0,30,31
 267 122 267 122 196 224 c 0,32,33
 123 327 123 327 123 447 c 0,12,13
EndSplineSet
EndChar
StartChar: uni0E51
Encoding: 3665 3665 200
Width: 1388
VWidth: 2045
Flags: HW
HStem: 0 226<566 728.4> 404 184<632.2 727.1> 679 215<508.323 871.636>
VStem: 127 230<290.146 552.108> 405 183<267.9 362.8> 768 185<269.2 362.8> 1024 220<176.466 532.018>
Fore
588 316 m 0,0,1
 588 279 588 279 615 252 c 0,2,3
 641 226 641 226 679 226 c 128,-1,4
 717 226 717 226 742 252 c 0,5,6
 768 280 768 280 768 316 c 128,-1,7
 768 352 768 352 742 378 c 128,-1,8
 716 404 716 404 679 404 c 0,9,10
 643 404 643 404 615 378 c 0,11,12
 588 352 588 352 588 316 c 0,0,1
432 208 m 1,13,14
 405 252 405 252 405 314 c 0,15,16
 405 427 405 427 485.5 507.5 c 128,-1,17
 566 588 566 588 679 588 c 128,-1,18
 792 588 792 588 872.5 507.5 c 128,-1,19
 953 427 953 427 953 314 c 0,20,21
 953 187 953 187 848.5 93.5 c 128,-1,22
 744 0 744 0 566 0 c 0,23,24
 403 -0 403 -0 321.5 54.5 c 128,-1,25
 240 109 240 109 183 198.5 c 128,-1,26
 126 288 126 288 127 414 c 0,27,28
 128 558 128 558 212 677 c 128,-1,29
 296 796 296 796 423 845 c 128,-1,30
 550 894 550 894 698 894 c 0,31,32
 843 894 843 894 958 835.5 c 128,-1,33
 1073 777 1073 777 1158.5 661 c 128,-1,34
 1244 545 1244 545 1244 364 c 0,35,36
 1244 154 1244 154 1154 29.5 c 128,-1,37
 1064 -95 1064 -95 952 -162 c 1,38,-1
 816 -5 l 1,39,40
 923 72 923 72 973.5 146 c 128,-1,41
 1024 220 1024 220 1024 364 c 0,42,43
 1024 493 1024 493 928 585.5 c 128,-1,44
 832 678 832 678 699 679 c 0,45,46
 552 680 552 680 454.5 599.5 c 128,-1,47
 357 519 357 519 357 409 c 0,48,49
 357 329 357 329 369.5 292 c 128,-1,50
 382 255 382 255 432 208 c 1,13,14
EndSplineSet
EndChar
StartChar: uni0E52
Encoding: 3666 3666 201
Width: 1604
VWidth: 2045
Flags: HW
HStem: 0 217<292 1240.39> 268 186<586.6 685.4> 679 215<1140.94 1321.9>
VStem: 74 218<217 1135.07> 362 183<495.9 590.8> 725 185<497.2 590.8> 1294 231<291.7 748>
Fore
545 544 m 0,0,1
 545 507 545 507 572 480 c 0,2,3
 598 454 598 454 636 454 c 128,-1,4
 674 454 674 454 699 480 c 0,5,6
 725 508 725 508 725 544 c 128,-1,7
 725 580 725 580 699 606 c 128,-1,8
 673 632 673 632 636 632 c 0,9,10
 600 632 600 632 572 606 c 0,11,12
 545 580 545 580 545 544 c 0,0,1
840 680 m 1,13,14
 910 600 910 600 910 542 c 0,15,16
 910 429 910 429 829.5 348.5 c 128,-1,17
 749 268 749 268 636 268 c 128,-1,18
 523 268 523 268 442.5 348.5 c 128,-1,19
 362 429 362 429 362 542 c 0,20,21
 362 701 362 701 466 799 c 156,-1,22
 570 897 570 897 732 897 c 0,23,24
 942 897 942 897 1037 784 c 1,25,26
 1101 894 1101 894 1198 894 c 0,27,28
 1525 894 1525 894 1525 453 c 0,29,30
 1525 224 1525 224 1416.5 112 c 128,-1,31
 1308 0 1308 0 1137 0 c 2,32,-1
 74 0 l 1,33,-1
 74 1094 l 2,34,35
 74 1126 74 1126 53.5 1147 c 128,-1,36
 33 1168 33 1168 2 1165 c 1,37,-1
 2 1384 l 1,38,39
 149 1384 149 1384 220.5 1296 c 128,-1,40
 292 1208 292 1208 292 1094 c 2,41,-1
 292 217 l 1,42,-1
 1085 217 l 2,43,44
 1205 217 1205 217 1249.5 272.5 c 128,-1,45
 1294 328 1294 328 1294 449 c 0,46,47
 1294 679 1294 679 1201 679 c 0,48,49
 1155 679 1155 679 1130 542 c 1,50,-1
 944 542 l 1,51,52
 913 674 913 674 840 680 c 1,13,14
114 0 m 1,53,-1
EndSplineSet
EndChar
StartChar: uni0E53
Encoding: 3667 3667 202
Width: 1476
VWidth: 2045
Flags: HW
HStem: 0 186<362.6 461.4> 364 184<365.2 460.1> 679 215<396.584 607.848 945.338 1050.78>
VStem: 103 218<242.903 440> 501 185<229.2 322.8> 666 220<458 608.21> 1093 220<0 631.863>
Fore
232 66 m 156,-1,1
 165 132 165 132 134 210 c 132,-1,2
 103 288 103 288 103 440 c 4,3,4
 103 538 103 538 149.5 650.5 c 132,-1,5
 196 763 196 763 297 828.5 c 132,-1,6
 398 894 398 894 517 894 c 4,7,8
 678 894 678 894 772 804 c 5,9,10
 862 894 862 894 992 894 c 4,11,12
 1132 894 1132 894 1222.5 803.5 c 132,-1,13
 1313 713 1313 713 1313 566 c 6,14,-1
 1313 0 l 5,15,-1
 1093 0 l 5,16,-1
 1093 574 l 6,17,18
 1093 619 1093 619 1064.5 648.5 c 132,-1,19
 1036 678 1036 678 987 677 c 4,20,21
 955 676 955 676 920.5 649 c 132,-1,22
 886 622 886 622 886 569 c 6,23,-1
 886 458 l 5,24,-1
 666 458 l 5,25,-1
 666 566 l 6,26,27
 666 608 666 608 626.5 643.5 c 132,-1,28
 587 679 587 679 517 679 c 4,29,30
 424 679 424 679 385 630 c 132,-1,31
 346 581 346 581 334 537 c 5,32,33
 371 548 371 548 412 548 c 4,34,35
 525 548 525 548 605.5 467.5 c 132,-1,36
 686 387 686 387 686 274 c 132,-1,37
 686 161 686 161 605.5 80.5 c 132,-1,38
 525 0 525 0 412 0 c 132,-1,0
 299 0 299 0 232 66 c 156,-1,1
321 276 m 4,39,40
 321 239 321 239 348 212 c 4,41,42
 374 186 374 186 412 186 c 132,-1,43
 450 186 450 186 475 212 c 4,44,45
 501 240 501 240 501 276 c 132,-1,46
 501 312 501 312 475 338 c 132,-1,47
 449 364 449 364 412 364 c 4,48,49
 376 364 376 364 348 338 c 4,50,51
 321 312 321 312 321 276 c 4,39,40
EndSplineSet
EndChar
StartChar: uni0E54
Encoding: 3668 3668 203
Width: 1498
VWidth: 2045
Flags: HW
HStem: 0 218<461.228 645 825 1294> 532 134<756.9 850.5> 677 217<448.943 1205.23> 1054 20G<1311 1531>
VStem: 110 220<322.35 588.669> 555 160<394.9 491.75> 895 136<394.9 491.75>
Fore
715 443 m 4,0,1
 715 406 715 406 742 380 c 4,2,3
 768 353 768 353 805 353 c 4,4,5
 841 353 841 353 868 380 c 4,6,7
 895 406 895 406 895 443 c 4,8,9
 895 480 895 480 868 506 c 4,10,11
 840 532 840 532 805 532 c 4,12,13
 768 532 768 532 742 506 c 4,14,15
 715 480 715 480 715 443 c 4,0,1
645 218 m 21,16,17
 552 309 552 309 555 443 c 4,18,19
 557 527 557 527 629 599 c 4,20,21
 696 666 696 666 805 666 c 4,22,23
 898 666 898 666 964 600 c 4,24,25
 1031 533 1031 533 1031 443 c 4,26,27
 1031 352 1031 352 964 285 c 4,28,29
 898 220 898 220 825 220 c 13,30,-1
 1294 218 l 5,31,-1
 1294 0 l 5,32,-1
 561 0 l 6,33,34
 435 0 435 0 331 61 c 132,-1,35
 227 122 227 122 168.5 224 c 132,-1,36
 110 326 110 326 110 447 c 4,37,38
 110 572 110 572 170 673 c 132,-1,39
 230 774 230 774 333.5 834 c 132,-1,40
 437 894 437 894 564 894 c 6,41,-1
 1131 896 l 6,42,43
 1205 896 1205 896 1258 948 c 132,-1,44
 1311 1000 1311 1000 1311 1074 c 5,45,-1
 1531 1074 l 5,46,47
 1531 898 1531 898 1420.5 787.5 c 132,-1,48
 1310 677 1310 677 1131 677 c 6,49,-1
 563 677 l 6,50,51
 475 677 475 677 403 617 c 132,-1,52
 331 557 331 557 330 452 c 4,53,54
 328 352 328 352 394.5 285 c 132,-1,55
 461 218 461 218 561 218 c 6,56,-1
 645 218 l 21,16,17
EndSplineSet
EndChar
